<svg xmlns="http://www.w3.org/2000/svg" viewBox="0 0 230.62 63.44"><defs><style>.cls-1{fill:#d3de32;}</style></defs><title>Asset 2</title><g id="Layer_2" data-name="Layer 2"><g id="OBJECTS"><path class="cls-1" d="M230.39,25.14c-.07,0-.12,0-.1.08s-.26.06-.63,0c-.55-.1-.64-.15-.56-.3s.26-.17.6-.11.48.12.47.18.07.08.19.06c.32,0,.3-.18,0-.34a.58.58,0,0,1-.33-.4c0-.21-.06-.24-.27-.14s-.23.08-.1-.11.09-.23-.59-.4a13.73,13.73,0,0,1-1.56-.48L226,22.61c-1-.37-3-1.12-3.28-1.18s-2.29-.74-3.17-1.05c-1.16-.41-3.67-1.2-5.3-1.67l-1.67-.49c-3.53-1-6.48-1.8-13-3.38-2.29-.56-14.49-3.15-15.79-3.36-.51-.08-2-.34-3.24-.58-2.85-.54-5.85-1.06-6.47-1.13-.26,0-1.46-.22-2.66-.44S169.16,9,169.12,9s-.76-.09-1.61-.23a49.4,49.4,0,0,0-5.87-.66.34.34,0,0,1-.3,0c-.06-.05-.2,0-.32,0-.28.19-.72.09-.56-.12s0-.17-.08-.2a.21.21,0,0,0-.26.12.19.19,0,0,1-.24.13c-.11,0-.18-.09-.16-.16s-.1-.14-.25-.17-.28,0-.28.19-.06.23-.15.22a2.36,2.36,0,0,1-1.19-.47c-.23-.21-.27-.22-.51-.07s-.24.15-.13,0,.07-.2,0-.22a1.13,1.13,0,0,0-.46.11c-.18.09-.26.09-.19,0s0-.14-.21-.19-.32,0-.29.06-.14.09-.41,0-.45-.16-.43-.23S154,6.88,153.8,7s-.1,0-.06-.12,0-.2-.11-.09-.4.09-1.1-.08c-.86-.21-.92-.21-.81,0s.09.21-.18.07a8.16,8.16,0,0,0-2.88-.51,10,10,0,0,1-1.67-.2,21.45,21.45,0,0,0-3.61-.37,13.48,13.48,0,0,1-1.71-.24c-.73-.16-1.07-.18-1-.09s-.77-.08-1-.27a1,1,0,0,0-.54,0c-.26,0-.44,0-.42,0s-.14-.15-.35-.2-.38,0-.36.11-.28.18-.57-.11c-.12-.13-.27-.21-.32-.18a5.53,5.53,0,0,1-1-.11,2.39,2.39,0,0,0-1-.06.46.46,0,0,1-.32.06l-.74-.07c-1-.08-1.67-.23-1.63-.37s-.08-.13-.24-.13-.29.05-.3.11-.18.07-.35,0a.49.49,0,0,0-.42.06c-.08.1-.13.09-.24,0a.54.54,0,0,0-.73-.13A4,4,0,0,1,128.39,4s-.19-.06-.36,0a3,3,0,0,1-.93,0c-.92-.15-1.46-.13-1.64,0s-.45.11-1,0c-.74-.1-.83-.13-.72-.28s.07-.15-.07-.13a.34.34,0,0,0-.25.14c0,.07-.06.08-.1,0s-.19,0-.33,0c-.39.19-1.72-.07-1.54-.29s-.68-.35-.85-.15-.13.12-.1,0-.52-.43-.69-.22-.12.08-.19-.07-.12-.18-.26-.07A.33.33,0,0,1,119,3a.35.35,0,0,0-.34,0,.7.7,0,0,1-.41.1,1.46,1.46,0,0,0-.45,0c-.09,0-.14,0-.12-.07s-.13-.11-.31-.12-.35,0-.37.09-.06.09-.12.06a3,3,0,0,0-.58,0,3.22,3.22,0,0,1-.73-.08.43.43,0,0,0-.4,0c-.13.1-.17.09-.2,0a.15.15,0,0,0-.2-.11,3.51,3.51,0,0,1-1-.11c-.54-.1-.89-.12-1,0a.32.32,0,0,1-.34,0,3.24,3.24,0,0,0-1.07-.09c-.48,0-1.17,0-1.52,0s-.63,0-.6.09,0,.11-.15,0a2.23,2.23,0,0,0-.85-.13c-.87,0-1.39-.09-1.44-.22a.15.15,0,0,0-.19-.06,20.53,20.53,0,0,1-2.69,0h-.28a8.48,8.48,0,0,1-1.36-.1,4.49,4.49,0,0,0-1.06,0,4.51,4.51,0,0,1-1.16,0,4.64,4.64,0,0,0-.89-.07c-.25.07-1.1,0-1-.14a.62.62,0,0,1,.43,0C98.78,2,99,2,99,1.9s-.09-.12-.25-.11l-.56,0c-.16,0-.28.06-.28.14s-.29.15-.64.17a6.77,6.77,0,0,0-1.17.21,3.68,3.68,0,0,1-1,.13,4.57,4.57,0,0,0-.93.07c-.36.08-.41.07-.4-.09s0-.15-.26-.09a.71.71,0,0,1-.5-.07c-.18-.11-.07-.15.55-.2L94.28,2l-.66-.11a3.21,3.21,0,0,0-1,0,1.17,1.17,0,0,1-.57,0,.75.75,0,0,0-.47,0,2.79,2.79,0,0,1-.61,0,3.19,3.19,0,0,0-1.52.37c-.23.15-.29.15-.41,0A.43.43,0,0,0,88.7,2a.13.13,0,0,1-.12-.18c0-.09.11-.16.18-.15s.15,0,.18-.14a.22.22,0,0,1,.25-.15,2.38,2.38,0,0,0,.81,0,2.45,2.45,0,0,1,.6,0,7.38,7.38,0,0,0,1,0,12.52,12.52,0,0,1,1.29,0,2.26,2.26,0,0,0,1.25-.13.51.51,0,0,1,.4,0c.09.06.15.05.12,0S94.12.91,94,1.07a.16.16,0,0,1-.23,0,3.21,3.21,0,0,0-1.51,0s-.15,0-.29,0A1,1,0,0,0,91.4,1a8.18,8.18,0,0,1-1.18,0,2.81,2.81,0,0,0-1,.09c-.1.07-.23.1-.27.06a1.94,1.94,0,0,0-1.13.05c0,.05.08.15.22.21.34.16.2.48-.21.48-.18,0-.36.05-.37.11s-.14.08-.28.05a3.66,3.66,0,0,0-.89,0,10.34,10.34,0,0,1-1.41.09c-.5,0-.76,0-.74.14s-.08.12-.3,0-.34-.08-.35,0-.18.06-.34,0-.33-.08-.38.12-.13.24-.2.22-.11-.1-.1-.18,0-.12-.11,0a.32.32,0,0,1-.36,0c-.14-.08-.2-.08-.17,0,.09.25-.38.36-.78.18s-.39-.12-.45,0-.08.15-.09,0a.24.24,0,0,0-.16-.18c-.08,0-.13,0-.11.14s-.18.18-.63.2a3.32,3.32,0,0,0-.8.09c-.22.1-.36,0-.31-.15a.47.47,0,0,1,.31-.24c.22-.07.2-.08-.09-.08a5.67,5.67,0,0,0-.7.06c-1,.15-1.29.18-1.94.25a7.28,7.28,0,0,1-.86,0,5.08,5.08,0,0,0-.61,0H74l-.28.06a1.51,1.51,0,0,1-.49.05l-.73,0c-.48,0-.59-.3-.11-.31.27,0,.77-.36.56-.4a.14.14,0,0,0-.17.08c0,.11-.57.18-1,.13-.07,0-.11.06-.08.15s0,.08-.15-.06c-.32-.34-.33-.36-.1-.23s.23.07.25,0,0-.15-.82-.09c-.39,0-.68.1-.66.17s0,.1-.16.07-.19,0-.17.07-.4.19-.56,0-.16-.13-.21,0-.09.14-.1.06c0-.24-.31-.24-.74,0-.27.16-.41.18-.45.07s-.09-.11-.17,0-.1.09-.08,0-.39-.13-.44.06-.24.17-.47.19-.41,0-.39-.07a.13.13,0,0,0-.12-.14c-.07,0-.12,0-.09.09a.13.13,0,0,1-.11.17c-.08,0-.14,0-.12-.07s-.29-.23-.55-.1a1.73,1.73,0,0,1-.75,0,2.69,2.69,0,0,0-.87,0,1.37,1.37,0,0,1-.59,0,.49.49,0,0,0-.36,0,.91.91,0,0,1-.46.09A10.36,10.36,0,0,0,61,3.23a7.72,7.72,0,0,1-1.49.12c-.42,0-.64,0-.72.16s-.17.15-.23.1a1.6,1.6,0,0,0-.75,0,5.14,5.14,0,0,1-.77.09c-.28-.06-.86.1-.81.22s0,.09-.08,0a.72.72,0,0,0-.51,0,1.22,1.22,0,0,1-1.12-.16c-.19-.17-.56-.15-.49,0s.11.09.2,0,.15-.09.11.06-.31.23-.91.28a4.35,4.35,0,0,0-.95.17.44.44,0,0,1-.31,0A5.6,5.6,0,0,0,51,4.52c-2.13.4-2.55.44-2.49.22s.38-.17.72-.1a.71.71,0,0,0,.49-.14c.13-.1.27-.15.3-.11s.14,0,.27-.06a.62.62,0,0,1,.39-.11c.21,0,.29-.13.13-.28A2.59,2.59,0,0,0,49.42,4a.77.77,0,0,1-.4.07,1.53,1.53,0,0,0-.49,0,1.9,1.9,0,0,1-.54.07,6.32,6.32,0,0,0-.94.12l-1.47.27a1.57,1.57,0,0,0-.72.2s-.11,0-.28,0-.32-.06-.34,0a.16.16,0,0,1-.17.1A7,7,0,0,0,42.88,5c-.58.11-1.4.24-1.84.3a6,6,0,0,0-1,.22.92.92,0,0,1-.4.08.15.15,0,0,0-.18.07c0,.07-.11.07-.2,0a2.5,2.5,0,0,0-1,.08c-2.06.44-4.4.85-4.58.82a3.39,3.39,0,0,0-1.37.23.45.45,0,0,1-.35.07,1.41,1.41,0,0,0-1.13.28A1.46,1.46,0,0,1,30,7.5a6.21,6.21,0,0,0-1.27.4,2.1,2.1,0,0,1-.89.24,1.58,1.58,0,0,0-.65.08,1.19,1.19,0,0,1-.4.1s0,0,0,.06a.1.1,0,0,0,.12.09c.19,0,.08.1-.27.31s-.34.29-.38.69-.11.51-.21.54-.34.52-.2.73-.19.54-.54.58c-.19,0-.2,0,0-.1s.16-.15,0-.23-.34-.06-.43.26a.43.43,0,0,1-.23.31.22.22,0,0,0-.14.24.37.37,0,0,1-.17.32c-.3.2-.09.74.28.73.2,0,.24,0,.17.15a.27.27,0,0,1-.32.07c-.12,0-.22,0-.24,0s.05.14.17.17.17.14.13.28-.08.22-.23,0a.81.81,0,0,0-.28-.26c-.23-.05-.19.28.09.73.17.27.24.52.16.58a1.3,1.3,0,0,0-.11,1.13c.12.3.1.33-.4.57-.3.14-.45.26-.34.29s.12.06,0,.09c-.32.13-.3.45,0,.65s.43.47.09.4a.22.22,0,0,0-.25.14q0,.18.18.15c.16,0,.19,0,.1.14a1.11,1.11,0,0,0-.16.3c0,.07-.09,0-.16-.12s-.13-.25-.27,0a.28.28,0,0,0,0,.37c.2.16-.05.53-.27.4s-.19,0-.26.1a4.21,4.21,0,0,1-1.74.37l-1.92.22c-1.38.2-4.52.71-5.22.83l-1.53.27-1.89.32c-.68.12-1.5.24-1.8.25a5,5,0,0,0-2.23.46,7.24,7.24,0,0,1-1.52.51c-1.05.22-1.43.48-1.6,1.11a1,1,0,0,1-.42.49.89.89,0,0,0-.39.41.33.33,0,0,1-.34.24c-.22,0-.28.08-.29.33s0,.28-.1.12-.1-.15-.12-.07a.49.49,0,0,0,.11.35.87.87,0,0,1,.07.57c0,.2,0,.34.05.32s.11,0,.09.09.05.11.25.06.34,0,.55.25.3.66,0,.6c-.11,0-.21,0-.23,0-.12.32-.27.51-.43.56s-.42-.07-.26-.21,0-.08-.18,0a.57.57,0,0,0-.4.41c-.1.31-.07.35.22.37s.31,0,.12.22-.16.2,0,.16.14.07.08.26-.12.26-.19.2-.13,0-.16.09a.16.16,0,0,0,.11.21c.12,0,.11.06,0,.14s-.42.74-.24.78.07.09,0,.18a.32.32,0,0,0,0,.34.39.39,0,0,1,0,.39c-.13.17-.12.18.1.09a.41.41,0,0,1,.38,0c.08.08,0,.15-.16.22s-.23.11-.17.13,0,.14-.17.27a1.36,1.36,0,0,0-.31.33s0,0,.1,0a2.94,2.94,0,0,1,.74-.23c.51-.11.62-.1.64,0a.17.17,0,0,1-.14.2c-.12,0-.13,0,0,.06s.1.16,0,.38-.13.32.05.3a.27.27,0,0,1,.27.13c0,.11.12.1.28,0a.84.84,0,0,1,.5-.14c.35,0,.35.08,0,.27s-.27.11-.33,0-.1,0-.16.2,0,.43.07.5.14.14-.12.29-.26.21-.15.27.13.43-.08.38,0,.12.46.3.54.14.57,0,0-.12-.12-.09-.13,0-.1-.13a.21.21,0,0,1,.41.1,1.91,1.91,0,0,0,0,.52c0,.34-.06.5-.39.55s-.35.08-.15.21,0,.08-.26,0S2,36.4,2,36.57c-.09.38.05.56.43.52a1,1,0,0,1,.48,0,.94.94,0,0,0,.45,0,.59.59,0,0,1,.51.09c.17.14.14.16-.2.22s-.41.11-.42.16-.11,0-.23,0-.18-.07-.14,0a.43.43,0,0,0,.25.2c.37.08.1.27-.55.38s-.66.13-.7.53-.07.39-.17.3-.12-.08,0,.07.16.17.39.07.25-.09.12.14-.15.25.26,0A1.29,1.29,0,0,1,3,39.15c.1,0,.2,0,.22-.08s.12-.1.22-.08a.66.66,0,0,0,.4-.07c.24-.12.69-.08.65.07a1.41,1.41,0,0,1-.56.26,1.61,1.61,0,0,0-.55.24A2.4,2.4,0,0,1,2.22,40c-.11,0-.17-.07-.12-.11s0-.1,0-.11-.38.18-.23.33.08.11-.12,0-.29-.09-.3,0-.16.08-.32.05a.84.84,0,0,0-.51.11c-.11.08-.24.15-.28.13-.27-.08-.33-.06-.3.12s0,.18.18.08.14-.09.12,0,.11.15.29.18.31,0,.17-.19,0-.29.24,0a.35.35,0,0,0,.45.16,6.23,6.23,0,0,1,.91-.11c.54,0,.6,0,.35.07a2.56,2.56,0,0,1-.45.12c-.08,0-.12.07-.08.14a.13.13,0,0,0,.2,0,.71.71,0,0,1,.4-.1.29.29,0,0,0,.33-.24.35.35,0,0,1,.27-.27c.1,0,.15,0,.1.05s0,.1.16.14.26,0,.28,0,.55-.11.74.09.08.21-.59.4a2,2,0,0,0-.8.36c0,.09.08.09.3,0,.55-.19.73-.2.85,0s0,.11-.15,0a.4.4,0,0,0-.37,0c-.07.06,0,.13.06.15s.17.38-.08.55a.33.33,0,0,1-.5-.29c0-.18,0-.18-.07,0s-.14.16-.32.07-.25-.08-.21,0,0,.14-.06.13c-.22-.05-.24-.2,0-.4s.14-.19,0-.21a.19.19,0,0,0-.19.15c0,.21-.21.19-.38-.06s-.11-.13-.09,0a1,1,0,0,0,.4.47l.37.27H2.46c-.24,0-.41.08-.44.21a.37.37,0,0,1-.28.23c-.42,0-.29.28.17.29q.44,0,.24.09c-.12,0-.21.11-.21.15a.53.53,0,0,1,0,.11.64.64,0,0,0,.44,1c.19,0,.23,0,.11,0a.74.74,0,0,1-.22-.52c0-.4,0-.43.22-.38s.28,0,.3-.11.15-.11.35,0c.43.17.48.38.07.29-.19,0-.35,0-.37,0s-.12.1-.22.08.08.85.33.91.15,0,.12-.12.07,0,.22.21.32.64.11.45-.19,0-.31.06a.58.58,0,0,1-.38.1c-.1,0-.19,0-.21.08s.11.17.45,0c.17-.07.34-.08.38,0s.2,0,.34-.22c.29-.34.82-.55.91-.37a1.91,1.91,0,0,0,1.17.26c.18-.06.19.15,0,.51a.11.11,0,0,0,.07.17c.13,0,.23-.13.25-.35s.42-.34.59-.24.17,0,.16-.16.06-.28.14-.31.11,0,.07.11.62.35.9.21a.35.35,0,0,0,.18-.33c0-.13,0-.16.07-.08s.79.33.74.18.07-.16.19-.23.24-.1.26.06.55.36.6.18-.09-.19-.22-.27-.22-.16,0-.18.22,0,.2.11,0,.12.1,0a.23.23,0,0,1,.3,0c.13.11.11.19-.08.4s-.2.3-.12.36.13,0,.16-.08.1-.17.18-.15a.11.11,0,0,1,.09.14.15.15,0,0,0,.12.15c.08,0,.14-.08.13-.22s0-.24.1-.23.11-.13.12-.31,0-.32.22-.1.19.2.08,0,.05-.5.22-.35a.82.82,0,0,0,.47,0c.32-.06.39,0,.5.2s.11.28-.11.36a.47.47,0,0,1-.35,0c-.05-.05-.16,0-.24.1a1.9,1.9,0,0,1-.39.35c-.14.09-.19.18-.12.2a.24.24,0,0,0,.22-.08c0-.05.14.13.23.41s.11.52,0,.53-.15,0-.07-.13.05-.14-.11-.12-.22.06-.18.1-.32.33-.42.24-.09,0-.07.11.07.17.26.09.29-.11,1,0c.26,0,.45,0,.47-.08s.18-.1.49,0,.43.18.42.24c-.08.28.26.11.48-.25s.29-.41.72-.28a1.31,1.31,0,0,0,.68.06c.16-.07.21-.06.19,0s0,.14.15.17.21,0,.23-.08.21-.14.41-.16a.53.53,0,0,1,.62.27c.24.33.29.31.37-.14a.47.47,0,0,1,.32-.32c.21-.05.29,0,.36.22s.1.24.14.1.64-.28.58-.08.06.09.16.06.06,0-.09.08c-.33.14-.37.26-.12.31a.73.73,0,0,0,.46-.18c.15-.11.27-.17.25-.12s.12,0,.31,0c.43-.15.69-.1.63.11s.08.27.33.13.18,0,.18.17,0,.21-.09.16-.12-.08-.29.35a.71.71,0,0,1-.23.32c-.14.08-.38-.43-.25-.54s0-.1-.06-.12-.42.28-.29.45,0,.24-.08.4-.15.28-.11.31a.74.74,0,0,0,.76-.05c.15-.14.18-.13.42.1s.4.78.2.67c0,0-.1,0-.14.06s.68.33.81.21.05-.09,0-.1-.42-.82-.32-.87a1.92,1.92,0,0,1,.49,0c.38,0,.44,0,.44.33s.09.41.36.26a2.56,2.56,0,0,1,1.16,0,1.68,1.68,0,0,1-.77.37.87.87,0,0,0-.43.29c-.37.39-.46.61-.19.47s.27,0,.52.15.34.25.48,0,.3,0,.14.6c-.1.4-.07.51.15.62a1,1,0,0,0,.61,0c.2-.07.35-.06.39,0s.5,0,.55-.24a1.68,1.68,0,0,1,.29-.38c.21-.22.26-.23.29-.06s0,.31-.19.26-.35.24-.38.57c0,0-.11.1-.23.12a.31.31,0,0,0-.06.61,1,1,0,0,0,.35.11s.07.07.09.19.05.2.27.05.16-.15.07-.12-.13-.09.07-.4c0,0,.05.08.08.24.05.33.29.43.37.16a.15.15,0,0,1,.2-.12c.24.09.92,0,.95,0s.19-.09.4-.06.37,0,.45-.31a.87.87,0,0,1,.33-.48c.21-.12.22-.1.08.15s-.14.47.27.37.59-.24.38-.47-.15-.18.16,0,.35.11.38,0,.08-.09.14,0,0,.16-.11.28-.25.16-.29.12-.13,0-.2.09,0,.18.14.22.21.09.15.15,0,.12.09.14.19.1.18.17.1.13.27.14.31,0,.38-.43.1-.44.28-.33.2.06.18-.07,0-.14.14-.08.19,0,.21,0-.25-.22-.43-.12a1.19,1.19,0,0,1-.45,0c-.37,0-.39-.34,0-.38a.37.37,0,0,0,.28-.26.25.25,0,0,1,.26-.2c.11,0,.18.1.16.17s0,.1.12.07a.26.26,0,0,0,.18-.16c0-.06-.05-.09-.14-.06s-.12,0,0-.22.25-.26.57-.27.48-.06.49-.12.07-.07.13,0a.15.15,0,0,0,.21,0,.54.54,0,0,1,.37,0c.14,0,.27,0,.29-.06s.2-.08.4,0a1,1,0,0,0,.49,0,.37.37,0,0,1,.21-.05c.27,0,1.15-.12,1.11-.2s.08-.05.22,0,.26.08.28,0,.25-.06.51,0a2.12,2.12,0,0,0,.91-.07,2,2,0,0,1,.51-.15,1,1,0,0,0,.36-.13,4.35,4.35,0,0,1,1.47-.5,2.12,2.12,0,0,0,.72-.23,5,5,0,0,1,1.81-.37,1.72,1.72,0,0,0,.62-.11,2.38,2.38,0,0,1,.88,0c.38,0,.69,0,.71,0s.39,0,.41.14.12.13.26.11.22-.1.19-.18,0-.12.16,0a.43.43,0,0,0,.46,0c.13-.09.18-.11.12,0s-.08.18.52.1c.37-.05.5,0,.52.08s0,.1.08,0,.11-.13.17-.11.07.11,0,.21,0,.09.18-.05c.49-.36.76-.5.82-.41s.89-.08,1.41-.34a1.61,1.61,0,0,1,.8-.17,1.14,1.14,0,0,0,.55,0c.12-.06.05-.1-.22-.11-1,0-1.9.13-1.76.34,0,0-.11.08-.34.08a4.94,4.94,0,0,0-.93.12c-.67.14-.67.14-.57-.16a.37.37,0,0,1,.36-.27A.47.47,0,0,0,48,47c.12-.3.54-.37.46-.08,0,.11,0,.12.1,0a1.28,1.28,0,0,1,.53-.16c.22,0,.42-.12.44-.22s.08-.16.14-.14c.31.11.59.08.71-.08a.66.66,0,0,1,.76-.23c.16,0,.31,0,.33-.07s.07-.1.11,0,.2,0,.35,0a.7.7,0,0,1,.55,0c.16.07.3.06.37,0s.62-.08.55.18-.2.26-.55.15a.16.16,0,0,0-.21.11c-.05.15,0,.16.49.1a2.13,2.13,0,0,0,.67-.19c.08-.07.13-.08.12,0s.14,0,.35,0a.74.74,0,0,1,.49,0A.62.62,0,0,0,55.6,46c.14-.2.16-.21.16,0s.05.21.34.1a1.7,1.7,0,0,1,.75,0,.82.82,0,0,0,.53,0c.06-.05-.05-.12-.22-.15s-.46-.29-.16-.26a.31.31,0,0,0,.18,0,3.25,3.25,0,0,1,.49,0c.33,0,.41.1.32.21s-.14.18.53,0c.4-.08.5-.14.32-.18s-.25-.07,0-.1.31,0,.35.1.17.12.46.06l.4-.1-.34-.11c-.18-.05-.33-.14-.32-.19s.74-.23,1-.1.19.09,0-.09a.36.36,0,0,1,0-.47c.09-.14.16-.21.15-.14s1.21.39,1.68.25.4-.17.28-.29-.07-.11.11,0a.46.46,0,0,0,.37,0,1.32,1.32,0,0,1,.59-.07c.3,0,.47,0,.43-.12s0-.11.07,0a.38.38,0,0,0,.33,0,1.36,1.36,0,0,1,.5,0,1,1,0,0,0,.53,0c.26-.11,1.16,0,1.13.14a.53.53,0,0,1-.29.16c-.24.06-.24.07,0,.14a3.91,3.91,0,0,0,.43.11.16.16,0,0,1,.12.2.16.16,0,0,0,.09.19.14.14,0,0,0,.16-.09c0-.06.16-.08.32,0s.25.07,0,.08-.22,0-.16.16-.17.78-.34.74a.12.12,0,0,0-.14.07c0,.06.09.12.24.15s.28,0,.3-.06.06,0,.1.05.15.17.34.12a7.43,7.43,0,0,1,1.32.08l1,.13-.08.3c0,.19-.15.28-.27.26s-.21,0-.23.07-.12.1-.23.07-.21,0-.22.06.51.48.82.48.27,0,.26.13,0,.11.14.09.12,0,0,0a.31.31,0,0,1-.32,0c-.15-.09-.19-.06-.18.14s0,.23-.15.17a.28.28,0,0,0-.29,0c-.09.07-.07.09,0,.06s.24.21.24.85c0,.26-.06.33-.35.38s-.37,0-.4-.06c-.09-.23-.28-.2-.4.07a.26.26,0,0,1-.3.18c-.11,0-.22,0-.28.21s-.05.27,0,.27.57.49.46.55,0,.17.08.29.16.21,0,.18a1,1,0,0,0-.55.25,1.39,1.39,0,0,1-.67.29c-.17,0-.33.08-.36.18s0,.17.17.15a.24.24,0,0,1,.25.1c0,.06.15.12.31.13s.26.07.23.17,0,.15.18.14.21-.11.2-.2,0-.16.06-.14a1.43,1.43,0,0,0,.89,0,4.37,4.37,0,0,1,.71-.2,9.64,9.64,0,0,1,1.68-.23,1.12,1.12,0,0,0,.41-.13c.29-.15.3-.14.43.11s.14.2.15.12.21-.17.42-.2.4,0,.46.13.08.16.07,0,0-.2.22-.17.41.21.23.34a1.19,1.19,0,0,0-.3.35c-.12.21-.09.23.26.25s.43.09.25.62c0,.1,0,.12,0,.06s.75.07.87.33.14.17.34,0,.57-.31.66-.06c0,.08.2.17.39.21s.3.11.21.23,0,.24.29.06.26-.1.31,0,.22,0,.36-.12a.44.44,0,0,1,.44-.1c.21.12.58-.1.55-.33s-.06-.06-.11.07-.09.2-.15,0,0-.36.33-.3a.75.75,0,0,0,.51-.14,1.72,1.72,0,0,1,.84-.14c.59,0,.65,0,.42-.24s.08-.67.51-.66a21.72,21.72,0,0,0,4.84-.89.45.45,0,0,1,.36.05.42.42,0,0,0,.37,0,.54.54,0,0,1,.37,0,.27.27,0,0,0,.31-.12c.06-.23.52-.32,1-.22.22,0,.41,0,.43,0s.15-.09.3,0a1.7,1.7,0,0,0,.59,0,1.84,1.84,0,0,1,.66,0,2.35,2.35,0,0,0,.59,0,.46.46,0,0,1,.32,0,2,2,0,0,0,1.2-.11,1.57,1.57,0,0,1,.58-.09,3.64,3.64,0,0,0,.73,0,3,3,0,0,1,.6,0c.13,0,.19,0,.17-.16s0-.18.13-.11a.54.54,0,0,0,.38,0c.15,0,.08-.1-.25-.17l-.45-.11.57-.07a3.88,3.88,0,0,1,.83,0,.79.79,0,0,0,.46,0,.91.91,0,0,1,.57.05c.21.07.41.08.45,0a2.53,2.53,0,0,1,1.53.11c.08.1.18.11.32,0s.2-.08.25.06.11.16.3.06a4,4,0,0,1,1.42-.27,3.78,3.78,0,0,0,.54,0c.32,0,.37-.08.24-.19s-.13-.14.08-.17.22-.09.19-.17,0-.08.08,0a.18.18,0,0,0,.23,0c.07-.06.22,0,.41.09.4.24.41.24.46,0a3.4,3.4,0,0,1,2,.22c0,.09.13.09.34,0a1.41,1.41,0,0,1,.6-.06,1.76,1.76,0,0,0,.63,0c.27-.06.42,0,.51.07s.14.12.14,0,.1-.14.31-.07.27,0,.25,0,.08-.1.24-.08a10,10,0,0,0,2.32,0,.73.73,0,0,1,.34,0,2,2,0,0,0,.71-.06,7.73,7.73,0,0,1,.84-.13c.14,0,.24-.07.22-.13s.08-.08.21,0,.24.1.22.16.1,0,.25,0c.35-.16,1.06-.09,1.08.11s-.2.13-.51.11a3.68,3.68,0,0,0-1.62.23c0,.12.33.19.44.09s1.18.08,1.14.21a5.77,5.77,0,0,1-1.42.15,9.53,9.53,0,0,0-1.42.11c0,.1,1,.19,1.17.1a4.68,4.68,0,0,1,1.53.07.79.79,0,0,0,.51-.1.74.74,0,0,1,.47-.1,3,3,0,0,0,1.21-.05,3.12,3.12,0,0,1,1,.08c.44.11.73.12.79,0a.69.69,0,0,1,.53,0,13.19,13.19,0,0,0,3.92,0,.93.93,0,0,1,.49,0,.39.39,0,0,0,.33,0,4.2,4.2,0,0,1,1.62.07,1.77,1.77,0,0,0,.56,0,6.34,6.34,0,0,1,1.21.1c.58.08,1.32.15,1.66.16a1.47,1.47,0,0,1,.73.14,2.08,2.08,0,0,0,.67.26c.4.1.57.09.6,0s.21-.18.36,0,.2.14.41.09a3.62,3.62,0,0,1,.82,0,4.34,4.34,0,0,0,.87,0,.61.61,0,0,1,.46.07c.11.13.7.17,2,.15,1.51,0,2.64,0,3.19,0a5.58,5.58,0,0,0,1.08,0,2.44,2.44,0,0,1,.62,0,1.1,1.1,0,0,0,.38,0l.71-.07a1.74,1.74,0,0,1,.51,0,8.54,8.54,0,0,0,2,0,1.59,1.59,0,0,1,.57,0c1.79.28,3.19.31,2.93.06-.08-.08,0-.07.18,0a4.34,4.34,0,0,0,1.13.17c.45,0,1.05,0,1.35.08a4.74,4.74,0,0,0,.82,0,15.12,15.12,0,0,1,1.82.06,6,6,0,0,0,1.48,0s-.21-.1-.44-.13c-.47,0-.51-.27,0-.23.22,0,.32-.05.33-.21s.05-.2.18,0a1.4,1.4,0,0,0,.66.31,11.6,11.6,0,0,0,3.06.12c0-.06.08-.07.14,0s.09,0,.08-.11-.06-.19-.4-.08-.39.06-.29-.17c0,0,0-.07-.11,0a.13.13,0,0,0-.11.17c0,.07,0,.11-.1.1s-.12-.08-.1-.14a7.23,7.23,0,0,0-2.58-.42,2.12,2.12,0,0,1-1.12-.25c-.52-.22-.7-.26-.8-.16s0,.34.36.42c.12,0,.21.1.19.16s-.36.15-.65,0-.29-.11-.32,0-.25.1-.6,0a2.86,2.86,0,0,0-1.42-.08c-.08,0-.06.06,0,0a.2.2,0,0,1,.23.1c0,.07,0,.12-.1.1s-.12,0-.09.13,0,.11-.11.05a4,4,0,0,0-1-.18l-1.42-.14a18.19,18.19,0,0,0-3.18,0c-1.07,0-2.06,0-2.2,0a2.55,2.55,0,0,0-.69,0,1.16,1.16,0,0,1-.59,0,1.53,1.53,0,0,0-.52-.07c-.21,0-.4,0-.42-.1a4,4,0,0,0-1.61-.29.45.45,0,0,1-.31-.12c-.15-.12-.22-.13-.25,0s-.72.31-1.17.23a6.49,6.49,0,0,1-.88-.26c-.47-.16-.55-.17-.53,0s0,.18-.1.17a.11.11,0,0,1-.09-.15c0-.08-.06-.12-.17-.11a1.28,1.28,0,0,1-.59-.26c-.33-.24-.34-.28-.11-.27a1.24,1.24,0,0,0,.43-.07.91.91,0,0,1,.45,0,.53.53,0,0,0,.41,0,.51.51,0,0,1,.39,0,1,1,0,0,0,.49,0c.14,0,.18,0,.09,0a.11.11,0,0,0,0,.19,4,4,0,0,0,1.88,0c.05-.08,0-.13-.05-.1-.27.08-1.13-.06-1-.16a.26.26,0,0,1,.27,0c.09.06.18.05.19,0s-.31-.2-.59,0c-.46.24-.74,0-.34-.31a.92.92,0,0,1,.57-.14,2.34,2.34,0,0,0,.48,0c.08,0,.19.06.22.18s.08.19.19,0a3,3,0,0,1,1.73-.14.21.21,0,0,0,.28-.06c.08-.1.29-.13.56-.07a7.92,7.92,0,0,0,1.2.06c.42,0,1,0,1.31,0l.81.07a.47.47,0,0,0,.36-.11c.07-.1,0-.13-.18-.11a20.71,20.71,0,0,1-2.69-.35c-.16,0-.3,0-.32,0a10.34,10.34,0,0,1-2.13.07.11.11,0,0,1-.08-.12,9.12,9.12,0,0,1,2-.1c.05,0,.13-.06.19-.17a.37.37,0,0,1,.36-.15c.15,0,.71,0,1.24,0,2,0,4,.2,3.79.37s0,.12.14.15a.39.39,0,0,0,.36-.09.72.72,0,0,1,.44-.14h1.16a18.5,18.5,0,0,1,2.78.35c1.07.19,2,.33,2.09.31a1.51,1.51,0,0,1,.39,0l.79,0a27.42,27.42,0,0,1,3.3.49,6.08,6.08,0,0,0,1.3.17c0-.12.93,0,1.15.08s.14.15,0,.25-.2.14.22.28a2.91,2.91,0,0,1,.44.17,5.18,5.18,0,0,0,.8.1,5.4,5.4,0,0,1,.91.11c.12,0,.23,0,.25,0a1.66,1.66,0,0,1,.86.06c1.45.29,1.74.32,2,.21s.21-.15.22-.2-.06-.05-.16,0a.7.7,0,0,1-.36.07c-.22,0,0-.42.2-.38a2.55,2.55,0,0,0,.62,0,10,10,0,0,1,2.35.29,17.13,17.13,0,0,0,2.12.34A8.55,8.55,0,0,1,172,52c.62.11,1.58.24,2.14.29s1.54.18,2.18.28a8.8,8.8,0,0,0,1.29.16c.06,0,.88.1,1.81.25s1.75.27,1.81.26a9.82,9.82,0,0,1,1.28.15,7.22,7.22,0,0,0,1.33.13,4.55,4.55,0,0,1,.89.07l1,.14c.13,0,.25,0,.26,0s.12,0,1.24.14a1.8,1.8,0,0,0,.72,0,5.88,5.88,0,0,1,1.32.09l1.37.18a.35.35,0,0,1,.2.16c0,.09.16.08.31,0s.29-.14.49,0,.24.15.27,0,.15-.07.34,0a3.1,3.1,0,0,0,1,.12,4.83,4.83,0,0,1,1.9.19s0,0,0-.07.15-.12.56,0a1.94,1.94,0,0,0,.78.07,8.12,8.12,0,0,1,2.39,0,4.59,4.59,0,0,0,1.1,0,1.5,1.5,0,0,1,.41,0,.64.64,0,0,0,.34-.15.78.78,0,0,1,.5-.1c.15,0,.3,0,.31-.05s-.43-.59-.81-.67-.45-.31-.08-.35a3,3,0,0,0,.73-.26,2.24,2.24,0,0,1,.6-.22.15.15,0,0,0,.14-.1,1.76,1.76,0,0,1,.6-.43,1.67,1.67,0,0,0,.6-.42c0-.06.21-.14.43-.17s.32-.09.24-.14c-.26-.15,0-.64.32-.69.18,0,.29-.05.25-.07s.1-.32.34-.69a2.9,2.9,0,0,0,.41-.84.54.54,0,0,1,.26-.33c.3-.17.31-.42,0-.48-.1,0-.11-.25,0-.64.16-.68.43-2.09.48-2.59,0-.18.09-.32.15-.31s.17-.19.22-.47.18-.54.37-.63c.35-.16.68-.71.46-.76s-.11-.06,0-.11a2.87,2.87,0,0,0,.28-.46,1.16,1.16,0,0,1,.39-.48,6.76,6.76,0,0,1,2.45,0,15.7,15.7,0,0,0,1.61.17,12,12,0,0,1,1.49.15,1.34,1.34,0,0,0,.64,0,2.39,2.39,0,0,1,.91.06,2,2,0,0,0,.77.07s.26,0,.55.09.6.12.78,0,.25-.17.35.06.45.38.41.11,0-.18.22-.09.29.06.41-.14.21-.25.3-.23,1-.85,1.1-1.15c0-.11,0-.21-.07-.22s-.11-.1-.09-.2.1-.16.18-.14.14-.12.15-.3a.68.68,0,0,1,.21-.45.27.27,0,0,0,.12-.27c0-.1,0-.11.18,0s.61-.15.39-.35,1.19-.87,1.49-.73.24.07.22-.07a.75.75,0,0,1,0-.3c0-.06,0-.1-.13-.07s-.17-.08-.17-.22-.09-.26-.24-.24-.09,0,.13-.14a.9.9,0,0,1,.58-.08,1.16,1.16,0,0,0,.65-.15c.38-.2.41-.25.29-.46s0-.36.77-.14.64,0-.11-.23c-.32-.12-.56-.15-.61-.08s-.51-.09-.46-.24.11,0,.22,0,.18.08.12-.06c-.12-.33,0-.7.31-.71a.34.34,0,0,0,.3-.18c0-.1.09-.18.15-.17a1.87,1.87,0,0,0,.49-.15q.38-.16.15-.15c-.27,0-.31-.17-.05-.24.08,0,.14-.1.11-.16s0-.14.13-.17.75.34.63.46.18.25.5.22.25,0-.05-.24a2.35,2.35,0,0,0-.49-.24c-.08,0,0-.09.11-.14.38-.15.37-.24,0-.32-.18,0-.31-.13-.29-.21s.12-.07.23,0a.39.39,0,0,0,.61-.31c0-.21.13-.25.43-.13.06,0,.09,0,.06-.1s0-.12.15-.1a.26.26,0,0,1,.2.2c0,.09.07.06.14-.06s.08-.23-.31-.27-.44-.1-.42-.18a.15.15,0,0,1,.17-.09.13.13,0,0,0,.14-.13c0-.08.08-.12.16-.09s.18,0,.22-.16.19-.26.46-.18.26-.75.16-.94a.47.47,0,0,1-.08-.3c0-.06-.05-.13-.14-.15s-.32-.27-.2-.38a.62.62,0,0,1,.38,0c.22.05.25,0,.12-.08a.6.6,0,0,0-.26-.14.89.89,0,0,1-.3-.27c-.12-.17-.24-.23-.31-.17s-.24,0-.51-.11c-.65-.36-.6-.45.14-.27.51.12.72.13.7,0a.19.19,0,0,0-.22-.13c-.11,0-.18,0-.16-.13a1.59,1.59,0,0,0,0-.41c0-.21,0-.23.36-.16s.37,0,.37-.07.07-.14.14-.12.12.07.1.13.2,0,.49-.14a2,2,0,0,1,.64-.22.87.87,0,0,0,.44-.12c.19-.08.26-.09.17,0s-.1.12,0,.09a.14.14,0,0,1,.19.11c0,.09,0,.11.07,0a.51.51,0,0,0,0-.29.5.5,0,0,0-.43-.21c-.3,0-.34,0-.24-.24s.14-.27.16-.32.11-.07.21-.05.35-.59.18-.88a.94.94,0,0,0-.56-.29c-.25-.06-.4-.14-.34-.19s0-.14-.05-.19.14,0,.49.09a1.47,1.47,0,0,1,.69.33c0,.12.09.13.17.06S230.58,25.18,230.39,25.14Zm-229,3.08c-.08,0-.12-.07-.08-.2s.11-.2.17-.14a.23.23,0,0,1,.09.2A.3.3,0,0,1,1.35,28.22ZM2.2,36.7c0,.13-.08.19-.11.14a.23.23,0,0,1,.05-.23C2.2,36.53,2.23,36.57,2.2,36.7Zm.93-1.8c-.15,0-.24-.13-.21-.23a.17.17,0,0,1,.18-.15c.08,0,.09.08,0,.13s0,.12.09.14.2.07.19.11S3.28,34.93,3.13,34.9Zm.77-3.63c-.64.08-.65.05-.34-.55,0,0,.09,0,.17.13a.48.48,0,0,0,.38.14c.13,0,.21,0,.19.11S4.1,31.25,3.9,31.27ZM2,40.52a1,1,0,0,1-.34,0c-.06,0-.06-.07,0-.12A.39.39,0,0,1,2,40.4C2.2,40.44,2.2,40.45,2,40.52Zm1.74,0s-.06-.1-.08-.21,0-.15.09-.1S3.85,40.55,3.74,40.52ZM2.17,42.77c-.1-.14-.08-.15.09-.05s.18.15.13.18S2.24,42.87,2.17,42.77Zm.55.07c-.09-.06-.05-.08.1-.06s.21.07.16.1A.32.32,0,0,1,2.72,42.84Zm.12-.31c-.08,0-.13-.05-.12-.08s.08-.06.17-.09.13,0,.11.08A.13.13,0,0,1,2.84,42.53Zm.54,1.72c-.24-.2-.14-.21.16,0,.11.06.16.14.12.16S3.48,44.34,3.38,44.25Zm.88-1.69c.06-.08.09,0,.06.09s-.08.19-.11.14S4.19,42.64,4.26,42.56Zm.12,1.87a.33.33,0,0,1-.27-.14c-.08-.12-.06-.15.09-.12S4.6,44.42,4.38,44.43Zm.87.13c-.12,0-.17,0-.11-.07s0-.11,0-.13S5,44.3,5,44.28s.49.15.47.22A.47.47,0,0,1,5.25,44.56Zm1-.06a.28.28,0,0,1-.22.06c-.07,0-.11-.07-.09-.13s.1-.08.22-.06S6.29,44.45,6.23,44.5Zm-.07-1c-.26.07-.27-.09,0-.2s.22-.05.2,0A.32.32,0,0,1,6.16,43.55Zm.91-3.3c-.08,0-.13,0-.12-.07s.08-.07.16-.1.14,0,.12.08A.13.13,0,0,1,7.07,40.25ZM10,43.94a.28.28,0,0,1-.11-.14c0-.07,0-.12.09-.11a.15.15,0,0,1,.12.15C10.09,43.91,10.05,44,10,43.94Zm.34.32s-.06-.1-.08-.2,0-.18.1-.17.1.1.08.2S10.38,44.26,10.35,44.26Zm.85-.18c-.06.06-.17,0-.26-.07a.44.44,0,0,1-.11-.31c0-.08.07-.05.12.07s.09.16.11.11.07-.05.14,0A.12.12,0,0,1,11.2,44.08Zm8.25,2.05c-.08,0-.13,0-.12-.07a.16.16,0,0,1,.17-.1c.07,0,.12,0,.12.08S19.54,46.11,19.45,46.13Zm2,0a1.05,1.05,0,0,0-.15.3.16.16,0,0,1-.19.13c-.09,0-.1-.1,0-.19s.07-.17,0-.18a.14.14,0,0,0-.17.11c0,.09-.09.06-.2-.09s-.12-.27.06-.44a.62.62,0,0,1,.38-.18C21.42,45.64,21.6,46,21.47,46.12ZM23.23,48a4.34,4.34,0,0,0-.43.23c-.17.11-.19.1-.11-.06a.65.65,0,0,1,.65-.29C23.41,47.89,23.37,47.94,23.23,48Zm.91-31.6c.1.26.09.3-.05.17a.25.25,0,0,1-.07-.23C24.05,16.25,24.09,16.28,24.14,16.4ZM23.92,18a.32.32,0,0,1,.24-.08.12.12,0,0,1,.09.15c0,.06-.12.09-.24.07S23.86,18,23.92,18ZM23.85,49.5c-.2,0-.21,0,0-.11s.33-.18.29,0S24,49.49,23.85,49.5Zm.33.39c-.13,0-.13-.26,0-.3s.13,0,.11.14S24.22,49.9,24.18,49.89Zm.11-1c-.11,0-.11-.26,0-.3s.11,0,.08.14S24.31,48.94,24.29,48.94Zm.06-.62c-.15.06-.25,0-.38-.18s-.16-.27.1-.2.26.12.25.18,0,.08.11.05S24.59,48.21,24.35,48.32Zm.09-32.47c-.07,0-.11-.16-.1-.32s.07-.26.18-.19S24.63,15.89,24.44,15.85Zm.38,33.24c-.2-.12-.21-.33,0-.29s.15.12.19.37A.53.53,0,0,1,24.82,49.09Zm0-32.54c-.11,0-.15-.08-.09-.14a.17.17,0,0,1,.22,0C25.13,16.54,25.07,16.6,24.85,16.55Zm.38-2.6a.3.3,0,0,1-.17-.16c0-.07,0-.11.16-.09s.19.1.17.16A.13.13,0,0,1,25.23,14ZM26.32,10c.05-.21.09-.22.21-.07s.07.39-.16.34C26.31,10.27,26.28,10.14,26.32,10Zm-.21,3.23s-.06,0-.14,0-.11-.09-.08-.19,0-.19-.08-.2a.12.12,0,0,1-.1-.15C25.8,12.37,26.1,12.78,26.11,13.24Zm-.28,38.22a.32.32,0,0,0-.3-.13c-.08,0-.08-.06,0-.18s.14-.22.32,0S26.05,51.72,25.83,51.46Zm.52.12c-.14,0-.13-.27,0-.31s.14,0,.11.14S26.38,51.58,26.35,51.58Zm.17-.76c-.08.15-.19.29-.25.3s0-.09,0-.24.19-.29.25-.3S26.59,50.67,26.52,50.82Zm-.25-2.54c-.2.22-.4.38-.46.36s0-.24.37-.49l.44-.25Zm8.51-1.14a.27.27,0,0,1-.1-.15c0-.07,0-.12.09-.1a.12.12,0,0,1,.1.14C34.85,47.1,34.82,47.14,34.78,47.14Zm3.46-3.62c-.13,0-.26,0-.28,0s.18-.27.38-.23S38.52,43.49,38.24,43.52ZM42,48c-.06-.06-.24-.05-.39,0-.43.2-.91.19-.85,0s.59-.35,1.08-.27c.24,0,.35.11.32.22A.09.09,0,0,1,42,48Zm1.94-.58c-.42.15-.56.12-.5-.08s.46-.38.73-.36S44.27,47.28,43.89,47.41ZM47.15,5.05c.21,0-.12.14-.61.18-.27,0-.49,0-.47,0A2.55,2.55,0,0,1,47.15,5.05ZM45.62,31.12c.08,0,.13,0,.12.07s-.08.07-.17.1-.13,0-.11-.08A.12.12,0,0,1,45.62,31.12Zm1,16.38a1.41,1.41,0,0,1-.57.07c-.12,0-.22,0-.24.08s-.52,0-.59-.15.21-.27.71-.27c.71,0,.77,0,.6-.16a.21.21,0,0,0-.28,0A.2.2,0,0,1,46,47c-.2-.18.15-.31.62-.22.27.05.37.11.29.21s0,.14,0,.16C47.13,47.21,47,47.38,46.6,47.5Zm1.68-2.17c0-.06-.18,0-.31,0a1.41,1.41,0,0,1-.53.12,4.39,4.39,0,0,0-.53,0c-.16,0-.24,0-.22-.1a3.31,3.31,0,0,1,1.63-.32.22.22,0,0,1,.06.22C48.36,45.37,48.32,45.39,48.28,45.33Zm.88-.39a.47.47,0,0,1-.33.27c-.26.08-.3.07-.26-.08A.2.2,0,0,1,48.8,45a.33.33,0,0,0,.29-.09C49.17,44.81,49.19,44.82,49.16,44.94Zm.76.26c-.22-.05-.35-.14-.3-.21s.22-.09.64,0S50.28,45.29,49.92,45.2Zm2.24-1.08c.13,0,.13.07,0,.17a.93.93,0,0,0-.32.45c-.12.32-.42.38-1.26.25-.26-.05-.28-.08-.1-.19a.68.68,0,0,1,.43-.1.9.9,0,0,0,.55-.15c.32-.2.32-.2,0-.16l-.67,0a3.37,3.37,0,0,0-.58.08,1.57,1.57,0,0,1-.45,0,1,1,0,0,0-.44,0c-.11,0-.22,0-.25,0s-.08,0-.1.07-.07.11-.11.06.49-.47.76-.41a.48.48,0,0,0,.35-.06.17.17,0,0,1,.22,0c.07.05.18,0,.25-.12s.21-.18.29-.14a2,2,0,0,0,.82,0c.73-.11,1-.1.65,0C52,44.06,52,44.08,52.16,44.12Zm2.16.76a.22.22,0,0,1-.25.14c-.11,0-.2,0-.22.07a.14.14,0,0,1-.17.09c-.2,0-.11-.22.18-.38S54.38,44.66,54.32,44.88Zm3.17-.16c-.11-.06-.2,0-.23.07s-.08.15-.21,0a.28.28,0,0,0-.36-.1,2.06,2.06,0,0,1-.58.08c-.21,0-.37,0-.35.09s-.17.06-.41,0-.41-.11-.3-.28a.67.67,0,0,1,.26-.25c.28-.08.2-.25-.1-.19l-.58.12a2,2,0,0,1-.6,0,1.22,1.22,0,0,0-.6,0c-.31.12-1,0-1-.12a1.82,1.82,0,0,0,0-.36c0-.21,0-.25.18-.17a1.27,1.27,0,0,0,.67,0,5.54,5.54,0,0,1,1.16,0,3.58,3.58,0,0,0,.83,0,1.54,1.54,0,0,1,.56,0c.48.05.57.43.1.46a.4.4,0,0,0-.35.19c0,.14,0,.16.25.1s.31-.12.33-.18.16-.08.32,0a3.26,3.26,0,0,0,.66.07c.28,0,.39,0,.45.23S57.69,44.85,57.49,44.72Zm.89,0c-.07,0-.12-.05-.11-.08s.08-.07.16-.1.14,0,.12.09A.15.15,0,0,1,58.38,44.71Zm.55-.32a.41.41,0,0,1-.28,0c-.08-.11.19-.26.39-.22S59.23,44.35,58.93,44.39Zm.15-40.65c-.08,0-.14,0-.12-.07a.28.28,0,0,1,.19-.16c.08,0,.13,0,.11.07A.23.23,0,0,1,59.08,3.74Zm2.79,40.48a.93.93,0,0,1-.5,0,2.67,2.67,0,0,0-1.1.08,3.82,3.82,0,0,1-.91.15,3.07,3.07,0,0,1,1.08-.62,1.82,1.82,0,0,0,.56,0,3.15,3.15,0,0,1,.72,0C62.27,43.85,62.36,44.11,61.87,44.22Zm2-41.11c-.08,0-.13,0-.12-.08s.08-.08.17-.1S64,2.94,64,3A.14.14,0,0,1,63.84,3.11Zm1.89.4c-.11,0-.18-.06-.18-.09s.11-.06.23-.07.2,0,.18.09S65.85,3.54,65.73,3.51ZM71,2.76c.18-.06.28-.16.24-.22s0-.06.08,0c.24.2,0,.61-.38.57S70.59,2.89,71,2.76Zm-.34-.36c.09,0,.1,0,0,0a.13.13,0,0,0-.11.15c0,.07,0,.11-.1.09S70.43,2.39,70.65,2.4ZM71.6,49c-.07.2-.13.31-.16.25s-.36-.24-.41-.06a.43.43,0,0,1-.72.09c-.1-.17-.08-.24.09-.35s.18-.15.13-.17l-.2-.09-.21-.1c-.06,0,0-.07.19-.11.35-.09.48.18.26.54-.11.18-.09.26.09.29s.2,0,.17,0,.6-.65.76-.62S71.66,48.8,71.6,49Zm.73-2.22a.75.75,0,0,1-.31.11s-.06-.09,0-.19.17-.15.32-.12S72.55,46.65,72.33,46.77ZM91.72,51c-.21,0-.24-.08-.11-.15a.32.32,0,0,1,.3,0C92.1,51,92,51,91.72,51Zm3.48-1.2a.33.33,0,0,1-.23.07c-.08,0-.12-.08-.1-.14s.13-.1.24-.08S95.26,49.69,95.2,49.75Zm5.68.42a.26.26,0,0,1-.22.13c-.2,0-.1-.24.13-.27S101,50.06,100.88,50.17Zm.42,0c-.21.09-.24.08-.15-.1a.39.39,0,0,1,.28-.22C101.69,49.86,101.6,50.07,101.3,50.2Zm.45-47.58a.33.33,0,0,1-.24.08.12.12,0,0,1-.09-.15c0-.06.12-.09.23-.07S101.81,2.57,101.75,2.62Zm1.79,46.86c-.23-.11-.22-.14,0-.26s.26-.1.32.05S103.82,49.61,103.54,49.48Zm1,0c-.23,0-.44-.13-.47-.21s0-.08.13,0a1.73,1.73,0,0,0,.7.09,1.31,1.31,0,0,1,.64.09C105.67,49.59,105.11,49.62,104.52,49.51Zm1.47-.32a.6.6,0,0,1-.32-.07c-.08,0,0-.06.17,0S106.09,49.18,106,49.19Zm1.37.21c-.11,0-.21,0-.23.08s-.11.08-.21,0-.22-.07-.28,0-.37.08-.34,0a2.15,2.15,0,0,1,1.14-.28c.1,0,.17.09.15.15S107.47,49.42,107.36,49.4Zm2-.26a.46.46,0,0,1-.28,0c-.08-.12.18-.28.38-.24S109.63,49.11,109.35,49.14Zm.92.27a.36.36,0,0,1-.24.07c-.08,0-.09-.07,0-.13a.28.28,0,0,1,.24-.07C110.33,49.3,110.33,49.35,110.27,49.41Zm1.2-.37a2,2,0,0,1-.81,0c-.34,0-.6-.14-.59-.19s.16-.07.34,0a6.8,6.8,0,0,0,.77.08C111.52,48.93,111.6,49,111.47,49Zm9.14.28c-.13.08-.27.11-.32.06s-.1,0-.12.07-.07.1-.11,0-.15-.06-.28,0-.2.06-.19,0-.26,0-.58,0-1.18.1-1.87.14l-1.55.1c-.23,0-.26,0-.14-.15s.09-.18-.26-.19-.4,0-.35-.23.12-.21.3-.12a1.11,1.11,0,0,0,.51.07,5.36,5.36,0,0,1,2,.16c.09.08.18.1.19.06,0-.24.11-.31.18-.13s.08.18.13,0,.44-.3.74-.14a1.15,1.15,0,0,0,.62.07,5,5,0,0,1,.87,0C120.78,49.18,120.81,49.2,120.61,49.32Zm32.81,2.2a.12.12,0,0,1,.11.14c0,.07-.05.11-.09.1s-.08-.07-.11-.14S153.35,51.5,153.42,51.52Zm-.46,0c.08-.06.14,0,.18.07s0,.29-.18.14A.15.15,0,0,1,153,51.51Zm-.54.4a.29.29,0,0,1,.23-.07c.19,0,.13.11-.11.14S152.35,52,152.42,51.91Zm-.47,0c.08,0,.14,0,.12.08a.13.13,0,0,1-.17.09c-.07,0-.12,0-.11-.07S151.87,51.9,152,51.87Zm-19.73-2c.21.12-.06.19-.69.18-.27,0-.43-.06-.41-.14S132,49.77,132.22,49.91Zm-5.13-1.42a1.18,1.18,0,0,1,.9-.26c.16.15.12.18-.38.28S127.05,48.61,127.09,48.49ZM125,50.15a5.81,5.81,0,0,0-.76,0c-.33,0-.93-.12-.9-.23a5.25,5.25,0,0,1,1.7-.12.91.91,0,0,0,.37,0,.25.25,0,0,1,.23.05C125.8,50,125.54,50.16,125,50.15Zm3.11.22a.79.79,0,0,1-.44.06.59.59,0,0,1-.31-.28c-.06-.13-.14-.18-.16-.11s-.21.13-.42.13c-1,0-1,0-.92-.23a.31.31,0,0,1,.3-.15.86.86,0,0,0,.27,0h.28c.76,0,1,.06,1,.19s.07.11.19,0,.2-.11.33.07S128.35,50.28,128.13,50.37Zm.61.41c-.41-.09-.3-.36.14-.32.2,0,.28.09.25.21S129,50.82,128.74,50.78Zm.66-2.13c-.41-.06-.81-.11-.92-.11s-.19-.11-.17-.26.09-.25.92-.15a8.48,8.48,0,0,0,1.46,0,4.85,4.85,0,0,1,.59,0s0,.16-.06.35-.17.33-.6.3C130.35,48.77,129.81,48.71,129.4,48.65Zm2.95,2.84a5.38,5.38,0,0,1-.75,0,1.91,1.91,0,0,0-.57,0c-.05,0-.18,0-.3-.12s-.23-.12-.24-.06-.18.07-.35,0c-.42-.09-.39-.27,0-.25s1.28.08,2,.15S132.87,51.46,132.35,51.49Zm2-2.83a9.87,9.87,0,0,1-2.47,0c-.09-.14.75-.46,1.08-.42a1.94,1.94,0,0,0,.91,0c.15-.09.86.08.83.19S134.55,48.61,134.37,48.66Zm.86-.59c-.44,0-.55-.07-.43-.14a2.25,2.25,0,0,1,.84,0C136.48,48,136.12,48.14,135.23,48.07Zm1,.53c-.12,0-.22-.06-.22-.13s.16-.1.37-.08C136.75,48.43,136.63,48.61,136.21,48.6Zm1.95.68c-.33,0-.5,0-.38-.12s.66-.1.63,0S138.28,49.27,138.16,49.28ZM153,26.86a.12.12,0,0,1-.1-.15c0-.07.08-.08.14,0s.11.12.1.15S153.06,26.87,153,26.86Zm2-17.12c-.18,0-.25,0-.2-.12s.57-.15.53,0S155.19,9.74,155,9.74Zm.84,0c-.08,0-.13,0-.12-.08s.08-.08.17-.1.13,0,.11.08A.14.14,0,0,1,155.87,9.76ZM159,8.48a.64.64,0,0,1-.29.26c-.09,0-.1,0,0-.07s.08-.12,0-.13a.59.59,0,0,0-.59.3c-.11.19-.12.18-.06-.06s0-.27-.15-.25-.2-.08-.21-.22.06-.22.46-.09a1.65,1.65,0,0,0,.71.1C159.12,8.27,159.14,8.3,159,8.48Zm1.79,2c-.08,0-.13,0-.12-.08a.41.41,0,0,1,.16-.09c.09,0,.14,0,.12.08A.14.14,0,0,1,160.82,10.44Zm.91-1a.37.37,0,0,1-.24-.17c0-.07.07-.11.22-.08s.25.11.24.18S161.83,9.43,161.73,9.41ZM200.86,53.8c.18,0,.29.2.18.26s-.13,0-.19-.12S200.78,53.78,200.86,53.8Zm-.22.49c.18.17.1.22-.28.13s-.32-.09-.09-.15A.49.49,0,0,1,200.64,54.29Zm19.15-13.21a.16.16,0,0,1-.17.1c-.07,0-.12,0-.11-.08a.26.26,0,0,1,.16-.1C219.75,41,219.81,41,219.79,41.08Zm3.7-4.34a.11.11,0,0,1,.09.14c0,.07-.13.1-.24.08s-.15-.09-.09-.15A.36.36,0,0,1,223.49,36.74Zm.7-2.29a1.47,1.47,0,0,0-.28,0c-.17,0-.21,0-.16-.21s.15-.22.33-.19.24.13.21.23S224.22,34.45,224.19,34.45Zm3.08-2.88a.39.39,0,0,0,.34-.12c.15-.19.38,0,.31.2s-.1.13-.17.07a.2.2,0,0,0-.24,0c-.08.07-.18.05-.29,0S227.08,31.53,227.27,31.57Zm-.71-2c.1.23,0,.37-.09.25s-.13,0-.15.08-.14.13-.3,0-.23-.14,0-.23.22-.12.15-.14,0-.06.09-.1S226.52,29.51,226.56,29.61Zm2.22-4.08c-.06,0-.11-.14-.12-.28s0-.22.15-.07S229,25.57,228.78,25.53Zm.43,1.43a.12.12,0,0,1,.1.15.15.15,0,0,1-.16.09.12.12,0,0,1-.1-.15A.15.15,0,0,1,229.21,27Z"/><path class="cls-1" d="M229.69,28.77a.12.12,0,0,0,.09.15c.08,0,.14,0,.15,0s0-.1-.1-.16A.08.08,0,0,0,229.69,28.77Z"/><path class="cls-1" d="M229.71,28.21c.21-.14.21-.15,0-.13a1.69,1.69,0,0,1-.38,0,.12.12,0,0,0-.15.08C229.1,28.35,229.46,28.38,229.71,28.21Z"/><path class="cls-1" d="M229.18,30c-.14,0-.23.06-.21.11s.15,0,.26,0S229.38,29.94,229.18,30Z"/><path class="cls-1" d="M228.79,29.3c-.32-.1-.43-.1-.41,0a.11.11,0,0,1-.13.13q-.18,0-.06.15a.2.2,0,0,1,0,.26c-.07,0,0,.05.08,0a.22.22,0,0,1,.27.13c0,.1.12.15.18.11s0-.2-.12-.36-.22-.29-.19-.29l.37,0C229.25,29.56,229.26,29.45,228.79,29.3Z"/><path class="cls-1" d="M228.07,32.78c0,.1,0,.18.07.19a.11.11,0,0,0,.14-.08.21.21,0,0,0-.06-.2C228.16,32.64,228.1,32.68,228.07,32.78Z"/><path class="cls-1" d="M229,28.82s.05.06.12.07a.14.14,0,0,0,.17-.09c0-.07,0-.1-.12-.08S229,28.79,229,28.82Z"/><path class="cls-1" d="M227.64,32.47c-.06.05,0,.1.09.12s.25,0,.11-.11A.14.14,0,0,0,227.64,32.47Z"/><path class="cls-1" d="M227.6,28.66a.29.29,0,0,0,.26.05c.06,0,0-.08-.16-.1S227.51,28.61,227.6,28.66Z"/><path class="cls-1" d="M225.17,36.93c-.08.1-.06.16.05.15s.38-.25.21-.29A.34.34,0,0,0,225.17,36.93Z"/><path class="cls-1" d="M225.09,37.46a.46.46,0,0,0-.28,0s.1.1.24.16.25.08.27,0S225.24,37.49,225.09,37.46Z"/><path class="cls-1" d="M225.25,35.05c-.14.12,0,.16.33.06s.21-.08,0-.12A.42.42,0,0,0,225.25,35.05Z"/><path class="cls-1" d="M222,39.93s.08,0,.11-.14,0-.17-.06-.09A.23.23,0,0,0,222,39.93Z"/><path class="cls-1" d="M222.11,38.65c-.07,0-.12,0-.09.1s.07.14.11.15.08,0,.09-.11A.12.12,0,0,0,222.11,38.65Z"/><path class="cls-1" d="M221.84,38.91c-.29-.17-.34-.17-.31,0a.33.33,0,0,1-.17.29c-.15.08-.11.09.16.06S222.09,39.07,221.84,38.91Z"/><path class="cls-1" d="M219.66,41.91c0,.29.08.34.15.1a.29.29,0,0,0-.05-.26C219.7,41.7,219.66,41.77,219.66,41.91Z"/><path class="cls-1" d="M218.81,42.63c-.15,0-.14,0,0,.06a.42.42,0,0,0,.36-.14c.07-.1,0-.12,0,0A1,1,0,0,1,218.81,42.63Z"/><path class="cls-1" d="M206.64,55.89c-.16,0-.2,0-.1.06a.3.3,0,0,0,.25,0C206.85,56,206.78,55.92,206.64,55.89Z"/><path class="cls-1" d="M205.05,57.14c-.11,0-.15-.09-.08-.15s-.62-.22-.86-.06-.2.12-.18,0l0-.23a16.07,16.07,0,0,0-3.3-.71c-.09.08.17.22.31.17a.94.94,0,0,1,.33.22,9.08,9.08,0,0,0,3,.71s.23,0,.47.08.44.14.45.11S205.17,57.16,205.05,57.14Z"/><path class="cls-1" d="M204.59,58.08a.17.17,0,0,0,.15.21c.12,0,.22,0,.23-.06s-.05-.15-.15-.21S204.62,58,204.59,58.08Z"/><path class="cls-1" d="M206.29,49c-.06.11,0,.13,0,.08a1,1,0,0,1,.54,0c.61.06.64,0,0-.12C206.6,48.83,206.35,48.86,206.29,49Z"/><path class="cls-1" d="M203.5,60.92a.75.75,0,0,0,.33.07c.1,0,0-.06-.15-.09S203.42,60.86,203.5,60.92Z"/><path class="cls-1" d="M202,54.77a.34.34,0,0,1-.25.24c-.11,0-.09,0,0,.08a.39.39,0,0,0,.33,0c.06,0,.21,0,.37.07a4.59,4.59,0,0,0,1,.3c.55.12.75.11.95-.05s.26-.18.21,0,0,.22.27.27.37.08.15-.23a.85.85,0,0,0-.86-.37c-.1,0-.18,0-.17,0s-.11,0-.26,0-.29,0-.31-.09-.07-.09-.17,0-.17.15-.32-.13-.19-.25-.22-.18-.16.09-.35,0S202.09,54.59,202,54.77Z"/><path class="cls-1" d="M204.32,57.59a.46.46,0,0,0-.28,0s.1.1.24.16.25.08.27,0S204.47,57.62,204.32,57.59Z"/><path class="cls-1" d="M204.34,58c-.09,0-.24-.08-.35-.25s-.58-.46-.63-.27-.1.06-.2,0-.2,0-.23.08-.11.18-.18.16-.09-.09,0-.17c.18-.24-.26-.41-.53-.2s-.62.08-.55-.19-.16-.25-.28-.08a1.63,1.63,0,0,1-.83,0c-.41-.07-.71-.17-.66-.21s-.28-.18-.6-.11a6,6,0,0,1-1.32-.09l-1.47-.22c-.25,0-.45,0-.46,0s-.15,0-.33,0-.33-.08-.34,0-.19.07-.4,0-.76-.11-1.23-.17c-.95-.1-1.31-.15-2.75-.33-.52-.07-1.15-.13-1.42-.15l-.71,0-.28,0a11.81,11.81,0,0,1-2.39-.49c-.2-.12-.34-.13-.48,0a1.07,1.07,0,0,1-.64,0,.88.88,0,0,0-.55,0,.73.73,0,0,1-.49,0,.69.69,0,0,0-.55.08c-.17.16-.18.16-.35-.07a.75.75,0,0,0-.32-.27c-.11,0-.11,0,0,.09s0,.15-.17.22-.26,0-.2,0c.22-.19-.7-.46-1.12-.32s-.38.08-.4,0-.09-.13-.31,0-.23.07-.15,0,.08-.14,0-.15a.3.3,0,0,0-.25.07,1,1,0,0,1-.56,0c-.26-.05-.45,0-.45,0a.22.22,0,0,1-.2.16c-.13,0-.15,0-.07-.09s0-.14-.41-.22-.54-.07-.54,0c0,.23-.1.26-.25.09a.31.31,0,0,0-.34-.11,3.88,3.88,0,0,1-1-.09,7.56,7.56,0,0,0-1.17-.15c-.27,0-.37,0-.34-.14s-.11-.06-.28.06-.34.15-.37.08-.25-.14-.56-.14a5.86,5.86,0,0,1-2.16-.35.15.15,0,0,1,.18-.08c.09,0,.13,0,.1,0a1.15,1.15,0,0,0-.53-.05,8.06,8.06,0,0,1-1.22-.07c-.41-.06-1.1-.12-1.55-.15-1.08-.06-1.5-.17-1.85-.5l-.28-.26h.44c.61,0,.76-.09.22-.15a1.67,1.67,0,0,0-.53,0,1.19,1.19,0,0,1-.57,0,1.7,1.7,0,0,0-.71,0c-.18.07-.17.08.06.09s.76.38.54.5a3.83,3.83,0,0,1-1.47-.18c-.36-.17-.5-.1-.27.13s.47.34,1.26.4c.45,0,.57.07.54.2a.29.29,0,0,1-.26.19c-.12,0-.2,0-.18-.07s-.09-.1-.25-.1-.29.05-.31.1-.19,0-.4-.09-.41-.15-.5,0-.14.13-.2,0-.08-.13-.12,0-.17.18-.71,0a2.32,2.32,0,0,0-.75-.11c-.06,0,0,.09.25.14s.33.12.28.19-.79,0-1-.15c-.07-.07-.15-.08-.16,0a2.11,2.11,0,0,1-.87-.09c-.46-.1-.82-.14-.8-.08s0,.09-.09.07a.2.2,0,0,1-.15-.17c0-.1-.18-.15-.52-.17-.6,0-.73.15-.14.19s.5.29,0,.28c-.83,0-1-.07-1-.21a.2.2,0,0,1,.25-.11c.11,0,.17,0,.15,0a4.56,4.56,0,0,0-1.8,0c0,.06-.18.14-.36.19s-.31.08,0,.16.38,0,.39,0a.16.16,0,0,1,.17-.09c.08,0,.09.08,0,.15s0,.11.22.1.77,0,1.28.12a8.65,8.65,0,0,0,1.42.08,8.3,8.3,0,0,1,1.3,0c.45,0,1,.09,1.15.1a12.64,12.64,0,0,1,1.58.2c.43.08.57.06.52-.06s0-.08.14.06.18.16.15.07,0-.12.24-.07.27.11.11.25-.22.13-.27.08a.32.32,0,0,0-.26,0,1.55,1.55,0,0,1-.53,0l-1.15-.14a32.31,32.31,0,0,0-3.6-.25,2.34,2.34,0,0,0,.85.17c.51.07,1.07.15,1.24.19s.28,0,.25-.06.06-.14.34.08a.41.41,0,0,0,.43.09c.11,0,.23,0,.26,0a6,6,0,0,0,1.88.07s.19,0,.4,0a.77.77,0,0,0,.48,0,.24.24,0,0,1,.28,0c.1.06.19.05.21,0s.13-.1.26-.08a17,17,0,0,0,2.18.29c.29,0,.94.07,2.58.3.19,0,.31.08.26.13s.6.12,1,0,.55-.11.39,0,0,.16.32.07.2-.1.1-.2.14-.41.44-.25.26.09.29,0,.08-.08.2.06.19.18.33.06.15-.1.1.07,0,.21.37.23a1.15,1.15,0,0,0,.59-.09c.11-.1.14-.09.11,0a.14.14,0,0,0,.1.18c.07,0,.12,0,.1-.08s0-.17.12-.25.16-.1.12.08,0,.21.15.19.2,0,.19.09.16.13.42.17.44,0,.42-.09a.21.21,0,0,0-.14-.18.11.11,0,0,1-.09-.14c0-.06.13-.09.24-.07s.16.08.11.13,0,.16,0,.27a1.94,1.94,0,0,0,1.41.17,1,1,0,0,1,.5-.06,20.38,20.38,0,0,1,2.37.28c.36.09.52.07.55-.05s.09-.13.27,0a2.66,2.66,0,0,0,.81.3c.47.1.58.08.56-.07s.06-.22.38,0c.15.13.27.16.32.09a3.33,3.33,0,0,1,1.6.34.37.37,0,0,0,.34,0,1.23,1.23,0,0,1,.65,0,5.17,5.17,0,0,0,2.16.16c0-.1.06-.09.11,0a.21.21,0,0,0,.22.14,2.76,2.76,0,0,1,.72.06c.7.12.89.09.69-.11s0-.1.13,0,.29.08.31,0,.09-.08.17,0a1.79,1.79,0,0,0,1,.37c.83.14.89.14.87,0s.44-.34,1.16-.24a4.75,4.75,0,0,0,.92.08,6.74,6.74,0,0,1,1,.1,30.72,30.72,0,0,0,3.18.35c.59,0,1,.09,1,.14s.07.1.29.12.39,0,.41-.19,0-.22.11,0,.31.33.3,0,0-.22.19-.13.14.15.09.2,0,.1,0,.12a1.35,1.35,0,0,1,.32.14c.1.06.21.06.22,0s-.06-.14-.17-.17-.16-.08-.1-.14.25,0,.47.09.35.14.33.08.06-.15.19-.21.23-.06.21,0,.06,0,.17-.08.25-.13.41,0,.48.25.52.1S204.42,58,204.34,58Zm-38.46-5.15c-.24-.15-.19-.21.12-.14.15,0,.22.1.16.15A.28.28,0,0,1,165.88,52.87Zm.24,1.8c-.09-.06-.05-.08.11-.05s.21.06.15.09A.29.29,0,0,1,166.12,54.67Zm2.24-1c.31,0,.34.16.06.24a.24.24,0,0,1-.25-.09C168.11,53.73,168.18,53.68,168.36,53.68ZM167.58,55c-.07,0-.12-.05-.12-.08a.26.26,0,0,1,.17-.1c.08,0,.13,0,.12.08A.15.15,0,0,1,167.58,55Zm3.64-.11a1,1,0,0,0-.58.12c-.22.15-.23.15-.1,0s.11-.18-.18-.08a1.09,1.09,0,0,1-.73,0,.8.8,0,0,0-.53-.05.25.25,0,0,1-.29,0c-.1-.06-.19-.06-.21,0s-.26,0-.54-.06-.58-.11-.73,0-.23.13-.45-.09-.26-.54,0-.6c.08,0,.08.05,0,.17s-.12.22.39.14c.29,0,.51,0,.5,0s0,0,.14-.06.2-.11.29,0,.22.15.44.13a9.51,9.51,0,0,1,2.62.29l.31.15Zm6.3,1.11c-.22-.05-.23-.07,0-.08s.26-.06.28-.12.08-.07.15,0S177.84,56.11,177.52,56Zm.83-.05a.27.27,0,0,1-.11-.15c0-.07,0-.12.1-.1a.13.13,0,0,1,.11.14C178.43,55.93,178.39,56,178.35,56Zm0-1.06c-.1-.06-.17-.13-.16-.15s.09,0,.2,0,.18.09.16.16S178.46,55,178.36,54.91Zm2,.45a.22.22,0,0,1-.08-.22c0-.06.08-.07.14,0a.23.23,0,0,1,.08.21C180.51,55.41,180.45,55.41,180.39,55.36Zm1.34-.14c-.12,0-.15-.09-.09-.14a.17.17,0,0,1,.22,0C182,55.21,182,55.27,181.73,55.22Zm2.57,1c0,.12-.07.18-.11.13a.22.22,0,0,1,.05-.22C184.3,56,184.33,56.05,184.3,56.19Z"/><path class="cls-1" d="M203.4,59.67c-.35.19-.36.29,0,.14a1.8,1.8,0,0,1,.49-.15c.17,0,.17,0,0-.08A.79.79,0,0,0,203.4,59.67Z"/><path class="cls-1" d="M203.77,58.09a.16.16,0,0,0-.18.14.16.16,0,0,0,.14.21c.12,0,.2,0,.21,0s-.05-.07-.12-.09-.09-.07,0-.13S203.84,58.1,203.77,58.09Z"/><path class="cls-1" d="M204.08,54.56a.7.7,0,0,0-.3-.14c-.17,0-.23,0-.22.21a.24.24,0,0,0,.22.25C204,54.89,204.18,54.71,204.08,54.56Z"/><path class="cls-1" d="M202.17,59.49c-.15.08,0,.23.19.22s.14,0,0-.14S202.22,59.46,202.17,59.49Z"/><path class="cls-1" d="M201.63,59.71c-.19,0-.27,0-.24-.05s-.07-.14-.18-.16-.19,0-.12.13.06.21,0,.25,0,.08.08.1.15.05,0,.1-.17.09-.09.11a.81.81,0,0,0,.42-.15c.31-.2.58-.21.52,0a.13.13,0,0,0,.08.15c.19,0,.21-.31,0-.42A.69.69,0,0,0,201.63,59.71Z"/><path class="cls-1" d="M201,60.31c-.15,0-.19,0-.1,0a.29.29,0,0,0,.26,0S201.13,60.33,201,60.31Z"/><path class="cls-1" d="M202.53,53.2c-.21-.05-.3,0-.18,0a.87.87,0,0,0,.4.08C202.84,53.29,202.74,53.24,202.53,53.2Z"/><path class="cls-1" d="M200.91,59.91c0-.06,0-.12-.12-.14s-.1-.1,0-.19,0-.17-.07-.19a.2.2,0,0,0-.24.15c0,.17-.08.17-.14,0s-.09-.16-.21,0-.19.14-.24.09a.33.33,0,0,0-.26,0,17.87,17.87,0,0,1-3.41-.49c-.94-.17-2.25-.39-2.91-.49s-1.73-.27-2.38-.39-1.22-.22-1.26-.21-.33,0-.63-.1-.57,0-.59,0-.19,0-.39,0-.41-.1-.47,0-.1.08-.07,0a.09.09,0,0,0-.12-.11,5.58,5.58,0,0,1-1.07-.14c-1.1-.22-1.38-.17-.89.15a.94.94,0,0,0,.71.18c.29,0,.34,0,.35.18s0,.2-.09.16-.37.11-.24.24a.62.62,0,0,1,.14.28c0,.12.06.09.11-.09s.1-.25.2,0,.26.25.68.31.56.13.54.21,0,.07.12,0,.88-.1.84,0,.2.11.48.14,1,.14,1.51.25,1,.16,1,.07,0-.08.08,0,.27.16.67.15.59,0,.66.14a2.49,2.49,0,0,0,1.49.09.13.13,0,0,1,.16-.06c.08,0,.09.07,0,.14s-.06.09,0,.06a2.14,2.14,0,0,1,.7.06,1.21,1.21,0,0,0,.63,0c.14-.12,1,.08,1,.22s.3.14.43,0,.72-.14.67,0,.05.07.15,0,.48-.19.3,0-.09.16.2.07a.65.65,0,0,0,.38-.27c0-.12.07-.12.09,0s.38.29.42.11.16-.06.32,0,.32,0,.4-.15.17-.24.24-.23A.13.13,0,0,0,200.91,59.91Zm-13.54-1.27s-.07.1-.15.13-.1,0,0-.12.06-.17,0-.19a.17.17,0,0,0-.19.11c0,.08-.07,0-.1-.15a.54.54,0,0,1,.06-.39c.2-.17.46,0,.45.26S187.37,58.6,187.37,58.64Zm3.37.68c-.13-.06-.14-.12,0-.22s.19-.1.34.07S191.07,59.46,190.74,59.32Z"/><path class="cls-1" d="M201.26,54.62a.3.3,0,0,0-.25.07c-.06.05-.06.11,0,.12a.28.28,0,0,0,.24-.07C201.34,54.69,201.33,54.63,201.26,54.62Z"/><path class="cls-1" d="M196.4,55.5c-.13.08.2.17,1.26.37l2.19.41c.41.09.77.11.78,0a7.76,7.76,0,0,0-2-.52A9.59,9.59,0,0,0,196.4,55.5Z"/><path class="cls-1" d="M200.55,55.63s0-.1-.1-.15-.13,0-.14,0a.13.13,0,0,0,.09.16C200.48,55.67,200.54,55.66,200.55,55.63Z"/><path class="cls-1" d="M199.88,55.42c-.2,0-.38,0-.39,0s.06.16.46.1S200.2,55.5,199.88,55.42Z"/><path class="cls-1" d="M199.17,55.47c.06,0,0-.07-.15-.1s-.2,0-.1.05A.36.36,0,0,0,199.17,55.47Z"/><path class="cls-1" d="M198.42,55.3s0-.09-.1-.15-.12,0-.14,0a.11.11,0,0,0,.1.15C198.35,55.34,198.41,55.33,198.42,55.3Z"/><path class="cls-1" d="M197.68,55a.17.17,0,0,0-.22,0c-.06,0,0,.11.09.14S197.83,55.15,197.68,55Z"/><path class="cls-1" d="M195.36,55.38a.29.29,0,0,0-.29,0c-.17.11-.15.13.09.13S195.51,55.51,195.36,55.38Z"/><path class="cls-1" d="M194.59,55.31a.38.38,0,0,0-.37,0c-.14.07-.1.12.17.17S194.88,55.48,194.59,55.31Z"/><path class="cls-1" d="M192,61.81c-.15,0-.19,0-.1.06a.32.32,0,0,0,.26,0C192.19,61.88,192.12,61.84,192,61.81Z"/><path class="cls-1" d="M192.75,55.18c.56,0,.74,0,.39-.12-.88-.25-.93-.25-.91-.08S192.4,55.16,192.75,55.18Z"/><path class="cls-1" d="M185.55,58.48c-.07.23.08.31.4.22.14,0,.16-.09.06-.23S185.62,58.21,185.55,58.48Z"/><path class="cls-1" d="M184.89,57.86c-.07.07-.16,0-.25-.06a2,2,0,0,0-1-.26c-.46,0-.78,0-.7,0a.21.21,0,0,1,0,.27c-.09.11,0,.18.29.25.66.17.86.27.93.45s.12.12.3,0,.17-.14.06-.11-.27-.08-.38-.24S184,58,184,58s-.07.09-.16,0,0-.26.33-.25c.2,0,.26.07.21.2s0,.2.11.2l.44,0c.36,0,.42,0,.26-.24S185,57.79,184.89,57.86Z"/><path class="cls-1" d="M184.82,58.41c0,.16,0,.28.12.31s.24,0,.08-.3S184.89,58.16,184.82,58.41Z"/><path class="cls-1" d="M184.36,54.88c.06,0,0-.08-.16-.1s-.19,0-.1,0A.29.29,0,0,0,184.36,54.88Z"/><path class="cls-1" d="M182.42,57.76a3.88,3.88,0,0,0-1.57-.29c-.18,0,.1.12.73.24s1,.2,1,.19S182.52,57.82,182.42,57.76Z"/><path class="cls-1" d="M179.86,57c-.11,0-.21,0-.23.07s.06.1.19.08a.46.46,0,0,0,.23-.06S180,57,179.86,57Z"/><path class="cls-1" d="M174.45,54.11c.05,0,0-.07-.16-.1s-.19,0-.1.05A.37.37,0,0,0,174.45,54.11Z"/><path class="cls-1" d="M173.58,53.88c-.25-.06-.36-.05-.25,0a1.06,1.06,0,0,0,.46.1C173.93,54,173.83,53.93,173.58,53.88Z"/><path class="cls-1" d="M170.72,52.16c-.25,0-.36,0-.25,0a1.24,1.24,0,0,0,.47.1C171.07,52.26,171,52.22,170.72,52.16Z"/><path class="cls-1" d="M170.4,53.25a.28.28,0,0,0,.25,0c.06,0,0-.07-.16-.1S170.3,53.2,170.4,53.25Z"/><path class="cls-1" d="M169.88,53.19a.11.11,0,0,0-.09-.14.14.14,0,0,0-.17.08.12.12,0,0,0,.1.15C169.8,53.29,169.87,53.26,169.88,53.19Z"/><path class="cls-1" d="M168.37,53.23a.39.39,0,0,0,.33,0c.07,0,.07-.1,0-.12a.93.93,0,0,0-.33,0C168.19,53.17,168.19,53.19,168.37,53.23Z"/><path class="cls-1" d="M167.89,52.39a1,1,0,0,0,.42,0c.2-.06.2-.07,0-.11a1,1,0,0,0-.42,0C167.72,52.34,167.71,52.35,167.89,52.39Z"/><path class="cls-1" d="M168.24,51.86c.06,0,0-.12-.17-.16-.31-.06-.36,0-.11.14A.26.26,0,0,0,168.24,51.86Z"/><path class="cls-1" d="M167.12,52.14s.09.11.24.15.27,0,.29-.06-.08-.12-.23-.15S167.14,52.08,167.12,52.14Z"/><path class="cls-1" d="M166.52,52.06c.19.27.27.27.35,0a.23.23,0,0,1,.25-.19.38.38,0,0,0,.3-.06c.07-.06-.06-.1-.35-.11C166.53,51.66,166.34,51.79,166.52,52.06Z"/><path class="cls-1" d="M164.94,52.55a1.16,1.16,0,0,0-.38-.13c-.22,0-.41,0-.42,0s.16.11.38.13A1.14,1.14,0,0,0,164.94,52.55Z"/><path class="cls-1" d="M162.33,53.11c-.73-.09-.86-.08-.64.06a.74.74,0,0,0,.43.12,3,3,0,0,1,.82.06,1.66,1.66,0,0,0,.92,0c.23-.13.22-.14-.18-.13A13.41,13.41,0,0,1,162.33,53.11Z"/><path class="cls-1" d="M164,52.74c.05,0,0-.07-.16-.1s-.19,0-.1.06A.32.32,0,0,0,164,52.74Z"/><path class="cls-1" d="M161.2,53c0-.06-.17-.14-.41-.19s-.39-.06-.19.07S161.16,53.18,161.2,53Z"/><path class="cls-1" d="M160,51a.11.11,0,0,0-.1-.14.13.13,0,0,0-.16.08.12.12,0,0,0,.1.15A.15.15,0,0,0,160,51Z"/><path class="cls-1" d="M158.12,51.85c-.16.06-.22.13-.13.15s.11.08.06.14-.05.11,0,.13.14-.06.13-.16,0-.18.17-.15.16.07.11.12.14.14.42.22.52.11.53.07-.08-.08-.19-.1a1.75,1.75,0,0,1-.52-.29C158.47,51.78,158.38,51.76,158.12,51.85Z"/><path class="cls-1" d="M159,53a.31.31,0,0,0,.25.05c.06,0,0-.07-.15-.09S158.86,53,159,53Z"/><path class="cls-1" d="M159.36,50.7c-.07,0-.19,0-.26.14s-.06.15.05.15S159.53,50.74,159.36,50.7Z"/><path class="cls-1" d="M158.84,51.41a.3.3,0,0,0,.25,0c.06,0,0-.07-.15-.1S158.75,51.35,158.84,51.41Z"/><path class="cls-1" d="M158.41,50.87c-.32-.07-.25.06.11.2s.33.1.22,0A.68.68,0,0,0,158.41,50.87Z"/><path class="cls-1" d="M158,51.06s-.23-.06-.51-.22c-.63-.36-.92-.42-1-.2s.42.47.68.48c.07,0,.1,0,.09.08s.15.13.36.19.4.06.42,0,.08-.07.14,0,.16,0,0-.18S158,51,158,51.06Z"/><path class="cls-1" d="M155.72,53.43c.79.26.79.14,0-.2s-.93-.37-1.19-.07-.22.26,0,.25.27,0,.24.16a.17.17,0,0,0,.08.22c.08,0,.12,0,.09-.13s0-.1.2,0,.41,0,.14-.25S155.3,53.3,155.72,53.43Z"/><path class="cls-1" d="M155.57,52.34c0-.06-.07-.11-.19-.09s-.22,0-.23.07.07.07.19.09S155.55,52.41,155.57,52.34Z"/><path class="cls-1" d="M155.53,50.44s0,.07.12.08a.13.13,0,0,0,.16-.09c0-.07,0-.11-.11-.09S155.54,50.41,155.53,50.44Z"/><path class="cls-1" d="M153.56,53.53c-.63,0-.38.16.32.18.32,0,.46,0,.36-.09A1.68,1.68,0,0,0,153.56,53.53Z"/><path class="cls-1" d="M153.91,50.77c0,.06,0,.12.1.14a.12.12,0,0,0,.16-.09.11.11,0,0,0-.1-.14A.13.13,0,0,0,153.91,50.77Z"/><path class="cls-1" d="M152.74,50.65a.43.43,0,0,0,.35.11c.08,0,.13,0,.11.09s0,.14.08.15.37-.28.24-.39a1.29,1.29,0,0,0-.54-.11C152.63,50.49,152.58,50.52,152.74,50.65Z"/><path class="cls-1" d="M149.44,50.9c.27.11.51.17.52.12s.12-.05.24,0a3.28,3.28,0,0,0,1.71,0,.14.14,0,0,0-.08-.19.29.29,0,0,0-.22.06c-.05,0-.25,0-.43,0s-.31-.08-.28,0,0,.11-.15,0a5.47,5.47,0,0,0-2.85-.27,1.7,1.7,0,0,1-.84.07c-.23,0-.45,0-.47,0s-.09.06-.17,0-.5-.29-.42-.16a.45.45,0,0,0,.19.14l.21.09s.35.11.67.19.66.09.82,0,.36-.13.76,0,.46.13.38.08C148.7,50.78,149,50.72,149.44,50.9Z"/><path class="cls-1" d="M150.64,49.81c.22,0,.17-.06-.21-.12a1.69,1.69,0,0,0-.6,0C149.67,49.77,150.29,49.87,150.64,49.81Z"/><path class="cls-1" d="M149.42,49.68c.07-.06,0-.13-.23-.17s-.32,0-.29.06a.35.35,0,0,0,.23.17A.35.35,0,0,0,149.42,49.68Z"/><path class="cls-1" d="M146.91,56.45a.36.36,0,0,0,0,.41c.17.2.24,0,.18-.39C147.06,56.22,147.05,56.22,146.91,56.45Z"/><path class="cls-1" d="M148.25,51.11a.32.32,0,0,0,.26,0c.05,0,0-.07-.16-.1S148.15,51.05,148.25,51.11Z"/><path class="cls-1" d="M146.73,49.8c-.29,0-.45.05-.34.08a6.14,6.14,0,0,0,1.09,0,3,3,0,0,1,1,0c.06,0,.12,0,.14,0s0-.14-.13-.16-.09-.07.07-.12.12-.09-.19-.1-.6,0-.84-.07a1.57,1.57,0,0,0-.56,0c-.07,0,0,.07.08.07C147.5,49.53,147.23,49.77,146.73,49.8Zm.86-.26c.07,0,.13.09.11.15s-.06.11-.1.1a.27.27,0,0,1-.11-.15C147.47,49.57,147.51,49.52,147.59,49.54Z"/><path class="cls-1" d="M146.08,57c-.07,0-.1-.07-.05-.11s-.05-.12-.21-.17-.31,0-.37.33c-.09.54,0,.66.22.29.11-.18.23-.25.33-.19s.18.05.2,0S146.16,57.06,146.08,57Z"/><path class="cls-1" d="M145.23,49.72a1,1,0,0,0,.45.1c.13,0,0,0-.21-.1S145.11,49.67,145.23,49.72Z"/><path class="cls-1" d="M144.32,49.88c0,.1.06.15.23.15a.59.59,0,0,0,.29,0s-.09-.08-.23-.15S144.34,49.78,144.32,49.88Z"/><path class="cls-1" d="M155.81,7.12c.07-.09.07-.18,0-.19s-.15.05-.18.15,0,.18,0,.19A.4.4,0,0,0,155.81,7.12Z"/><path class="cls-1" d="M152,6.32c.1,0,0-.05-.15-.09s-.27,0-.18,0A.54.54,0,0,0,152,6.32Z"/><path class="cls-1" d="M138.8,52.56a.38.38,0,0,0-.27,0c-.05,0,0,.1.16.13s.26,0,.28,0S138.9,52.58,138.8,52.56Z"/><path class="cls-1" d="M150.71,6.17c.06,0,0-.08-.15-.1s-.19,0-.1,0A.35.35,0,0,0,150.71,6.17Z"/><path class="cls-1" d="M137.7,52.81a.36.36,0,0,0-.25.15c-.11.13-.09.15.1.06S137.88,52.85,137.7,52.81Z"/><path class="cls-1" d="M137.21,52.65a6.28,6.28,0,0,1-2.2.1c-.26,0-.49,0-.5,0a1.26,1.26,0,0,1-.57.09,1.86,1.86,0,0,0-.69.14c-.08.07,0,.1.13.09a2.58,2.58,0,0,1,.64,0c.21.05.36,0,.34,0s.1-.09.26-.06c.72.13,1.11.15,1.24.06s.06.05,0,.22c-.15.32-.1.37.25.26.15,0,.18-.08.06-.1s-.11-.29.19-.29.29-.05.31-.11.11-.09.21-.07a.36.36,0,0,0,.31-.13C137.34,52.64,137.36,52.52,137.21,52.65Z"/><path class="cls-1" d="M136.64,51A.64.64,0,0,0,137,51c.1,0,0-.06-.15-.1S136.55,50.9,136.64,51Z"/><path class="cls-1" d="M134.34,53.52c-.25,0-.45,0-.47.08a.09.09,0,0,0,.07.12,4.72,4.72,0,0,0,1.28-.16c.08,0,0-.06-.15,0A4.41,4.41,0,0,1,134.34,53.52Z"/><path class="cls-1" d="M133.48,53.49c-.15,0-.28,0-.3.06s.09.13.24.15.28,0,.29-.06S133.63,53.53,133.48,53.49Z"/><path class="cls-1" d="M146.23,5.33c.05,0,0-.07-.15-.09s-.19,0-.1,0A.31.31,0,0,0,146.23,5.33Z"/><path class="cls-1" d="M132.82,52.75a.94.94,0,0,0-.4,0c-.17.06-.14.09.14.15s.38,0,.39,0S132.9,52.77,132.82,52.75Z"/><path class="cls-1" d="M145.51,5.18c.1,0,0,0-.15-.09s-.25,0-.18,0A.53.53,0,0,0,145.51,5.18Z"/><path class="cls-1" d="M131.9,52.83c-.14.08,0,.24.19.22s.15,0,0-.14A.26.26,0,0,0,131.9,52.83Z"/><path class="cls-1" d="M131.45,52.81a.21.21,0,0,0,.08.21c.06,0,.13,0,.16-.08a.16.16,0,0,0-.08-.21C131.53,52.72,131.46,52.75,131.45,52.81Z"/><path class="cls-1" d="M131.19,52.76a.3.3,0,0,0-.23.08c-.06,0,0,.11.09.14s.22,0,.24-.07A.12.12,0,0,0,131.19,52.76Z"/><path class="cls-1" d="M141.2,5c.05,0,0-.07-.16-.09s-.19,0-.1,0A.29.29,0,0,0,141.2,5Z"/><path class="cls-1" d="M140.43,4.22c.06,0,0-.07-.15-.1s-.19,0-.1.06A.3.3,0,0,0,140.43,4.22Z"/><path class="cls-1" d="M138.7,4c.06,0,0-.07-.15-.09s-.2,0-.1,0A.28.28,0,0,0,138.7,4Z"/><path class="cls-1" d="M137.52,3.72s0-.07-.15-.09-.19,0-.1,0A.31.31,0,0,0,137.52,3.72Z"/><path class="cls-1" d="M135.65,3.61a.13.13,0,0,0,.16-.08.12.12,0,0,0-.1-.15.14.14,0,0,0-.16.09A.11.11,0,0,0,135.65,3.61Z"/><path class="cls-1" d="M133.56,2.13c.09,0,.16-.07.16-.1s0-.06-.11-.07a.13.13,0,0,0-.17.09C133.42,2.12,133.48,2.15,133.56,2.13Z"/><path class="cls-1" d="M113.42,54.84c-.13,0-.17.08-.1.1a1,1,0,0,0,.36,0c.13,0,.17-.08.1-.1A1.3,1.3,0,0,0,113.42,54.84Z"/><path class="cls-1" d="M110.43,51.48a.64.64,0,0,0,.33.07c.1,0,0-.06-.15-.1S110.34,51.42,110.43,51.48Z"/><path class="cls-1" d="M108.47,51.21c-.14,0-.13.09.06.18s.26.12.26.1a.6.6,0,0,0-.05-.18A.22.22,0,0,0,108.47,51.21Z"/><path class="cls-1" d="M106.81,51.13a7.76,7.76,0,0,1-1.2-.08A10.06,10.06,0,0,0,104,51a3.38,3.38,0,0,1-1.12-.07c-.23-.11-.29-.08-.36.16s0,.3.51.39a1.44,1.44,0,0,0,.71,0,1,1,0,0,1,.51-.11c.21,0,.36-.05.34-.12s.23-.07.64,0a5.75,5.75,0,0,0,1.28.08,3.42,3.42,0,0,1,.78,0,.51.51,0,0,0,.34-.05c0-.06,0-.13-.13-.15A3.25,3.25,0,0,0,106.81,51.13Z"/><path class="cls-1" d="M104.86,52.58a1.73,1.73,0,0,0-.31,0,2.32,2.32,0,0,1-.4,0,5,5,0,0,0-2.41.38c0,.12-.08.13-.12,0s-.73-.11-2.25,0c-1.2.07-2.22.16-2.26.18s0,.09.07.16a2.35,2.35,0,0,0,1.1,0c.51,0,1.07-.09,1.22-.09h.65a.74.74,0,0,0,.41-.07,6.43,6.43,0,0,1,1.37-.08A16,16,0,0,0,104.2,53C105.12,52.8,105.44,52.61,104.86,52.58Z"/><path class="cls-1" d="M101.6,50.7a.26.26,0,0,0-.28,0c-.06,0,0,.12.17.15C101.8,50.9,101.85,50.84,101.6,50.7Z"/><path class="cls-1" d="M113.67,2.32c.47.07.57,0,.21-.2a.49.49,0,0,0-.43,0C113.3,2.23,113.34,2.27,113.67,2.32Z"/><path class="cls-1" d="M98,58.06c-.15,0-.19,0-.1,0a.31.31,0,0,0,.25,0C98.25,58.12,98.18,58.08,98,58.06Z"/><path class="cls-1" d="M97.38,58.16c0,.05-.17.09-.36.09s-.53.2-.27.26a.13.13,0,0,0,.16-.09c0-.07.11-.1.21-.08.26.06.61-.19.46-.33S97.4,58,97.38,58.16Z"/><path class="cls-1" d="M99.33,51a.52.52,0,0,0-.37,0c-.16,0-.12.08.14.14S99.59,51.1,99.33,51Z"/><path class="cls-1" d="M112.63,2.13a.13.13,0,0,0,.16-.09c0-.06,0-.12-.1-.14a.14.14,0,0,0-.16.09A.12.12,0,0,0,112.63,2.13Z"/><path class="cls-1" d="M96,58.39c-.8,0-1.44.17-1.48.34s0,.15.06.06a.15.15,0,0,1,.21,0,.08.08,0,0,0,.14,0c0-.08.09-.09.16,0s.11.06.08,0,.05-.14.17-.16c.36,0,.56,0,.31.11s-.16.09-.08.11a.9.9,0,0,0,.45-.16C96.3,58.38,96.3,58.38,96,58.39Z"/><path class="cls-1" d="M97.69,51a1.47,1.47,0,0,0-.63.05c-.29.11-.28.12.17.14S98.14,51.1,97.69,51Z"/><path class="cls-1" d="M110.7,1.43s0-.07-.16-.1-.19,0-.09,0A.34.34,0,0,0,110.7,1.43Z"/><path class="cls-1" d="M96.08,51.05c-.07.07-.08.1,0,.07s.19,0,.27.1.16.14.16.11,0-.13-.13-.23S96.19,51,96.08,51.05Z"/><path class="cls-1" d="M93.78,58.73c-.16.05-.14.07.07.11s.36,0,.23-.1A.37.37,0,0,0,93.78,58.73Z"/><path class="cls-1" d="M95.63,51.05c-.19,0-.32.11-.29.16s.2,0,.35-.07S96,51,95.63,51.05Z"/><path class="cls-1" d="M108.93,1.22l.29-.05L109,1.11a1.2,1.2,0,0,0-.5,0c-.2.07-.2.08,0,.11A1.7,1.7,0,0,0,108.93,1.22Z"/><path class="cls-1" d="M92.61,59.14c-.14.08-.3.1-.36,0a2.67,2.67,0,0,0-1.44.25c0,.17.19.17.33,0a.27.27,0,0,1,.28-.1c.31.12,1.36,0,1.4-.17S92.81,59,92.61,59.14Z"/><path class="cls-1" d="M107.17,1.28a.4.4,0,0,0,.17-.09s0-.07-.12-.08a.12.12,0,0,0-.16.09C107,1.27,107.09,1.3,107.17,1.28Z"/><path class="cls-1" d="M90.16,59.66a.26.26,0,0,0,.25-.12c.07-.09.11-.16.08-.17a.82.82,0,0,0-.25.13C90.12,59.58,90.08,59.65,90.16,59.66Z"/><path class="cls-1" d="M106.31,1.15c.06,0,.06-.11,0-.12a.28.28,0,0,0-.24.07c-.07,0-.06.11,0,.12A.28.28,0,0,0,106.31,1.15Z"/><path class="cls-1" d="M89,59.75a.64.64,0,0,0,.33.07c.1,0,0,0-.16-.09S88.94,59.7,89,59.75Z"/><path class="cls-1" d="M105.29.16c.1,0,0,0-.14-.09s-.26,0-.18,0A.6.6,0,0,0,105.29.16Z"/><path class="cls-1" d="M87.66,58.28a.14.14,0,0,0-.16.09c0,.07,0,.11.11.08s.16-.06.17-.09S87.73,58.3,87.66,58.28Z"/><path class="cls-1" d="M86.52,58.4c-.13,0-.17.08-.09.1a1,1,0,0,0,.35,0c.13,0,.17-.09.09-.1A.78.78,0,0,0,86.52,58.4Z"/><path class="cls-1" d="M101.65,1.26a.17.17,0,0,0,.16-.14c0-.11,0-.16-.23-.16a.55.55,0,0,0-.39.17c-.09.11-.06.15.11.13A2,2,0,0,1,101.65,1.26Z"/><path class="cls-1" d="M99.9,1.26a.19.19,0,0,0,.24-.13c0-.1,0-.16-.16-.14s-.23.06-.24.12S99.79,1.24,99.9,1.26Z"/><path class="cls-1" d="M82.11,53c-.15,0-.19,0-.1,0a.29.29,0,0,0,.26,0S82.25,53,82.11,53Z"/><path class="cls-1" d="M81.31,53.13a.16.16,0,0,0-.17.1c0,.06,0,.1.12.08s.16-.07.16-.1S81.38,53.15,81.31,53.13Z"/><path class="cls-1" d="M93.49.13c.2-.06.2-.08,0-.12a.42.42,0,0,0-.34.06C93,.19,93.18.22,93.49.13Z"/><path class="cls-1" d="M91.72.07s-.22,0-.38,0-.26.11.08.12S91.87.2,91.72.07Z"/><path class="cls-1" d="M86.65,1.61A.32.32,0,0,0,87,1.49c.08-.11.22-.11.41,0s.36.14.26-.13-.17-.17-.35-.14a2.11,2.11,0,0,1-.71,0C86.35,1.18,86.42,1.57,86.65,1.61Z"/><path class="cls-1" d="M84.78,1.55c0-.05.21-.05.45,0,.41.08.94,0,1-.21s-.2-.1-.47-.12a5.91,5.91,0,0,0-.87,0,2.93,2.93,0,0,1-.52,0,.69.69,0,0,0-.28,0,3.05,3.05,0,0,1-.6,0c-.43,0-.69.16-.35.24A5.28,5.28,0,0,0,84.78,1.55Z"/><path class="cls-1" d="M72.08,52.39a.14.14,0,0,0-.16.1c0,.06,0,.1.12.07s.15-.06.16-.09S72.16,52.41,72.08,52.39Z"/><path class="cls-1" d="M67.35,59.89c-.54.12-.74.2-.37.17.13,0,.23,0,.21.1s.27.12.46-.13S67.83,59.79,67.35,59.89Z"/><path class="cls-1" d="M82,1.74a1,1,0,0,1,.5,0c.31.07.45-.07.25-.25s-.13-.05-.14,0-.16.06-.32,0c-.39-.15-.77,0-.6.22S81.84,1.82,82,1.74Z"/><path class="cls-1" d="M66.27,60.44a.15.15,0,0,0-.16.09c0,.07,0,.11.11.08s.16-.06.17-.09S66.35,60.46,66.27,60.44Z"/><path class="cls-1" d="M65.88,61.59c-.15,0-.2,0-.1,0a.29.29,0,0,0,.26,0S66,61.61,65.88,61.59Z"/><path class="cls-1" d="M65.28,60.24c-.06,0,0,.11,0,.12a.3.3,0,0,0,.25-.07c.06,0,0-.11,0-.12A.3.3,0,0,0,65.28,60.24Z"/><path class="cls-1" d="M65.1,60.68c0,.08-.07.1-.13,0s-.7.25-.64.35a1.33,1.33,0,0,0,.54-.13c.3-.11.45-.23.39-.3S65.12,60.6,65.1,60.68Z"/><path class="cls-1" d="M81.34,1.68a.08.08,0,0,0,0-.13.39.39,0,0,0-.2-.13c-.09,0-.1,0,0,.14S81.29,1.7,81.34,1.68Z"/><path class="cls-1" d="M64.81,61.72a.15.15,0,0,0-.16.09.11.11,0,0,0,.1.14.13.13,0,0,0,.16-.08A.12.12,0,0,0,64.81,61.72Z"/><path class="cls-1" d="M67.44,50.31c-.21-.05-.22,0-.07.19s.22.21.28.18,0-.07,0-.09-.11-.08,0-.13S67.56,50.34,67.44,50.31Z"/><path class="cls-1" d="M80.62,1.79c.26,0,.27-.05.08-.17s-.62-.13-.67,0S80.22,1.85,80.62,1.79Z"/><path class="cls-1" d="M64.72,57.22c.24,0,.31-.09.13-.13a.3.3,0,0,0-.24.06C64.55,57.21,64.6,57.24,64.72,57.22Z"/><path class="cls-1" d="M79.41,1.9a.34.34,0,0,0,.36-.16c.11-.18.08-.2-.28-.17S79,1.81,79.41,1.9Z"/><path class="cls-1" d="M63.33,60.76c0,.05.09,0,.11-.14s0-.17-.06-.09A.24.24,0,0,0,63.33,60.76Z"/><path class="cls-1" d="M62.53,61.16a.33.33,0,0,0-.32.16c-.2.3-.11.33.22.08S62.68,61.19,62.53,61.16Z"/><path class="cls-1" d="M75,1.9c.11.06.17.15.11.2s0,.1,0,.12.09.08,0,.14-.06.11.06.1a.24.24,0,0,0,.21-.22c0-.13.08-.16.19-.09a.3.3,0,0,0,.29,0,.46.46,0,0,1,.36,0A.76.76,0,0,0,76.74,2a.3.3,0,0,1,.33,0c.06.06.09,0,.07,0s.09-.13.29-.13.33.06.31.11.59.1.75,0,.2-.1.26,0a.08.08,0,0,0,.14,0c0-.08-.14-.13-.42-.14s-1,.05-1.78.11a13.28,13.28,0,0,1-1.62.08C74.84,1.81,74.83,1.82,75,1.9Z"/><path class="cls-1" d="M62.38,60.71c-.06.06-.06.11,0,.13a.36.36,0,0,0,.24-.07c.07-.06.06-.11,0-.13A.38.38,0,0,0,62.38,60.71Z"/><path class="cls-1" d="M62.65,58.33c-.09,0-.1,0,0,.14s.15.14.2.12.06-.08,0-.14A.45.45,0,0,0,62.65,58.33Z"/><path class="cls-1" d="M61.58,61.4c-.17,0-.17,0,0,.14s.4.18.28,0A.52.52,0,0,0,61.58,61.4Z"/><path class="cls-1" d="M61.73,61.06c.06-.05,0-.11-.09-.14s-.21,0-.23.07a.12.12,0,0,0,.09.15A.3.3,0,0,0,61.73,61.06Z"/><path class="cls-1" d="M65.75,44.82a.75.75,0,0,0-.34,0c-.2.06-.2.08,0,.12a.44.44,0,0,0,.33,0C65.81,44.88,65.81,44.83,65.75,44.82Z"/><path class="cls-1" d="M65.31,46.8a.12.12,0,0,0-.1-.14.28.28,0,0,0-.24.07c-.06.05,0,.12.1.14S65.29,46.86,65.31,46.8Z"/><path class="cls-1" d="M60.86,61.3c-.07.1,0,.14.09.13s.17,0,.07.14-.07.18,0,.2.24-.3.09-.48S60.94,61.19,60.86,61.3Z"/><path class="cls-1" d="M60.4,61.39c-.11,0-.2,0-.21,0s.07.09.17.15.19.06.2,0S60.51,61.41,60.4,61.39Z"/><path class="cls-1" d="M64.65,44.83c-.15,0-.19,0-.1.05a.29.29,0,0,0,.26,0S64.79,44.86,64.65,44.83Z"/><path class="cls-1" d="M59.29,61.82c-.13.22-.13.29,0,.26s.15-.1.13-.17.08-.14.25-.18.47-.27.27-.32S59.47,61.52,59.29,61.82Z"/><path class="cls-1" d="M63.8,44.89c-.53,0-.89.12-.79.26A2.41,2.41,0,0,0,64.28,45S64.07,44.89,63.8,44.89Z"/><path class="cls-1" d="M63.38,47.07c-.13,0-.23.06-.2.1s.15,0,.26,0S63.59,47,63.38,47.07Z"/><path class="cls-1" d="M60.46,56.71c-.13,0-.23.07-.2.11s.15,0,.26,0S60.67,56.68,60.46,56.71Z"/><path class="cls-1" d="M63.5,45.56a.68.68,0,0,0-.33.11c-.14.07-.19.14-.13.15a.55.55,0,0,0,.34-.11C63.5,45.64,63.55,45.57,63.5,45.56Z"/><path class="cls-1" d="M58.37,61.7s0,.11.06.13.11.05-.06.11-.46.05-.32-.07-.07-.16-.45,0a2.84,2.84,0,0,1-.83.09c-.34,0-.54.06-.61.2s-.29.3-.63.34c-.08,0-.12.07-.08.13s.25,0,.45-.07.4-.15.43-.11.12,0,.2,0,.07-.1,0-.07-.15,0-.12-.11.15-.12.39,0a.68.68,0,0,0,.58,0c.24-.16.53-.15.34,0s.12.17.35,0a.9.9,0,0,1,.5-.11c.39,0,.58-.34.22-.42A.5.5,0,0,0,58.37,61.7Z"/><path class="cls-1" d="M62.28,47.21c-.05.15,0,.17.18.08a.7.7,0,0,0,.26-.15s-.08,0-.19-.08A.22.22,0,0,0,62.28,47.21Z"/><path class="cls-1" d="M62.25,45.78c-.19.06-.19.08,0,.12a.51.51,0,0,0,.34,0c.06-.06.06-.11,0-.12A.62.62,0,0,0,62.25,45.78Z"/><path class="cls-1" d="M59.13,57c-.14,0-.23.07-.21.11s.15,0,.26,0S59.33,57,59.13,57Z"/><path class="cls-1" d="M74.36,1.13c.09,0,.16-.06.17-.09s0-.06-.12-.08a.16.16,0,0,0-.17.09C74.23,1.12,74.28,1.16,74.36,1.13Z"/><path class="cls-1" d="M73.58,2.18a.75.75,0,0,1,.49,0c.07.06.13,0,.15,0S74.14,2,74,2c-.4-.09-.71,0-.76.15S73.28,2.27,73.58,2.18Z"/><path class="cls-1" d="M61.7,46a.09.09,0,0,0,0-.14.39.39,0,0,0-.2-.13c-.09,0-.1,0,0,.14S61.65,46,61.7,46Z"/><path class="cls-1" d="M61.22,47.27c-.11,0-.21,0-.22.07s.06.1.18.09a.48.48,0,0,0,.22-.07S61.33,47.3,61.22,47.27Z"/><path class="cls-1" d="M58.71,57.17s0-.06-.12-.08a.14.14,0,0,0-.16.1c0,.06,0,.1.12.08S58.7,57.2,58.71,57.17Z"/><path class="cls-1" d="M61.22,45.19c0,.13,0,.24,0,.25s.13-.07.17-.2,0-.25,0-.26S61.25,45.06,61.22,45.19Z"/><path class="cls-1" d="M61.05,46c0-.09,0-.15-.08-.13a.12.12,0,0,0-.09.16C61,46.15,61,46.14,61.05,46Z"/><path class="cls-1" d="M55.19,57.89s.27,0,.64-.09a2.67,2.67,0,0,1,.86-.13c.12,0,.22,0,.24-.08s.09-.08.15,0a.48.48,0,0,0,.35,0c.21,0,.22-.07.06-.17a4.83,4.83,0,0,0-2,.31c-.12.07-.26.08-.31,0a3.13,3.13,0,0,0-1.07.09c-.7.13-.93.22-.83.31s.25.07.44,0,.34-.14.41-.09.13,0,.15,0,.09-.08.15,0a.54.54,0,0,0,.43,0C55.07,57.87,55.2,57.84,55.19,57.89Z"/><path class="cls-1" d="M55.69,60.46c-.14,0-.23.06-.2.1s.14,0,.25,0S55.9,60.43,55.69,60.46Z"/><path class="cls-1" d="M55.09,62.65c-.14,0-.23.07-.2.11s.14,0,.25,0S55.29,62.62,55.09,62.65Z"/><path class="cls-1" d="M71.46,1.37c.16-.06.24-.13.16-.14s-.58.08-.52.17S71.3,1.43,71.46,1.37Z"/><path class="cls-1" d="M55.1,60.74c0-.06,0-.1-.11-.08s-.16.07-.17.1,0,.07.12.08A.13.13,0,0,0,55.1,60.74Z"/><path class="cls-1" d="M57.63,48.52c.21-.06.21-.26,0-.3s-.18,0-.16.15S57.55,48.54,57.63,48.52Z"/><path class="cls-1" d="M70.56,1.35c0-.08-.07-.1-.25-.05s-.58.25-.43.28S70.53,1.46,70.56,1.35Z"/><path class="cls-1" d="M53.17,62.68c-.17.17-.18.21,0,.19a.19.19,0,0,0,.19-.17c0-.1.07-.12.18-.05s.26.11.15,0S53.4,62.46,53.17,62.68Z"/><path class="cls-1" d="M57.22,48.26c-.12-.15-.15-.14-.14.07s.06.23.13.21S57.39,48.46,57.22,48.26Z"/><path class="cls-1" d="M56.67,48.6c.27.07.27.07.07-.18s-.21-.16-.51,0-.35.19-.09.15A1.53,1.53,0,0,1,56.67,48.6Z"/><path class="cls-1" d="M69.14,1.67a.42.42,0,0,0,.3-.06c.06-.06,0-.13-.16-.16s-.28,0-.3.06S69,1.64,69.14,1.67Z"/><path class="cls-1" d="M51.61,62.83a1.26,1.26,0,0,0-.55.15c-.07.07,0,.09.16.07l.52,0c.14,0,.26,0,.28-.1S51.86,62.81,51.61,62.83Z"/><path class="cls-1" d="M54.72,48.77a.71.71,0,0,1,.5-.13.76.76,0,0,0,.5-.14c.1-.13,0-.14-.41-.09a5.06,5.06,0,0,0-.91.22l-.39.16.3.06A.44.44,0,0,0,54.72,48.77Z"/><path class="cls-1" d="M53,58.28c-.07-.06-.28,0-.46.09l-.34.2.33,0C53,58.53,53.16,58.43,53,58.28Z"/><path class="cls-1" d="M68.23,1.72c.19-.06.2-.08,0-.12a.47.47,0,0,0-.33,0C67.77,1.77,67.94,1.81,68.23,1.72Z"/><path class="cls-1" d="M50,63.15c-.14.16-.18.27-.1.29s.15,0,.18-.15a.19.19,0,0,1,.24-.13.42.42,0,0,0,.3-.06c.06-.06,0-.12-.14-.15A.59.59,0,0,0,50,63.15Z"/><path class="cls-1" d="M51.36,58.42c-.32.12-.21.18.24.13.16,0,.23-.08.16-.14A.5.5,0,0,0,51.36,58.42Z"/><path class="cls-1" d="M52.41,48.88c-.11-.1-.7.11-.62.22s.44.06,1.51-.12c.68-.12.77-.18.39-.26-.15,0-.28,0-.3.06s-.21.07-.42,0-.41,0-.43,0S52.47,48.93,52.41,48.88Z"/><path class="cls-1" d="M66.38,1.94c.07,0,.13,0,.14,0s0-.1-.09-.15-.13,0-.15,0A.13.13,0,0,0,66.38,1.94Z"/><path class="cls-1" d="M50.42,58.62c0-.07-.07-.08-.22,0s-.22.13-.2.17S50.38,58.77,50.42,58.62Z"/><path class="cls-1" d="M49.24,58.7c-.24.09-.25.12-.09.21s.2,0,.23-.07.09-.13.15-.08a.18.18,0,0,0,.22,0c.07-.06,0-.12-.06-.13A1,1,0,0,0,49.24,58.7Z"/><path class="cls-1" d="M65.09,2c.2-.06.2-.08,0-.12a.46.46,0,0,0-.32.05C64.63,2.08,64.8,2.12,65.09,2Z"/><path class="cls-1" d="M52.46,47.12a.13.13,0,0,0-.17.09.13.13,0,0,0,.1.14.14.14,0,0,0,.17-.09A.12.12,0,0,0,52.46,47.12Z"/><path class="cls-1" d="M51.74,46.44a2.2,2.2,0,0,0-.75.22,2.73,2.73,0,0,0,1.43-.23C52.5,46.33,52.28,46.33,51.74,46.44Z"/><path class="cls-1" d="M63.39,2.28a1,1,0,0,0,.58,0,1.16,1.16,0,0,1,.42-.14c.13,0,.15,0,.07-.06a2.83,2.83,0,0,0-.79.06C63.12,2.18,63.08,2.2,63.39,2.28Z"/><path class="cls-1" d="M51.29,49.08a.76.76,0,0,0-.39.16c0,.13.07.14.41.06S51.72,49,51.29,49.08Z"/><path class="cls-1" d="M48.48,58.61a.28.28,0,0,0-.24.07c-.06.06,0,.09.12.07S48.67,58.65,48.48,58.61Z"/><path class="cls-1" d="M48,59c.06-.22-.19-.18-.33.06s-.18.19-.23.14a1.23,1.23,0,0,0-.61,0c-.3.06-.43.14-.3.17a.31.31,0,0,1,.24.2c0,.1.06.09.1,0s.23-.22.49-.12c.06,0,.15,0,.22-.13s.16-.12.22-.08.18,0,.31-.08.17-.14,0-.1S47.93,59.06,48,59Z"/><path class="cls-1" d="M50.33,49.18c-.38.09-.44.14-.26.21s.64.07.7-.14S50.75,49.09,50.33,49.18Z"/><path class="cls-1" d="M46.8,61.92c-.06.06-.06.11,0,.13a.36.36,0,0,0,.24-.07c.07-.06.06-.11,0-.13A.28.28,0,0,0,46.8,61.92Z"/><path class="cls-1" d="M62.77,2.31c.25-.13.24-.14-.08-.12a4,4,0,0,0-.57.07c-.17,0-.15.07.08.12A.93.93,0,0,0,62.77,2.31Z"/><path class="cls-1" d="M50.31,46.62c-.28.05-.5.11-.48.14a1.75,1.75,0,0,0,1-.14S50.59,46.57,50.31,46.62Z"/><path class="cls-1" d="M49.58,49.56c0-.07-.06-.14-.17-.16s-.22,0-.23.07,0,.14.16.16S49.56,49.62,49.58,49.56Z"/><path class="cls-1" d="M61.12,2.65c.19,0,.32,0,.29-.06s.08-.16.22-.21.24-.08,0,0l-.53,0C60.73,2.38,60.74,2.57,61.12,2.65Z"/><path class="cls-1" d="M46.51,58.18c0-.06,0-.1-.11-.08a.26.26,0,0,0-.17.1s0,.06.12.08A.15.15,0,0,0,46.51,58.18Z"/><path class="cls-1" d="M45.67,59.36c-.46-.1-.84,0-1,.17s-.07.21,0,.23.15-.07.18-.18.06-.18.13,0,.16.13.19-.1c0,0,.15,0,.32.06s.31.07.33,0S45.8,59.38,45.67,59.36Z"/><path class="cls-1" d="M48.24,49.69a3.58,3.58,0,0,1-.61-.06c-.34-.06-.35-.06-.14.15s.25.19.31.14a1.9,1.9,0,0,1,.4-.16C48.46,49.69,48.46,49.68,48.24,49.69Z"/><path class="cls-1" d="M48.2,48.26a.79.79,0,0,0-.46.08c-.07,0,0,.08.22.07C48.44,48.39,48.62,48.28,48.2,48.26Z"/><path class="cls-1" d="M45.75,57.42a.13.13,0,0,0-.16.09c0,.07,0,.1.11.08s.16-.06.17-.09S45.82,57.44,45.75,57.42Z"/><path class="cls-1" d="M59.58,2.69a.45.45,0,0,1,.34-.06,1.29,1.29,0,0,0,.52-.07c.25-.09.26-.12.09-.16a.52.52,0,0,0-.32,0,1,1,0,0,1-.51.07c-.22,0-.43,0-.45.1S59.43,2.82,59.58,2.69Z"/><path class="cls-1" d="M45.15,58.46c.05,0,0-.07-.15-.1s-.2,0-.11.06A.32.32,0,0,0,45.15,58.46Z"/><path class="cls-1" d="M47.1,50a.13.13,0,0,0,.16-.09c0-.06,0-.12-.1-.14a.14.14,0,0,0-.16.09A.11.11,0,0,0,47.1,50Z"/><path class="cls-1" d="M44.07,59.51c0,.13,0,.24.12.26s.31-.23.21-.38S44.13,59.29,44.07,59.51Z"/><path class="cls-1" d="M46.35,49.87c0-.15.11-.23.39-.27s.34-.07.26-.09a2.49,2.49,0,0,0-.69,0c-.31,0-.65.07-.76.07-.49,0-1,.1-1,.23s-.07.09-.11,0-.9.07-.94.21,0,.12.1.14l.23.05a.11.11,0,0,0,.13-.07.5.5,0,0,1,.17-.21c.12-.1.17-.09.29,0s.17.13.19,0A3.34,3.34,0,0,1,46,49.78a.12.12,0,0,1,.11.14.11.11,0,0,0,.08.14C46.3,50.08,46.35,50,46.35,49.87Z"/><path class="cls-1" d="M44.19,58.6s.13,0,.25-.07.16-.13.09-.15S44.13,58.52,44.19,58.6Z"/><path class="cls-1" d="M47,48.4a.13.13,0,0,0-.16.09c0,.06,0,.1.12.08s.15-.07.16-.1S47.06,48.41,47,48.4Z"/><path class="cls-1" d="M43.13,61.09c0,.06.19,0,.34,0s.22-.16.15-.17C43.39,60.83,43.05,61,43.13,61.09Z"/><path class="cls-1" d="M43.68,59.66c.06,0,0-.09-.09-.07s-.34.32-.11.34.46-.09.25-.14S43.62,59.71,43.68,59.66Z"/><path class="cls-1" d="M43.79,58.47c-.07,0-.11,0-.09.1a.27.27,0,0,0,.11.15s.07,0,.09-.11A.12.12,0,0,0,43.79,58.47Z"/><path class="cls-1" d="M58.53,2.83a.68.68,0,0,0,.41-.09c.12-.08.16-.15.1-.16a1.07,1.07,0,0,0-.42.09C58.39,2.76,58.37,2.79,58.53,2.83Z"/><path class="cls-1" d="M43.05,59.71c-.09,0-.16.07-.17.1s0,.06.12.07a.12.12,0,0,0,.16-.09C43.18,59.72,43.13,59.69,43.05,59.71Z"/><path class="cls-1" d="M58.41,3.1s0-.05-.08-.07a.15.15,0,0,1-.1-.2c0-.11,0-.16-.17-.15s-.23.06-.24.11S58.3,3.16,58.41,3.1Z"/><path class="cls-1" d="M57.25,3.21c.41-.26.46-.31.3-.35a2.6,2.6,0,0,0-.59.08c-.45.09-.46.1-.28.3S56.92,3.41,57.25,3.21Z"/><path class="cls-1" d="M42.77,50.14c-.41,0-.54.27-.14.28.18,0,.35-.05.37-.13S42.93,50.14,42.77,50.14Z"/><path class="cls-1" d="M54.88,3.39c.2-.06.21-.07,0-.12a.48.48,0,0,0-.35.06C54.4,3.45,54.58,3.49,54.88,3.39Z"/><path class="cls-1" d="M41.47,50.4a5,5,0,0,0-.89.23c-.43.14-.79.2-.8.14s-.3-.06-.67,0c-.79.16-.79.16-.73.23A1.8,1.8,0,0,0,39,51a1.14,1.14,0,0,1,.62,0s0,.09-.12.11a.27.27,0,0,0-.21.13c0,.06.16,0,.38-.05a1.78,1.78,0,0,1,.52-.15,1.25,1.25,0,0,0,.52-.19,1.11,1.11,0,0,1,.61-.17c.11,0,.22,0,.23-.07A.1.1,0,0,0,41.47,50.4Z"/><path class="cls-1" d="M51.68,4.13c.33,0,.5-.09.43-.16a.24.24,0,0,1-.1-.23c0-.07.07-.09.1,0s.17,0,.29,0,.24,0,.28,0,0,.13-.16.18-.18.07,0,.06a1.71,1.71,0,0,1,.35,0,2.83,2.83,0,0,0,.65-.26l.55-.27h-.45a8.18,8.18,0,0,0-1.36.14c-.48.09-1,.17-1.17.18s-.26,0-.13.23S51.21,4.17,51.68,4.13Z"/><path class="cls-1" d="M38.11,50.9A.13.13,0,0,0,38,51a.12.12,0,0,0,.09.15.15.15,0,0,0,.17-.09A.12.12,0,0,0,38.11,50.9Z"/><path class="cls-1" d="M37.41,50.94a.26.26,0,0,0-.18.16c0,.06,0,.09.12.07a.29.29,0,0,0,.18-.16C37.55,50.94,37.5,50.91,37.41,50.94Z"/><path class="cls-1" d="M36.58,51.68c-.07,0-.06.11,0,.12a.3.3,0,0,0,.25-.07c.06,0,0-.11,0-.12A.27.27,0,0,0,36.58,51.68Z"/><path class="cls-1" d="M36.8,50.87a.24.24,0,0,0-.26.2c-.06.2,0,.22.17.14A.51.51,0,0,0,37,51S36.92,50.89,36.8,50.87Z"/><path class="cls-1" d="M36,51.07a.17.17,0,0,0-.21.09c0,.07.06.11.19.1a1.47,1.47,0,0,1,.28,0s.07-.08.1-.19,0-.16-.07-.08A.33.33,0,0,1,36,51.07Z"/><path class="cls-1" d="M35.28,51.13s-.15.07-.32,0c-.43-.06-.71.13-.3.21s1.24-.21.87-.29C35.4,51.06,35.29,51.08,35.28,51.13Z"/><path class="cls-1" d="M33.89,51.18a2.14,2.14,0,0,1-.71.13,1.38,1.38,0,0,0-.63.13c0,.06-.16.07-.34,0-.48-.11-.76,0-.83.19s0,.2.35.12.41-.06.4.1.22.29.27.11.12-.09.23-.06.21,0,.23-.09,0-.1-.14-.07-.13,0,0-.07a.44.44,0,0,1,.32-.07c.12,0,.21,0,.23-.07s.12,0,.22,0,.17.06.13-.06,0-.14.07-.06a.35.35,0,0,0,.37,0c.17-.1.21-.17.12-.25A.2.2,0,0,0,33.89,51.18Z"/><path class="cls-1" d="M33.55,50.64c.05,0-.08-.12-.31-.17s-.41,0-.42,0,.11.13.3.17A.63.63,0,0,0,33.55,50.64Z"/><path class="cls-1" d="M32.23,50.6c0-.08-.06-.09-.21,0s-.22.14-.19.17S32.19,50.74,32.23,50.6Z"/><path class="cls-1" d="M29,52c-.11,0-.19,0-.17.08s-.07.13-.19.14-.21.07-.17.11.68-.07.71-.2S29.11,52,29,52Z"/><path class="cls-1" d="M27.62,52.5c-.27.1-.27.11,0,.25s.33.12.39.07a1.28,1.28,0,0,1,.47-.15c.37-.06.36-.06-.1-.17A1.57,1.57,0,0,0,27.62,52.5Z"/><path class="cls-1" d="M25.78,52.83c0,.15.17.16.27,0s0-.13-.08-.12S25.79,52.78,25.78,52.83Z"/><path class="cls-1" d="M25,52.37a.14.14,0,0,0-.16.09.11.11,0,0,0,.1.14.13.13,0,0,0,.16-.08A.12.12,0,0,0,25,52.37Z"/><path class="cls-1" d="M23.88,51.71c0,.1-.1.18-.18.17l-.29,0c-.23,0-.36.2-.2.35s.2,0,.31-.07.2-.14.26,0,.08.16.12,0,.13-.11.28,0c.35.19.47,0,.16-.31S23.94,51.5,23.88,51.71Z"/><path class="cls-1" d="M23.55,52.75c-.07.09-.07.17,0,.19a.17.17,0,0,0,.18-.15c0-.1,0-.18,0-.19S23.62,52.66,23.55,52.75Z"/><path class="cls-1" d="M22.91,52.29c-.23.07-.19.34.06.39s.34-.26.21-.38A.34.34,0,0,0,22.91,52.29Z"/><path class="cls-1" d="M22.85,51.32a.21.21,0,0,0,.22-.17c0-.18,0-.18-.14-.06s-.13,0,0-.24l.2-.37-.48.27a2.15,2.15,0,0,1-.85.29c-.25,0-.4.08-.44.22a.21.21,0,1,0,.4.1c0-.11.07-.13.09,0s.12.12.42.06A1.75,1.75,0,0,1,22.85,51.32Z"/><path class="cls-1" d="M22.58,51.93c-.09,0-.17.09-.18.15a.11.11,0,0,0,.1.14c.07,0,.15,0,.18-.15S22.66,51.91,22.58,51.93Z"/><path class="cls-1" d="M22.13,52.57a.15.15,0,0,0,.08.2c.08,0,.16-.08.2-.21s0-.22-.09-.19A.31.31,0,0,0,22.13,52.57Z"/><path class="cls-1" d="M21.76,52.4c0,.14,0,.27.06.28s.19-.08.09-.34S21.81,52.19,21.76,52.4Z"/><path class="cls-1" d="M21,51.49s.09,0,.11-.14,0-.17-.06-.09A.24.24,0,0,0,21,51.49Z"/><path class="cls-1" d="M20.17,51.1a.13.13,0,0,0,.1.16c.07,0,.13,0,.14,0s0-.1-.1-.15A.08.08,0,0,0,20.17,51.1Z"/><path class="cls-1" d="M20,49.85a.27.27,0,0,0-.32.2c0,.15,0,.2,0,.14a.21.21,0,0,1,.27,0,.13.13,0,0,0,.22-.08C20.2,50,20.11,49.88,20,49.85Z"/><path class="cls-1" d="M18.72,48.07c-.28.1-.28.11.05.18s.35.14.36.23,0,.1.06,0a.62.62,0,0,0-.07-.34C19,48,19,48,18.72,48.07Z"/><path class="cls-1" d="M19.34,47c-.07,0-.12,0-.09.11a.21.21,0,0,0,.11.14s.07,0,.09-.1A.13.13,0,0,0,19.34,47Z"/><path class="cls-1" d="M15.06,47.46c-.22.19-.25.31-.09.34s.17-.08.21-.23S15.21,47.34,15.06,47.46Z"/><path class="cls-1" d="M23.39,15.08s.09.12.22.23.23.14.27,0-.07-.18-.22-.22S23.4,15.06,23.39,15.08Z"/><path class="cls-1" d="M24.52,11.47a.16.16,0,0,0,.17-.09c0-.07,0-.11-.12-.08s-.16.06-.17.09S24.45,11.45,24.52,11.47Z"/><path class="cls-1" d="M22.48,18.66c.11.06.19.06.21,0s-.05-.12-.16-.15-.2,0-.21,0S22.38,18.6,22.48,18.66Z"/><path class="cls-1" d="M14.11,47.47c-.17.15-.18.15-.14,0s-.21-.57-.37-.43a.47.47,0,0,1-.34.06c-.21,0-.8.54-.69.69s.06,0,.08-.05.19-.08.37,0c.44.14,1.42,0,1.48-.18a.17.17,0,0,0-.08-.2A.46.46,0,0,0,14.11,47.47Z"/><path class="cls-1" d="M23.5,12.88c.12-.15.11-.17-.05-.08s-.18.14-.15.18S23.42,13,23.5,12.88Z"/><path class="cls-1" d="M11.57,47.57c-.08,0-.12,0-.09.1s.07.14.1.14.07,0,.09-.1A.12.12,0,0,0,11.57,47.57Z"/><path class="cls-1" d="M11.09,47.5c-.07,0-.07.14,0,.23s.29.14.2-.11C11.24,47.52,11.15,47.46,11.09,47.5Z"/><path class="cls-1" d="M9.51,45.17A.25.25,0,0,1,9.32,45c0-.09-.08,0-.14.22a.57.57,0,0,0,.47.74c.18,0,.28-.35.14-.56A.67.67,0,0,0,9.51,45.17Z"/><path class="cls-1" d="M8.46,45.32a.36.36,0,0,0-.25.15c-.11.14-.09.15.11.06S8.63,45.36,8.46,45.32Z"/><path class="cls-1" d="M15.51,16.15c.09-.15.07-.23,0-.26a.23.23,0,0,0-.17.39C15.34,16.33,15.44,16.27,15.51,16.15Z"/><path class="cls-1" d="M5.16,45.71a.22.22,0,0,0,.08.2c.06.06.13,0,.16-.08a.15.15,0,0,0-.08-.2A.12.12,0,0,0,5.16,45.71Z"/><path class="cls-1" d="M3.86,45.32c-.07,0-.11,0-.08.1a.23.23,0,0,0,.1.15s.07,0,.09-.1S3.94,45.34,3.86,45.32Z"/><path class="cls-1" d="M1.08,45.59c-.15,0-.19,0-.1,0a.35.35,0,0,0,.25,0C1.29,45.66,1.22,45.61,1.08,45.59Z"/><path class="cls-1" d="M2,42.1C2,42,2,42,1.87,42s-.16.06-.16.09,0,.07.11.09A.17.17,0,0,0,2,42.1Z"/><path class="cls-1" d="M1.56,41.16a.36.36,0,0,0-.25.15c-.11.14-.09.15.11.07S1.73,41.2,1.56,41.16Z"/><path class="cls-1" d="M2.93,35.79a.77.77,0,0,0-.35-.15c-.25,0-.25,0,0,.12S3,36,2.93,35.79Z"/><path class="cls-1" d="M1.16,39.52c0,.1,0,.11.15,0a.43.43,0,0,1,.35,0c.09.06.18.07.19,0s-.06-.12-.15-.18S1.21,39.33,1.16,39.52Z"/><path class="cls-1" d="M.85,42.17c-.08,0-.16.07-.16.09s0,.07.11.08A.14.14,0,0,0,1,42.25C1,42.18.93,42.15.85,42.17Z"/><path class="cls-1" d="M.55,39.48c-.07.05,0,.11.08.14A.42.42,0,0,0,1,39.56c.06-.05,0-.12-.09-.14A.39.39,0,0,0,.55,39.48Z"/><path class="cls-1" d="M1.86,34.5c.08,0,.11,0,.08-.09a.11.11,0,0,1,.11-.13c.08,0,.13-.06.09-.11s-.75,0-.81.2,0,.15.18.13Z"/><path class="cls-1" d="M.94,33.82a.68.68,0,0,0,0,.37c.1.25.15.06.08-.29C1,33.73,1,33.7.94,33.82Z"/><path class="cls-1" d="M1.06,32.93s.12,0,.2-.11.1-.16-.06-.08S1,32.89,1.06,32.93Z"/><path class="cls-1" d="M.81,32c.07-.06,0-.12-.08-.14a.42.42,0,0,0-.32.05c-.06.06,0,.12.09.14A.39.39,0,0,0,.81,32Z"/><path class="cls-1" d="M1.71,27.17c.23-.05.23-.07.07-.17a.29.29,0,0,0-.31,0C1.29,27.14,1.43,27.24,1.71,27.17Z"/><path class="cls-1" d="M.47,31c.06.06.13,0,.15-.07s0-.19-.08-.21a.14.14,0,0,0-.16.08A.22.22,0,0,0,.47,31Z"/><path class="cls-1" d="M.51,29.76c0-.21-.06-.22-.11-.07a.31.31,0,0,0,0,.29C.58,30.1.58,30.1.51,29.76Z"/><path class="cls-1" d="M.71,28.24c.11,0,.11-.07,0-.09s-.11-.09,0-.16.07-.1,0-.06a.39.39,0,0,0-.2.2,2.68,2.68,0,0,1-.22.35l-.15.21.23-.2A1.39,1.39,0,0,1,.71,28.24Z"/></g></g></svg>