<svg xmlns="http://www.w3.org/2000/svg" viewBox="0 0 118.9 109.26"><defs><style>.cls-1{fill:#f0fcff;}.cls-2{fill:#79cce2;}.cls-3{fill:#203b3f;}</style></defs><title>cucitangan4</title><g id="Layer_2" data-name="Layer 2"><g id="OBJECTS"><circle class="cls-1" cx="59.45" cy="54.63" r="54.63" transform="translate(-4.14 104.38) rotate(-80.62)"/><path class="cls-2" d="M70.78,62.2a4.63,4.63,0,1,1-9.25.15c.07-2.76,1.74-5,4.71-5A4.43,4.43,0,0,1,70.78,62.2Z"/><path class="cls-2" d="M102.69,38.2a4.18,4.18,0,1,1-8.36.17,4.54,4.54,0,0,1,4.55-4.43C101,33.89,102.68,35.72,102.69,38.2Z"/><path class="cls-2" d="M40.08,86.83a4,4,0,0,1,4,3.92A4.39,4.39,0,0,1,40,95.19a4.12,4.12,0,0,1-4-4.13A4.21,4.21,0,0,1,40.08,86.83Z"/><path class="cls-2" d="M59.63,57.19a3.3,3.3,0,0,1-3.13,2.92c-1.46,0-3.06-1.55-2.88-2.93a3.17,3.17,0,0,1,3.17-3A2.8,2.8,0,0,1,59.63,57.19Z"/><path class="cls-2" d="M98,25.41a2.69,2.69,0,0,1,2.7,2.65,2.8,2.8,0,0,1-2.76,2.8A2.73,2.73,0,0,1,98,25.41Z"/><path class="cls-3" d="M26.09,66.07a18.82,18.82,0,0,0-4.82-1.42c-4.2-1-8.42-1.92-12.52-3.28a12.6,12.6,0,0,1-5.26-2.94,7.87,7.87,0,0,1-.74-.79C1.58,56,2.21,54.43,4.15,54A16.1,16.1,0,0,1,9.9,54c4.95.61,9.89,1.33,14.82,2.1a53.14,53.14,0,0,0,6.77,1c.61,0,1.05,0,1-.83A64.06,64.06,0,0,0,26,53.52c-5.11-2.05-10.3-3.92-15.33-6.19A13.94,13.94,0,0,1,8.1,45.85a4.76,4.76,0,0,1-1.75-2.51,2.18,2.18,0,0,1,1.85-3,16.71,16.71,0,0,1,4.84.18c3.38.55,6.76,1.15,10.14,1.77,4.34.79,8.72,1.39,13.07,2.16a43.17,43.17,0,0,0,10,1c.22-1.13,0-2.43.89-3.39-2.45-2-3-7,.13-9.26A5.86,5.86,0,0,1,44,27.1a6.67,6.67,0,0,1,3.16-5.81c-1.06-1.86-1.57-3.77-.51-5.77s3.09-2.45,5-3.06c0-.61-.39-.68-.68-.88a10.09,10.09,0,0,1-4-4.8A6.06,6.06,0,0,1,46.53,4,3,3,0,0,1,49.4,1.26a9.74,9.74,0,0,1,4,.76c3.12,1,6.19,2.13,9.3,3.15a15.4,15.4,0,0,0,3.19.75,11.37,11.37,0,0,1,6.2,3,43,43,0,0,1,5.27,5.93A119.8,119.8,0,0,0,86,24.22,14.08,14.08,0,0,1,89.77,30a21.47,21.47,0,0,1,.84,4.28c.43,4.94,2.9,8.86,6.25,12.24,5.71,5.77,11.75,11.19,17.7,16.71,1.14,1.06,2.22,2.17,3.39,3.2s1.12,2,.44,3.18a26.23,26.23,0,0,1-8.85,9.25,32.3,32.3,0,0,1-9.22,3.68c-.2,0-.4.12-.61.19-.08.52.37.71.63,1,1.9,1.86,3.82,3.69,5.73,5.53.87.84.85.83.33,2A10.61,10.61,0,0,1,104.58,94,71.82,71.82,0,0,1,87.7,107.48c-1.43.85-1.59.74-2.68-.59C81,102,77.1,97.1,73,92.32a6.51,6.51,0,0,0-3.69-2.17c-8.41-1.77-16.53-4.59-24.74-7.06A9.61,9.61,0,0,0,42,82.68a73.49,73.49,0,0,0-10.26.89c-1.4.16-2.81.25-4.21.29-2.66.07-5.3.42-8,.42a37.06,37.06,0,0,1-4.82-.44,5.08,5.08,0,0,1-3.11-1.64A1.93,1.93,0,0,1,11.86,79a14.25,14.25,0,0,1,4.76-1.87c2-.58,4.13-1,6.34-1.51a2.63,2.63,0,0,0-1.41-.22c-4-.07-8-.1-12-.22a21.77,21.77,0,0,1-7.19-1.31C.11,73-.59,71.12.52,69.26A3.77,3.77,0,0,1,3.1,67.68c2.87-.7,5.8-.55,8.71-.79,4.52-.36,9.06-.44,13.59-.64A3.61,3.61,0,0,0,26.09,66.07Zm-9.16,16.7a2.79,2.79,0,0,0,1.51.17c2.35-.06,4.7-.08,7-.24,3-.2,5.93-.4,8.87-.82a57.93,57.93,0,0,1,9.67-.4,3.16,3.16,0,0,1,.92.15c3.53,1.07,7,2.21,10.59,3.22,4.25,1.21,8.46,2.58,12.79,3.5a9.64,9.64,0,0,1,5.91,3.19c1.33,1.67,2.76,3.25,4.14,4.88,2.78,3.29,5.54,6.61,8.17,10.1.31-.15.59-.27.85-.43a82.83,82.83,0,0,0,8.18-5.74,51.84,51.84,0,0,0,8.57-8.18,4.42,4.42,0,0,0,1-1.8,2,2,0,0,0-.24-.33c-6.21-5.75-12.2-11.75-18.47-17.44a34.43,34.43,0,0,1-8.53-10.82c-1.14-2.45-2.26-4.91-3.44-7.34C73.41,52.21,72.29,50,71,47.82a23.88,23.88,0,0,1-3.38,1.36,20.09,20.09,0,0,1-3.53.63,41.81,41.81,0,0,1-12.42-.91,9.18,9.18,0,0,1-3.85-1.61,3.22,3.22,0,0,0-2.06-.58c-1.77-.09-3.55-.12-5.3-.37-4.83-.7-9.65-1.48-14.46-2.26-4.62-.75-9.22-1.54-13.83-2.31a2.27,2.27,0,0,0-1.18,0c1.31,1.84,1.21,2.55-.47,3.84a45.39,45.39,0,0,0,5,2.21q7.26,2.82,14.56,5.6A19.93,19.93,0,0,1,33.29,55c.3.19.63.35.72.77a2.22,2.22,0,0,1-2.26,2.58,55.15,55.15,0,0,1-6.66-.87c-3.49-.53-7-1.17-10.48-1.6a52.92,52.92,0,0,0-7.19-.66,2.77,2.77,0,0,1,.39,2c-.1.84-1,.93-1.5,1.48A40.75,40.75,0,0,0,16.15,62c4.55,1.07,9.1,2.14,13.63,3.3a5.53,5.53,0,0,1,1,.42c.33.15.69.31.55.8a.77.77,0,0,1-.82.59c-1.57,0-3.1.44-4.65.48-5.42.14-10.82.78-16.24.82A10.61,10.61,0,0,0,5.15,69c.53.65,1.28,1,1.42,1.87S6.1,72.4,5.5,73.25c2.58.18,4.9.46,7.23.49,5.53.08,11.06,0,16.58.06.84,0,1.67.09,2.5.16.6.05,1,.36.9,1a1.14,1.14,0,0,1-.84.4c-2,.36-4,.74-6,1.06-3.25.51-6.44,1.25-9.61,2-.36.09-.82.17-.92.67C17.08,80.27,17.59,80.48,16.93,82.77ZM70,41.58a4.44,4.44,0,0,1,2,4.85,1.63,1.63,0,0,0,.33,1.17,125.18,125.18,0,0,1,6.65,13.06,20.19,20.19,0,0,0,4.68,6.92A134.82,134.82,0,0,0,100,80.41a2.51,2.51,0,0,0,2.18.37c.4-.11.76-.34,1.16-.47A25.57,25.57,0,0,0,117.1,69.18a1.33,1.33,0,0,0,.33-1.16c-1.24-1.15-2.48-2.33-3.75-3.47-6-5.42-11.84-10.94-17.52-16.67A30.07,30.07,0,0,1,91,40.66a14.39,14.39,0,0,1-1.6-5,33.94,33.94,0,0,0-.9-4.91c-.71-2.6-2.48-4.54-4.38-6.33A94.1,94.1,0,0,1,75.47,15a37.65,37.65,0,0,0-5.23-5.55,8.43,8.43,0,0,0-3.93-2.13A64.13,64.13,0,0,1,59.2,5.57a10.67,10.67,0,0,0-2.88-.81c-2.63,2.66-5.5,1.73-8.48.58a8.67,8.67,0,0,0,3.61,5c1.27.88,2.49,1.92,4.12,2.09a46,46,0,0,1,6.92,1.15,15.18,15.18,0,0,1,5.86,2.46,5.77,5.77,0,0,1,2.33,3.39,3.55,3.55,0,0,1-1.2,3.38C71.8,23.9,73.19,25.5,73.27,28S71.72,32,69.11,32.87c2.17.91,3.73,1.84,3.79,4.12A4.69,4.69,0,0,1,70,41.58ZM66.91,31.31c-.3-.4-.81-.39-1.19-.64a3.15,3.15,0,0,1-.83-4.4A4.34,4.34,0,0,1,67,24.79l1.87-.61a1.75,1.75,0,0,0-1.68-.83,84.84,84.84,0,0,1-9.7.18,28.35,28.35,0,0,1-8-1.12,2.26,2.26,0,0,0-1.9.34c-1.69,1-2.67,4.59-1.93,6.31a3.57,3.57,0,0,0,2.43,2.4,16.74,16.74,0,0,0,3.54.55c4.59.09,9.17-.43,13.76-.36A2,2,0,0,0,66.91,31.31Zm-1.18,2c-1.32,0-2.51,0-3.7,0-3.8.14-7.6.2-11.4.08-2.14-.07-3.11.45-3.82,2.36a4.12,4.12,0,0,0,3,5.63,11.19,11.19,0,0,0,2.16.26,95.15,95.15,0,0,0,14.8-.84,5.27,5.27,0,0,0,2.59-1C65,38.45,64,36.74,65.73,33.34Zm2-16.14a11.06,11.06,0,0,0-3.57-1.79,52.06,52.06,0,0,0-7.63-1.53,14.1,14.1,0,0,0-5.72.32,5.23,5.23,0,0,0-3,1.91c-.69.94-.14,1.89-.1,2.83.06,1.24,1,1.73,1.92,2a18.93,18.93,0,0,0,3.67.73c2.55.13,5.09.27,7.64.37a6.18,6.18,0,0,0,2.13-.16C61.93,19.36,62.8,17.36,67.74,17.2ZM64.52,42.72c-2.45.32-4.72.25-7,.46a23.77,23.77,0,0,1-9.05-.57c-1,1.44-.85,2.6.26,3.52a5.66,5.66,0,0,0,2.23,1A38.06,38.06,0,0,0,63.3,48.42a5.92,5.92,0,0,0,2.82-.59C63.36,45.82,63.59,44.8,64.52,42.72Zm4.4-12.43c1.4,0,2.36-.45,2.73-1.23a3.67,3.67,0,0,0-.48-3.4.85.85,0,0,0-.53-.27,6,6,0,0,0-4.38,1.25,1.83,1.83,0,0,0,.46,3.17A6.81,6.81,0,0,0,68.92,30.29Zm2.33,8.06c.45-1.09.59-2.14-.33-3a3.75,3.75,0,0,0-3.67-1.21,1.22,1.22,0,0,0-.93,1A2.24,2.24,0,0,0,67.7,38,6,6,0,0,0,71.25,38.35Zm-3,8.39c1,0,1.9.14,2.35-.78a2.48,2.48,0,0,0-.44-2.62A2,2,0,0,0,68,42.51a4.9,4.9,0,0,0-2.09,1A1.51,1.51,0,0,0,66,46.16,3.52,3.52,0,0,0,68.22,46.74ZM67.3,18.58a4.09,4.09,0,0,0-2.94.68A1,1,0,0,0,64.48,21a4.86,4.86,0,0,0,4.35.05,1.09,1.09,0,0,0,.57-1.31c-.07-.51-.24-1-.86-1.15A7.32,7.32,0,0,0,67.3,18.58Zm-12-14.17c-1.14-.46-2-.87-2.93-1.18A21.66,21.66,0,0,0,50,2.61a1.25,1.25,0,0,0-1.5.54c-.33.7.31,1,.8,1.27C51.14,5.3,53.06,5.74,55.28,4.41Zm-43.38,76A1.66,1.66,0,0,0,13.11,82a3.72,3.72,0,0,0,2.42-.11c.52-.23.56-.7.14-1.11a1.67,1.67,0,0,0-1.21-.58A8.82,8.82,0,0,0,11.9,80.44ZM1.77,70.27c-.19,1.32,0,1.65,1,1.79a7.92,7.92,0,0,0,1.54,0c.57,0,1-.26,1-.92s-.41-.91-1-1A12.24,12.24,0,0,0,1.77,70.27ZM11,43.72A4,4,0,0,0,7.93,42c-.29.67-.31,1.31.27,1.69A2.44,2.44,0,0,0,11,43.72ZM3.59,55.78c.66,1.21,1.59,1.66,2.55,1.38.46-.14.65-.71.26-.92A3.25,3.25,0,0,0,3.59,55.78Z"/></g></g></svg>