<svg xmlns="http://www.w3.org/2000/svg" viewBox="0 0 109.26 109.26"><defs><style>.cls-1{fill:#f0fcff;}.cls-2{fill:#203b3f;}.cls-3{fill:#79cce2;}</style></defs><title>cucitangan5</title><g id="Layer_2" data-name="Layer 2"><g id="OBJECTS"><circle class="cls-1" cx="54.63" cy="54.63" r="54.63" transform="translate(-11.32 94.87) rotate(-76.39)"/><path class="cls-2" d="M29.48,70A10.67,10.67,0,0,0,26.56,70,18.14,18.14,0,0,1,19,68.89c-2-.73-2.64-1.71-2.38-3.8-.41-.41-1-.42-1.51-.83-1.37-1.19-1.42-2.56,0-3.73a12,12,0,0,1,3.55-1.75,12.64,12.64,0,0,0,2.68-1,.46.46,0,0,0-.3-.53C18.11,56.17,15.26,55,12.32,54a18.76,18.76,0,0,1-5.7-2.74,5,5,0,0,1-1.49-1.62A1.81,1.81,0,0,1,5.9,47a3.87,3.87,0,0,1,1.85-.43,31.51,31.51,0,0,1,7.92.84c1.3.27,2.58.62,3.87.92a2.22,2.22,0,0,0,.88.08c2.49-.55,5.06-.72,7.6-1.51a6.75,6.75,0,0,0-1.71-1.4c-4.43-3.22-8.87-6.41-13.3-9.62a12.37,12.37,0,0,1-2.68-2.53,4.93,4.93,0,0,1-1-4.15c.35-1.65,1.45-2.48,3.39-2.3a7.94,7.94,0,0,1,3.43,1.27l7.44,4.53,1.57.9a4.36,4.36,0,0,1,3.24-.74,70.53,70.53,0,0,1,8.05,1,2.12,2.12,0,0,0,1.17,0c0-.54-.47-.73-.76-1-3.19-3.06-6.41-6.11-9.43-9.33a10.5,10.5,0,0,1-2.92-5.36A2.65,2.65,0,0,1,27.73,15,11.55,11.55,0,0,1,32,16.8a92.29,92.29,0,0,1,8.51,7c3.39,2.91,6.81,5.79,10.42,8.44.37-.34,0-.53-.14-.73a26.35,26.35,0,0,1-3.43-7A10.54,10.54,0,0,1,47,20c.26-1.73,1.61-2.36,3.15-1.52a8.74,8.74,0,0,1,2.47,2.3,52.82,52.82,0,0,0,8.58,8.46,4,4,0,0,0,1.63,1,6.63,6.63,0,0,0-.48-2.33c-.34-1.49-.67-3-.91-4.48a15.38,15.38,0,0,1,.35-7.32c.54-1.59,1.52-2.3,2.91-2.14a2.7,2.7,0,0,1,1.8,1.18,23.54,23.54,0,0,1,2.37,3.91C71.72,24.26,74.15,29.63,76.6,35c.65,1.43,1.45,2.79,2.14,4.21a3.52,3.52,0,0,0,.94,1.12,22.25,22.25,0,0,1,7.41,12.45A12.54,12.54,0,0,0,91.81,60,122.49,122.49,0,0,0,103,67.65c1.51.95,1.54,1,1.29,2.71a10.42,10.42,0,0,1-1.53,3.8c-.22.38-.47.74-.69,1.08.22.67.77,1,1.21,1.32a1.2,1.2,0,0,1,.4,1.56,6,6,0,0,1-.67,1.31c-1.86,2.72-3.59,5.54-5.69,8.09a30.59,30.59,0,0,1-8.72,7.21c-1.48.83-2.08.77-3.28-.44C80.69,89.6,76,84.94,71.51,80.12a13.17,13.17,0,0,0-5.27-3.52c-4.26-1.56-8.58-2.87-12.95-4-2.61-.7-5.28-1.19-7.92-1.79a1.78,1.78,0,0,0-1.37.31,45.26,45.26,0,0,1-7.54,4,19.89,19.89,0,0,1-7.77,1.52c-1.2-.06-2.28-.32-2.82-1.52A2.89,2.89,0,0,1,27,71.94c.38-.32.84-.53,1.2-.86S29.14,70.71,29.48,70ZM13,28.17a11.11,11.11,0,0,1,1.38,2.27c.62,1.75-.44,3-2.05,2.67a.26.26,0,0,0-.35.18c.36.31.71.65,1.11.94q7.64,5.58,15.28,11.15c2.9,2.11,5.83,4.19,8.75,6.29.44.31.93.58,1,1.18a2.52,2.52,0,0,1-1.59,1.07A24.57,24.57,0,0,1,24.3,55.18a8.15,8.15,0,0,1-4.67-2c-1.07-1.08-1.75-2.23-.81-3.92-1.76-.36-3.37-.75-5-1s-3.3-.74-5.06-.38c.89,1.5,1.17,2.21-.27,3.15.15.23.39.28.61.39,1.82.89,3.81,1.33,5.69,2.05q8.81,3.38,17.46,7.12c1.49.65,3,1.24,4.46,2,.59.28,1.45.46,1.38,1.54a3,3,0,0,1-1.71-.4c-.67-.4-1.41-.69-2.11-1a1.26,1.26,0,0,0-1.12-.08,45.73,45.73,0,0,1-8.2,2.35c-1.13.21-2.27.35-3.61.59,1.06.94.65,1.81.22,2.76a16.78,16.78,0,0,0,4.2.34,82.35,82.35,0,0,1,16.39.4,83.43,83.43,0,0,1,12,2.4,107.78,107.78,0,0,1,12.77,4.09c1.71.69,3.51,1.21,4.86,2.67,4,4.39,8.37,8.47,12.4,12.86a24.78,24.78,0,0,0,3,3,27.81,27.81,0,0,0,9.36-7.68c1.85-2.31,3.48-4.77,5.18-7.19a2.92,2.92,0,0,0,.73-1.43,5.63,5.63,0,0,0-.4-.43c-4.76-4-9.52-7.9-14.26-11.87-1.17-1-2.28-2-3.38-3.07a2.14,2.14,0,0,1-.84-1.5,40.25,40.25,0,0,0-.87-6.27,52.28,52.28,0,0,0-4-12.61c-2.08-4.51-4.31-8.95-6.39-13.45-1.42-3.07-3.06-6-4.66-9.18a2.48,2.48,0,0,1-2.64.63c-1-.28-1.38-1.28-2.15-1.79-.36.31-.27.62-.3.91A21.57,21.57,0,0,0,63.14,26c1,4.5,2.25,9,3,13.52A2.66,2.66,0,0,1,65.57,42c-.7.71-1.54.39-2.35.08a25,25,0,0,1-5.65-3.16C51.94,34.81,46.44,30.58,41.19,26A104.24,104.24,0,0,0,31.44,18a10.22,10.22,0,0,0-2.88-1.44c1.52,2.93,1.27,3.69-1.43,4.5A9.3,9.3,0,0,0,28.72,23c4.51,4.6,9.18,9,13.84,13.49,1.75,1.66,3.41,3.41,5.1,5.13.37.37.85.75.48,1.41-.77,0-1.55-.05-2.33,0a31.42,31.42,0,0,1-11.24-1.3A20.13,20.13,0,0,1,27,38.15a5.07,5.07,0,0,1-2.12-2.92c-.1-.56-.51-.69-.87-.91-2-1.25-4-2.48-6-3.71A23.78,23.78,0,0,0,13,28.17ZM48,21.85c1.5,9.14,9.76,17.46,16.72,19.21a1.41,1.41,0,0,0,.4-1.48c-.45-2.21-.91-4.43-1.46-6.62a1.59,1.59,0,0,0-.84-1.12,36.21,36.21,0,0,1-9.13-7.64c-.36-.39-.61-.9-1.26-1.13C50.64,24.08,49.33,23,48,21.85Zm53.51,51.81A14.52,14.52,0,0,0,103,69.31l-3.58-2.2A71.4,71.4,0,0,1,89.5,60,11.35,11.35,0,0,1,86,54.35a37.33,37.33,0,0,0-2.82-7.42c-.29-.57-.66-1.1-1-1.64a5.87,5.87,0,0,0-1.23-1.55c0,.23-.07.34,0,.42A55.39,55.39,0,0,1,84.8,59.39a2.64,2.64,0,0,0,1.08,1.94c4.26,3.39,8.48,6.84,12.73,10.25A16.84,16.84,0,0,0,101.48,73.66ZM46,41.67c-1.89-2-3.74-3.73-5.54-5.46a3.14,3.14,0,0,0-2.1-.9c-2.65-.18-5.27-.64-7.89-1A20.35,20.35,0,0,0,27,34.1c-1,0-1.2.57-.7,1.39a4.54,4.54,0,0,0,.66.79,11.65,11.65,0,0,0,3.62,2.51,38,38,0,0,0,10.05,2.8A19,19,0,0,0,46,41.67ZM36.08,52.39l-6.17-4.3A1.08,1.08,0,0,0,28.8,48a33.89,33.89,0,0,1-7.19,1.55,3.6,3.6,0,0,0-1.27.35c-1,.53-1.1,1-.4,1.84a5.77,5.77,0,0,0,3.12,1.85,18.74,18.74,0,0,0,10.34-.22A6.18,6.18,0,0,0,36.08,52.39Zm-5,9.34c0-.08,0-.15-.07-.16a48.54,48.54,0,0,0-7.22-3.21,1,1,0,0,0-.84.06,42,42,0,0,1-4.35,1.74,8.28,8.28,0,0,0-2.87,1.45,1,1,0,0,0-.06,1.61,2.19,2.19,0,0,0,.88.51,10.77,10.77,0,0,0,4.77.69,28.08,28.08,0,0,0,7.73-1.7C29.78,62.5,30.66,62.47,31.12,61.73ZM42.24,70.5c-.3-.36-.72-.27-1.09-.3-2.26-.15-4.52-.23-6.77-.44a3.25,3.25,0,0,0-2.82.81,14.9,14.9,0,0,1-2.09,1.34,8,8,0,0,0-1.75,1.32c-.33.35-.75.74-.53,1.28a1.37,1.37,0,0,0,1.19.73,9.24,9.24,0,0,0,1.18.05,18.25,18.25,0,0,0,4.33-.79A29.5,29.5,0,0,0,41,71.44C41.46,71.19,42.06,71.12,42.24,70.5Zm21.6-55.06a3.38,3.38,0,0,0,1.13,3c.33.33.74.59,1.18.37a1,1,0,0,0,.37-1.3,4.8,4.8,0,0,0-1.4-2A1,1,0,0,0,63.84,15.44ZM11.32,28.34c-.89,1-1,1.55-.61,2.23a2.11,2.11,0,0,0,2.54,1C13.29,30.15,13.07,29.76,11.32,28.34ZM28.2,19.26c.2-1.13-.51-1.77-1.09-2.47-.2-.24-.39-.43-.73-.36s-.53.4-.61.74a1.39,1.39,0,0,0,.43,1.46C26.73,19.07,27.24,19.72,28.2,19.26Zm20.31,0c.17,2.05,1.53,3.16,3.29,2.81C50.94,20.93,50.26,19.65,48.51,19.3ZM8.3,49.77c0-1.08-.81-1.32-1.55-1.57a.58.58,0,0,0-.76.27.68.68,0,0,0,.14.82A2,2,0,0,0,8.3,49.77ZM20.9,66.68a5,5,0,0,0-2.9-.22C19,67.73,19.69,67.79,20.9,66.68Z"/><path class="cls-3" d="M97.41,57.58a4.64,4.64,0,0,1-4.58,4.82,4.92,4.92,0,0,1-5-4.89,4.76,4.76,0,0,1,4.69-4.74A5,5,0,0,1,97.41,57.58Z"/><path class="cls-3" d="M32.82,23.75a4.53,4.53,0,0,1-4.35-4.11c-.12-2.53,1.94-3.84,3.9-4s4.18,2.11,4.17,4.28A3.94,3.94,0,0,1,32.82,23.75Z"/><path class="cls-3" d="M53.6,91a4.28,4.28,0,0,1-4.09,4.14A4,4,0,0,1,45.75,91a3.79,3.79,0,0,1,3.86-3.9A3.94,3.94,0,0,1,53.6,91Z"/><path class="cls-3" d="M87.87,48a4,4,0,0,1-4.09-3.84,4.09,4.09,0,0,1,4-4.09,4.15,4.15,0,0,1,3.83,4C91.52,46.23,90.07,48.05,87.87,48Z"/><path class="cls-3" d="M43.52,88a3.69,3.69,0,0,1-3.73,3.75,3.58,3.58,0,0,1-3.31-3.94A3.45,3.45,0,0,1,40,84.17C42.22,84.17,43.55,85.65,43.52,88Z"/><path class="cls-3" d="M26.1,9.33a2.64,2.64,0,0,1,2.71-2.59,2.55,2.55,0,0,1,2.41,2.51A3,3,0,0,1,28.55,12,2.65,2.65,0,0,1,26.1,9.33Z"/><path class="cls-3" d="M41,97.75A2.34,2.34,0,0,1,43.49,100a2.4,2.4,0,0,1-4.79.32A2.41,2.41,0,0,1,41,97.75Z"/></g></g></svg>