<svg xmlns="http://www.w3.org/2000/svg" viewBox="0 0 109.26 109.26"><defs><style>.cls-1{fill:#f0fcff;}.cls-2{fill:#79cce2;}.cls-3{fill:#203b3f;}</style></defs><title>cucitangan3</title><g id="Layer_2" data-name="Layer 2"><g id="OBJECTS"><circle class="cls-1" cx="54.63" cy="54.63" r="54.63" transform="translate(-22.63 54.63) rotate(-45)"/><path class="cls-2" d="M71,42.33a4.79,4.79,0,0,1,2.22,2.36,7.61,7.61,0,0,1,.76,5,14.21,14.21,0,0,1-.5,2.74,1.5,1.5,0,0,1-.27.5c-1.3,1.17-1.34,2.79-1.54,4.35A6.5,6.5,0,0,1,67.07,63c-1.49.53-3.07.78-4.61,1.17-.81.21-1.8-.27-2.71-.44C59.93,62.52,69.49,44.31,71,42.33Z"/><path class="cls-2" d="M50.82,63.94a4.28,4.28,0,0,1-4.3,4.29,4.64,4.64,0,0,1-4.45-4.56,4.23,4.23,0,0,1,4.28-4.26A4.71,4.71,0,0,1,50.82,63.94Z"/><path class="cls-2" d="M18.67,56.82A4.43,4.43,0,0,1,23,61.11a4,4,0,0,1-4.1,4.11,4.24,4.24,0,0,1-4.24-4.44A4.1,4.1,0,0,1,18.67,56.82Z"/><path class="cls-2" d="M82.73,43.19a4.13,4.13,0,0,1-4.2-4.07,4.05,4.05,0,0,1,4.16-4.24A4.36,4.36,0,0,1,87,38.94,4.36,4.36,0,0,1,82.73,43.19Z"/><path class="cls-2" d="M48.08,73.45A3.29,3.29,0,0,1,44.87,77c-2.09-.08-3.1-1.26-3.25-3.33a3.42,3.42,0,0,1,3.56-3.36A3.06,3.06,0,0,1,48.08,73.45Z"/><path class="cls-2" d="M58.08,82.84c-.29-1.62,1.53-3.27,3-3.2a3.37,3.37,0,0,1,3.19,3.29,3.09,3.09,0,0,1-3.15,3.25A3.12,3.12,0,0,1,58.08,82.84Z"/><path class="cls-2" d="M82.15,30.13A2.48,2.48,0,0,1,80,32.38a1.92,1.92,0,0,1-1.87-2,2,2,0,1,1,4-.22Z"/><path class="cls-3" d="M29.59,53.94c-1.13-.19-2.19-.38-3.24-.53a49.67,49.67,0,0,1-6.64-1.2,6.35,6.35,0,0,1-2.12-1.08,2.57,2.57,0,0,1-1.13-2.82,2.88,2.88,0,0,1,2.11-2.24,13.21,13.21,0,0,1,5.58-.47c1.68.25,3.37.24,5.31.5a8.09,8.09,0,0,0-2.86-1.21c-3.36-1.19-6.76-2.26-10.11-3.47a28.47,28.47,0,0,1-6.14-2.77,10.63,10.63,0,0,1-2.18-1.77A2.37,2.37,0,0,1,9,33.11a7.27,7.27,0,0,1,4.82-.35,86.42,86.42,0,0,1,12.12,3.58q3.2,1.08,6.41,2.1a3.47,3.47,0,0,0,1.66.28,1.23,1.23,0,0,0,.41-1c-3.47-2.69-7.18-5-10.86-7.44-2.55-1.66-5.17-3.2-7.58-5.06a27.32,27.32,0,0,1-3.73-3.4,10.05,10.05,0,0,1-.69-.89,3.23,3.23,0,0,1-.36-3.7c.72-1.24,2-1.4,3.35-1.26a12.62,12.62,0,0,1,4.61,1.61c6.07,3.22,12,6.69,17.92,10.18,1.07.64,2.19,1.21,3.32,1.83A1.86,1.86,0,0,0,40,27q-5.79-5.94-11.48-12a24.76,24.76,0,0,1-3.74-4.89,5.9,5.9,0,0,1-.63-2.29A1.61,1.61,0,0,1,25.74,6a5.25,5.25,0,0,1,4,1.4c2.06,1.63,4.07,3.32,6.09,5,3.62,3,7.39,5.89,11.21,8.67,3.17,2.32,6.44,4.5,9.55,6.91a5,5,0,0,0,.7.42,4.7,4.7,0,0,1,1.78-.4c-.16-1.29-.22-2.5-.48-3.67-.6-2.75-1.37-5.46-1.93-8.21-.43-2.15-.94-4.32-.24-6.53a10.92,10.92,0,0,1,.7-1.69,2.29,2.29,0,0,1,4-.1c.79,1.44,1.46,2.93,2.13,4.42C65,16.05,67,19.76,68.94,23.52c1.7,3.39,3.47,6.74,5.23,10.1a33.36,33.36,0,0,1,2.41,7.61c1.15,4.67,3,9,6.87,12.12,3,2.42,6.08,4.72,9.07,7.14s6.14,5.06,9.14,7.66c1,.86,1,.88.34,2.12a35.93,35.93,0,0,1-5.49,7.62,46,46,0,0,1-8.16,7.23c-.16.11-.32.2-.47.31-1.63,1.12-1.71,1.14-3-.25-3.1-3.2-6.34-6.25-9.61-9.27C73.16,74,71,72.21,68.79,70.47c-.59-.48-.92-.46-1.55,0-5.49,4-10.91,8.06-16.34,12.12a27.36,27.36,0,0,1-10.36,4.84,6.72,6.72,0,0,0-3.85,2.4c-3.15,3.91-6.09,8-8.91,12.13-.18.27-.38.53-.55.81-.36.59-.78.67-1.42.36-6.06-3-11.87-6.28-16.73-11a21.65,21.65,0,0,1-1.72-1.86c-.77-1-.74-1.3.2-2.11,2-1.72,4-3.4,6-5.11a60.58,60.58,0,0,0,7.7-8,5.4,5.4,0,0,0,.8-2.08c.54-2,1-4,1.56-6a47.64,47.64,0,0,1,5.45-11.84A2.65,2.65,0,0,0,29.59,53.94Zm-3.48,48a4.82,4.82,0,0,0,1-1.39c2.64-3.92,5.35-7.81,8.37-11.47a8.22,8.22,0,0,1,4.54-2.86,28.51,28.51,0,0,0,10.23-4.8c3.19-2.36,6.31-4.83,9.5-7.21,2-1.51,4.09-3,6.11-4.4-.23-2.59,1.37-4,3.4-5.23a4.7,4.7,0,0,0-1.68-.31,11.13,11.13,0,0,0-4.51,1C61,66.08,59,67.1,57,68.07a2.11,2.11,0,0,1-2.11.23,1.62,1.62,0,0,1,.26-1.36c1.28-2.34,2.47-4.73,3.82-7,3.09-5.25,6.27-10.45,9.38-15.69a10.26,10.26,0,0,0,1.68-4,2.82,2.82,0,0,1-2.25.46c-.84-.28-1.08-1.07-1.53-2.09a6.45,6.45,0,0,1-.38.72c-1.93,2.54-3.82,5.1-5.53,7.79-1.45,2.3-2.84,4.63-4.26,7-.29.47-.51,1-1.22.9-.52-.53-.15-1,.09-1.42a114.93,114.93,0,0,1,11-16.33A21.75,21.75,0,0,0,68,33.45c.08-.14.07-.36-.22-.46-1,.79-2.12,1.48-3.4.58-1.09-.76-.93-1.88-.46-3.06a5,5,0,0,0-2.23,1.67c-1.12,1.44-2.13,3-3.13,4.49-3,4.61-5.91,9.35-8.8,14.06-.29.46-.49,1.27-1.17.86s-.1-1.05.18-1.49c3.49-5.55,6.61-11.33,10.49-16.64.28-.39.73-.77.5-1.37-2,.63-2.58.25-2.93-2.12a21.28,21.28,0,0,0-2.8,2.82,106.4,106.4,0,0,0-9,12.06c-1,1.56-2.16,3.07-3.24,4.61-.28.4-.54.81-1.25.28,2-3.18,4.28-6.16,6.09-9.51-2.13-.17-2.24-.3-2.78-3.26-.38.36-.72.66-1,1-2,2.17-3.78,4.54-5.57,6.9-2.41,3.17-4.56,6.53-6.71,9.88A47.54,47.54,0,0,0,24.74,67.3c-.54,1.89-1,3.81-1.54,5.7a8.31,8.31,0,0,1-1.38,3.2c-1.15,1.35-2.28,2.73-3.54,4-2.54,2.57-5.32,4.88-8.09,7.2a9.57,9.57,0,0,0-2,1.84C13.32,94.75,19.55,98.59,26.11,102ZM58.05,9a.82.82,0,0,0-.45.64c-.64,2.06-.2,4.08.22,6.1.74,3.58,2,7,2.12,10.75,0,.58,0,1.35.49,1.7A5.13,5.13,0,0,1,62,30.34c.54-.32,1-.59,1.48-.89a5.91,5.91,0,0,1,1.8-.76,3.3,3.3,0,0,1,3.89,3.08,7,7,0,0,1-.78,3.52c.29,0,.48,0,.66.07a2.46,2.46,0,0,1,2.4,2.3,7.18,7.18,0,0,1-.37,3.73A90.86,90.86,0,0,1,66.69,50c-2.22,4.29-4.53,8.52-6.79,12.78-.13.26-.4.56-.09,1a4.52,4.52,0,0,1,1.19.18,4,4,0,0,0,3.11-.23,10,10,0,0,1,3.75-.52c1.21,0,2.44.23,3,1.44s-.2,2.23-.86,3.22c-.3.45-.9.7-.94,1.34A182.33,182.33,0,0,1,86.35,85a47.12,47.12,0,0,0,14.79-15.66c-5-4.29-10-8.28-15.11-12.2a33.75,33.75,0,0,1-5.92-5.4,25.56,25.56,0,0,1-4.7-10.41,29.23,29.23,0,0,0-2.24-6.93c-3.12-6-6.27-11.93-9.24-18-.68-1.38-1.35-2.77-2-4.12C59.62,12.34,58.93,10.6,58.05,9ZM56.13,29c-4.8-3.47-9.44-6.78-14-10.14s-8.89-7.28-13.56-11c0,.86.08,1.48-.36,2s-1.21.29-1.92.48a17.32,17.32,0,0,0,2.34,3c4.08,4.34,8.12,8.71,12.31,12.93a3,3,0,0,1,.65,3.62c-.3.81-.71,1-1.53.69a25.84,25.84,0,0,1-2.63-1.32C33.19,26.87,29,24.4,24.77,22a81.67,81.67,0,0,0-8.43-4.45,1.72,1.72,0,0,0-1.52-.15c.67.74,1.35,1.45,1,2.41-.5,1.19-1.68.89-2.85.91a7.29,7.29,0,0,0,.51.69A27.37,27.37,0,0,0,17,24.58c1.73,1.19,3.49,2.35,5.23,3.52L34.8,36.56c.81.55,1,1.29.48,2.36s-.5,1.14-1.81.89c-.37-.08-.75-.13-1.1-.24-4-1.32-8.11-2.62-12.15-4a51,51,0,0,0-7.49-1.87,4.09,4.09,0,0,0-1.7,0c2,1.83,2,2.58,0,4a9,9,0,0,0,1.69,1,81.53,81.53,0,0,0,9,3.31c3.66,1.2,7.28,2.48,10.89,3.79.61.22,1.12.48,1.16,1.19-.32.51-.8.46-1.27.49a18.4,18.4,0,0,1-2.09-.28c-2.25-.12-4.5-.3-6.75-.39a16.2,16.2,0,0,0-4.65.42c.88.52,1.64.83,2,1.59.46,1-.16,1.56-.94,2.25,3.55.86,7,1.26,10.39,1.78.27-.4.49-.7.69-1a124.27,124.27,0,0,1,9.79-13.38,21.85,21.85,0,0,1,2.61-2.75c1.63-1.32,4.51-1.71,5.55.86,0,.05.14.07.27.14A70.8,70.8,0,0,1,56.13,29Zm10.46.72a3,3,0,0,0-1.77,1.78.93.93,0,0,0,.25,1.13.9.9,0,0,0,1.14.15A4.78,4.78,0,0,0,68,31.08,2.31,2.31,0,0,0,66.59,29.73ZM48,37.2a1.25,1.25,0,0,0-.74-1.2c-.51-.27-.87.08-1.21.42a2.85,2.85,0,0,0-.77,1.45A.91.91,0,0,0,46,39,2.39,2.39,0,0,0,48,37.2ZM67.7,38.94a.82.82,0,0,0,.46.66.83.83,0,0,0,1-.16,5.68,5.68,0,0,0,1-1.14,1.33,1.33,0,0,0-.6-1.67c-.63-.36-1,.1-1.25.5A3,3,0,0,0,67.7,38.94Zm-11.18,28a21.64,21.64,0,0,0,3.53-1.82l-2.22-.56A12.82,12.82,0,0,0,56.52,66.91Zm4-36.94c-.28-.69-.72-.95-1.35-.76s-1,1.06-.84,2.12C59.42,31.47,59.85,30.58,60.49,30ZM12.76,17.41c-.62.33-.86.74-.52,1.3a2.06,2.06,0,0,0,2.43.72C14.48,18.58,14.48,18.58,12.76,17.41ZM59.39,7.87a3,3,0,0,0,2.15,3.4C60.87,10.06,60.75,8.71,59.39,7.87ZM9.24,34.45c-.72,1-.7,1.15.19,1.57,1.17.55,1.34.53,2-.28A4.3,4.3,0,0,0,9.24,34.45ZM20.11,49.61c-.45-1.06-1.34-1.19-2.28-1.31-.27.44-.39.84,0,1.17A1.88,1.88,0,0,0,20.11,49.61ZM27.67,8.94A5.23,5.23,0,0,0,26.5,7.43c-.26-.25-.57-.4-.88-.16a.68.68,0,0,0-.06,1A1.67,1.67,0,0,0,27.67,8.94ZM67.34,68.53c.7-.67,1.76-1.09,2-2.39A3.57,3.57,0,0,0,67.34,68.53Z"/></g></g></svg>