<svg xmlns="http://www.w3.org/2000/svg" viewBox="0 0 109.26 109.26"><defs><style>.cls-1{fill:#f0fcff;}.cls-2{fill:#203b3f;}</style></defs><title>cucitangan8</title><g id="Layer_2" data-name="Layer 2"><g id="OBJECTS"><path class="cls-1" d="M109.26,54.63a54.66,54.66,0,0,1-37.05,51.74l-1,.31a54.31,54.31,0,0,1-16.61,2.58,53.31,53.31,0,0,1-6.1-.35c-.47,0-.93-.1-1.4-.17A53.17,53.17,0,0,1,38,106.68l-1-.31a54.64,54.64,0,1,1,72.21-51.74Z"/><path class="cls-2" d="M96.4,49.35c-.07,0-.15-.09-.28-.17a71.77,71.77,0,0,0,3.31-9.83,5.33,5.33,0,0,0,.08-1.49l0-.23A3,3,0,0,0,99,36.3a4.88,4.88,0,0,0-1-1.11,5,5,0,0,0-2.69-.31c0-.64,0-1.19,0-1.76a6.18,6.18,0,0,0-.25-2,3.35,3.35,0,0,0-4.67-1.83,7.15,7.15,0,0,0-2.68,2.48l-.39-.55a2.5,2.5,0,0,0-3.24-.92A7.22,7.22,0,0,0,81,32.56,93.71,93.71,0,0,0,75.7,40.8a114.54,114.54,0,0,0-6.39,11.67l-1.8,3.46a12.79,12.79,0,0,1-1.41,2.36,22.31,22.31,0,0,1-.21-4A24.81,24.81,0,0,0,65.05,50a10.06,10.06,0,0,0-1.45-3.53c-.63-1-1.44-2-2.79-1.9S59,45.9,58.44,47l-.89,3.74c-.7,6.83-1.51,13.64-2.3,20.45a27.73,27.73,0,0,0,1,11.52,6.8,6.8,0,0,1-.14,4.58c-.34.88-.86,2.19-1.52,3.78-.24.58-.49,1.2-.76,1.84-2,4.8-4.69,11.16-6.74,15.85.47.07.93.13,1.4.17,1.83-4.14,4.22-9.7,6.1-14.2.26-.63.51-1.24.76-1.82.88-2.13,1.58-3.9,2-5a8.33,8.33,0,0,0,.18-5.42,29.23,29.23,0,0,1-1-11.39c.45-4,1-8,1.48-12,.29-2.53.49-5.07.74-7.57,2.37-1.12,2.76-3.22,2.84-5.64a4.55,4.55,0,0,1,1.11,1.31,11.19,11.19,0,0,1,1.48,4.42c.34,2.25.46,4.52.64,6.78.07.76.12,1.52.88,2a1.68,1.68,0,0,0,1.06-.92c1.4-2.31,2.88-4.57,4.2-6.92,3-5.37,6-10.79,9-16.17a10.28,10.28,0,0,1,2.6-3.48,2.84,2.84,0,0,0,.75,2.19c.67.6,1.47.41,2.6.28-.23.37-.36.52-.44.7-1.23,3-2.52,5.93-4,8.79-1.27,2.44-2.6,4.85-3.91,7.26-.25.5-.64,1-.16,1.53.73.18.95-.38,1.2-.81A114.89,114.89,0,0,0,87.27,35a23.25,23.25,0,0,1,2.23-3.79.32.32,0,0,1,.51,0c-.18,1.29-.21,2.62,1.23,3.27,1.21.57,2.12-.14,2.91-1.15a5.2,5.2,0,0,1-.32,2.8c-.7,1.71-1.52,3.37-2.34,5C89,46.12,86.32,51,83.67,56c-.25.48-.86,1.07-.15,1.45s1-.45,1.2-.91c3.09-5.88,6.55-11.55,9.22-17.64.19-.44.3-1,1-1.13.46,2.08,1.08,2.39,3.34,1.49a23.22,23.22,0,0,1-1,3.88,108.87,108.87,0,0,1-6,14c-.83,1.71-1.58,3.45-2.38,5.17-.21.45-.43.89.4,1.24,1.77-3.35,3.2-6.88,5.21-10.16,1.23,1.77,1.4,1.8,4.27.77-.13.52-.21,1-.35,1.39-.88,2.87-2,5.62-3.2,8.38-1.55,3.73-3.38,7.31-5.22,10.89a47.93,47.93,0,0,1-8,11.52c-1.37,1.44-2.84,2.79-4.19,4.24a8.38,8.38,0,0,0-2.1,2.84C75,95,74.4,96.72,73.94,98.47c-.37,1.34-1.45,4.55-2.7,8.21l1-.31C74,101,76.18,95.21,77,93.22a5.45,5.45,0,0,1,1.41-1.75c1.47-1.49,3-2.91,4.44-4.41a48.54,48.54,0,0,0,7.57-10.79l1.27-2.35.52-1.12a122.53,122.53,0,0,0,6.72-15.36A21.18,21.18,0,0,0,100,53.77C100.29,51.66,99.16,49,96.4,49.35Zm-37.22.3c.24-1,.06-2.09,1.07-3A3.58,3.58,0,0,1,59.18,49.65ZM86.12,32.82a3,3,0,0,1-1.26,1.48.88.88,0,0,1-.81-.07.86.86,0,0,1-.38-1,6.78,6.78,0,0,1,.49-1.46,1.36,1.36,0,0,1,1.77-.32C86.57,31.84,86.33,32.36,86.12,32.82Zm6.71.22a1,1,0,0,1-1.12.35.93.93,0,0,1-.71-.92,4.84,4.84,0,0,1,.61-2.4,2.33,2.33,0,0,1,1.87.51A3.17,3.17,0,0,1,92.83,33Zm3.47,5.6c-.7-.91-.13-1.74.08-2.61.74-.11,1.2.14,1.35.79S97.32,38.25,96.3,38.64ZM98.09,52a2.88,2.88,0,0,1-.87,1.41.93.93,0,0,1-1.38,0,2.41,2.41,0,0,1,.58-2.67,1.25,1.25,0,0,1,1.43,0C98.34,51,98.22,51.49,98.09,52ZM53.87,92.89c-2,4.8-4.69,11.16-6.74,15.85.47.07.93.13,1.4.17,1.83-4.14,4.22-9.7,6.1-14.2C54.36,94.08,54.11,93.47,53.87,92.89Z"/><path class="cls-2" d="M54.63,91.05c-.66-1.59-1.18-2.9-1.52-3.78A6.68,6.68,0,0,1,53,82.69a27.56,27.56,0,0,0,1-11.52c-.79-6.81-1.59-13.62-2.29-20.45L50.82,47c-.53-1.08-1-2.26-2.37-2.4s-2.16.85-2.79,1.9A10.06,10.06,0,0,0,44.21,50a25.61,25.61,0,0,0-.85,4.26,22.31,22.31,0,0,1-.21,4,12.79,12.79,0,0,1-1.41-2.36l-1.8-3.46A112.62,112.62,0,0,0,33.55,40.8a91.46,91.46,0,0,0-5.29-8.24,7.25,7.25,0,0,0-3.06-2.22,2.49,2.49,0,0,0-3.24.92l-.39.55a7.11,7.11,0,0,0-2.69-2.48,3.35,3.35,0,0,0-4.67,1.83,6.18,6.18,0,0,0-.25,2c0,.57,0,1.12,0,1.76a5,5,0,0,0-2.7.31,4.92,4.92,0,0,0-1,1.11,3,3,0,0,0-.54,1.33l0,.23a4.93,4.93,0,0,0,.08,1.49,71.75,71.75,0,0,0,3.3,9.83c-.13.08-.21.18-.27.17C10.09,49,9,51.66,9.29,53.77a23.09,23.09,0,0,0,1.08,3.67A124,124,0,0,0,17.09,72.8c.17.34.32.68.53,1.12l1.26,2.35a48.58,48.58,0,0,0,7.58,10.79c1.44,1.5,3,2.92,4.43,4.41a5.35,5.35,0,0,1,1.42,1.75c.77,2,2.91,7.82,4.74,13.15l1,.31c-1.24-3.66-2.32-6.87-2.69-8.21-.47-1.75-1.09-3.44-1.69-5.13a8.65,8.65,0,0,0-2.1-2.84c-1.36-1.45-2.82-2.8-4.2-4.24a48.17,48.17,0,0,1-8-11.52c-1.84-3.58-3.68-7.16-5.23-10.89-1.15-2.76-2.31-5.51-3.2-8.38-.13-.43-.22-.87-.34-1.39,2.86,1,3,1,4.26-.77,2,3.28,3.44,6.81,5.22,10.16.83-.35.6-.79.39-1.24-.8-1.72-1.55-3.46-2.38-5.17a108.82,108.82,0,0,1-6-14,22.29,22.29,0,0,1-1-3.88c2.25.9,2.87.59,3.34-1.49.64.1.76.69,1,1.13C18,45,21.45,50.62,24.53,56.5c.25.46.57,1.25,1.21.91s.1-1-.16-1.45c-2.64-4.93-5.33-9.84-7.81-14.85-.83-1.65-1.65-3.31-2.34-5a5.1,5.1,0,0,1-.32-2.8c.79,1,1.69,1.72,2.91,1.15,1.44-.65,1.4-2,1.22-3.27a.31.31,0,0,1,.51,0A22.55,22.55,0,0,1,22,35a115.84,115.84,0,0,0,8.71,17.88c.25.43.46,1,1.2.81.47-.56.09-1-.17-1.53-1.3-2.41-2.63-4.82-3.9-7.26-1.49-2.86-2.77-5.82-4-8.79a7.56,7.56,0,0,0-.43-.7c1.12.13,1.93.32,2.6-.28a2.83,2.83,0,0,0,.74-2.19,10.18,10.18,0,0,1,2.61,3.48c3,5.38,5.93,10.8,9,16.17,1.32,2.35,2.8,4.61,4.2,6.92a1.69,1.69,0,0,0,1.05.92,2.17,2.17,0,0,0,.88-2c.18-2.26.31-4.53.66-6.78a11,11,0,0,1,1.46-4.42A4.78,4.78,0,0,1,47.65,46c.08,2.42.46,4.52,2.84,5.64.24,2.5.45,5,.74,7.57.46,4,1,8,1.47,12a29,29,0,0,1-1,11.39,8.33,8.33,0,0,0,.19,5.42c.39,1,1.1,2.82,2,5,.24.58.49,1.19.76,1.82.26-.63.51-1.24.76-1.82C55.11,92.25,54.86,91.63,54.63,91.05ZM13.42,53.32a.93.93,0,0,1-1.38,0A2.83,2.83,0,0,1,11.16,52c-.12-.47-.24-1,.25-1.27a1.25,1.25,0,0,1,1.43,0A2.45,2.45,0,0,1,13.42,53.32ZM13,38.64c-1-.39-1.59-1.11-1.43-1.82s.6-.9,1.35-.79C13.09,36.9,13.65,37.73,13,38.64Zm4.59-5.25A1,1,0,0,1,16.43,33a3.18,3.18,0,0,1-.66-2.46,2.34,2.34,0,0,1,1.88-.51,5,5,0,0,1,.61,2.4A.93.93,0,0,1,17.55,33.39Zm7.66.84a.9.9,0,0,1-.82.07,3.12,3.12,0,0,1-1.26-1.48c-.2-.46-.44-1,.2-1.35a1.36,1.36,0,0,1,1.77.32,6.75,6.75,0,0,1,.48,1.46A.86.86,0,0,1,25.21,34.23ZM49,46.68c1,.88.84,2,1.08,3A3.61,3.61,0,0,1,49,46.68Z"/></g></g></svg>