<svg xmlns="http://www.w3.org/2000/svg" viewBox="0 0 126.76 109.26"><defs><style>.cls-1{fill:#f0fcff;}.cls-2{fill:#79cce2;}.cls-3{fill:#203b3f;}</style></defs><title>cucitangan7</title><g id="Layer_2" data-name="Layer 2"><g id="OBJECTS"><circle class="cls-1" cx="63.38" cy="54.63" r="54.63" transform="translate(-20.06 60.82) rotate(-45)"/><path class="cls-2" d="M105.83,65.63a5.2,5.2,0,0,1-4.92-5.08A4.84,4.84,0,0,1,106,56a4.76,4.76,0,0,1,4.37,5A4.53,4.53,0,0,1,105.83,65.63Z"/><path class="cls-2" d="M29.87,38.52a3.8,3.8,0,0,1-3.82,4c-3-.11-5.1-1.58-5.15-4.26A4.38,4.38,0,0,1,25.3,34,4.64,4.64,0,0,1,29.87,38.52Z"/><path class="cls-2" d="M92.43,65a3.19,3.19,0,0,1-3.22-3.22,3.52,3.52,0,0,1,3.41-3.64,3.41,3.41,0,0,1,3.15,3.53A3.36,3.36,0,0,1,92.43,65Z"/><path class="cls-2" d="M109.19,70a2.43,2.43,0,0,1-4.25,1.72,1.51,1.51,0,0,1-.29-2,3.22,3.22,0,0,0,.29-.55c.57-1.43,1.23-1.88,2.41-1.62A2.4,2.4,0,0,1,109.19,70Z"/><path class="cls-2" d="M17.8,40.08a2.28,2.28,0,0,1-2.29,2.31,2.19,2.19,0,0,1-2.21-2.21,2.34,2.34,0,0,1,2.31-2.33A2.2,2.2,0,0,1,17.8,40.08Z"/><path class="cls-3" d="M14.1,85c-.54.38-.12.12,0,0Z"/><path class="cls-3" d="M.48,58.8A73.39,73.39,0,0,0,5.4,74,74.31,74.31,0,0,0,11,84.69C11.9,86,12,86,13.3,85.31c.82-.42.9-.42.8-.33l.47-.32c5.2-3.53,10.44-7,15.94-10a11,11,0,0,1,4.73-1.71,21.9,21.9,0,0,1,5.24.32,62.49,62.49,0,0,0,8.31,1A40.92,40.92,0,0,0,62,71.31a3.09,3.09,0,0,1,2.59,0,17.77,17.77,0,0,0,5.8,1.56,62.12,62.12,0,0,0,16.34-.76,41.18,41.18,0,0,0,4.7-.8,7.32,7.32,0,0,1,6.86,1.25c4.5,3.32,8.86,6.83,13.28,10.25a24,24,0,0,0,2.13,1.63c1.15.83,1.86.7,2.7-.4A22.31,22.31,0,0,0,118,81.71a93.71,93.71,0,0,0,7.4-16.48,31.21,31.21,0,0,0,1.33-5.39c.21-1.3,0-1.64-1.24-2.29-2.36-1.21-.92-.39-3.28-1.59a66.76,66.76,0,0,1-17.51-12.81q-8.64-8.76-18-16.72a11.19,11.19,0,0,0-10.75-2.49c-1.64.41-3.34.63-5,.88-2.89.43-5.8.61-8.7.92a16.57,16.57,0,0,0-5,.91C56.39,27,55.84,27.71,55,28c-3.43,1.08-6.71,2.56-10,3.89a24.31,24.31,0,0,0-11.78,9,14.71,14.71,0,0,1-7.34,5.58,140.79,140.79,0,0,1-15.09,4.39S1,52.26.39,53.28C-.53,54.75.48,58.8.48,58.8ZM60.12,27.46c-.53,1.52-1.6,2-4.15,1.86A6.41,6.41,0,0,1,60.12,27.46Zm-58.55,28c0-1.22,4.8-1.94,4.8-1.94l16.7-4.56a31.73,31.73,0,0,0,5.64-2.13A13.81,13.81,0,0,0,34.14,42a23,23,0,0,1,11.61-8.94c2.51-1,5-2,7.5-3a7.38,7.38,0,0,1,1-.27,4.79,4.79,0,0,0,3.11,3.65,17.06,17.06,0,0,0-4.65,1.66,8.18,8.18,0,0,0-4.12,4.8,4.92,4.92,0,0,0,.8,4.35c.19.3.56.5.58,1,0,.07-.07.25-.18.33a4.46,4.46,0,0,0-1.75,4.8c.62,3.18-.7,5.68-2.59,8A21.64,21.64,0,0,1,41,62.18c-.5.36-1.09.66-1.17,1.4,2,.18,7.08-3.61,10.51-7.75a3.74,3.74,0,0,1,2.36,2.64c.46,1.88,2.06,3,3.75,3.9.94.47,1.92.88,3,1.35-1.11,2.66,1,4.15,2.21,6-.72.88-1.78.83-2.64,1.09a32.26,32.26,0,0,1-7.45,1.6A45.33,45.33,0,0,1,42,72c-2.61-.39-5.24-.86-7.91-.34a16.14,16.14,0,0,0-4.41,1.73,153.44,153.44,0,0,0-16.1,10.1l-.69.48-.27.18c-.9-.28-1.06-1.06-1.37-1.62A83.06,83.06,0,0,1,3.66,65.23a66.82,66.82,0,0,1-1.83-7.89A5.8,5.8,0,0,1,1.57,55.44ZM115.08,83.49a17.29,17.29,0,0,1-3-2c-5.85-4.43-7.58-6.4-13.64-10.56a13.76,13.76,0,0,0-2.32-1.35,3.08,3.08,0,0,0-1.71-.2c-3.09.49-6.18,1-9.27,1.5a55.35,55.35,0,0,1-14,.68,19.62,19.62,0,0,1-6.41-1.73,9.17,9.17,0,0,1-3.65-3.44c-.71-1.07-.3-1.86,1-2,1-.1,2,0,3-.09,1.69-.07,3.39-.13,5.09-.23a2.56,2.56,0,0,0,1.94-.86c-.13-.77-.74-.87-1.32-.84-3.07.15-6.16-.16-9.21.39a1.68,1.68,0,0,1-.94,0C58.93,61.85,57,61.38,55.5,60a5.29,5.29,0,0,1-1.34-1.94,1.44,1.44,0,0,1,.93-2.15,8.92,8.92,0,0,1,3.12-.56c2.55-.07,5.1-.18,7.65-.19,1.07,0,2.09-.32,3.15-.4.38,0,.72-.22.71-.69A.63.63,0,0,0,69,53.4c-4.87.14-9.78-.44-14.57.92l-.2.12c-.76-.36-1.42-.69-2.09-1a4.88,4.88,0,0,1-2-1.8,3.35,3.35,0,0,1,1.92-5.32,13.79,13.79,0,0,1,2.64-.57c4-.45,8-1,12-1.42a2.14,2.14,0,0,0,1.74-.75,1.44,1.44,0,0,0-1.67-.77c-3.9.38-7.81.75-11.71,1.17-1.15.12-2.29.41-3.39.62-2.59-1.94-2.09-4.76-.4-6.51a11.69,11.69,0,0,1,6-3c2.94-.68,6-1,9-1.38a41,41,0,0,0,6.4-1.2c.54-.17,1-.29,1-1.07a3,3,0,0,0-2.28-.13c-3.63.48-7.24,1-10.86,1.57-1,.15-1.82-.42-2.71-.64a1.86,1.86,0,0,1-1.57-1.33c2.28-.47,4.92-.44,5.56-3.53,1.24-.15,2.44-.35,3.65-.43a89.68,89.68,0,0,0,12.1-1.83,7.75,7.75,0,0,1,7,1.6c4.77,4,9.61,8,14,12.4a143.94,143.94,0,0,0,12.91,12,61.78,61.78,0,0,0,9.52,6.05,17.74,17.74,0,0,0,3,1.53,7.75,7.75,0,0,1,1.21.75A76.51,76.51,0,0,1,115.08,83.49Z"/></g></g></svg>