<svg xmlns="http://www.w3.org/2000/svg" viewBox="0 0 109.26 113.07"><defs><style>.cls-1{fill:#f0fcff;}.cls-2{fill:#79cce2;}.cls-3{fill:#203b3f;}</style></defs><title>cucitangan6</title><g id="Layer_2" data-name="Layer 2"><g id="OBJECTS"><circle class="cls-1" cx="54.63" cy="56.54" r="54.63" transform="translate(-13.17 96.33) rotate(-76.39)"/><path class="cls-2" d="M84.31,45.46a4.62,4.62,0,0,1-4.69-4.67c.14-3.06,2.13-4.88,4.88-4.86A4.83,4.83,0,0,1,89.32,41C89.33,43.67,87.27,45.46,84.31,45.46Z"/><path class="cls-2" d="M42.75,72.18a3,3,0,0,1-3-3.05,3.51,3.51,0,0,1,3.58-3.24,3.32,3.32,0,0,1,3.12,3.19A3.63,3.63,0,0,1,42.75,72.18Z"/><path class="cls-2" d="M47.45,78.44a2.49,2.49,0,0,1-2.53,2.43,2.27,2.27,0,0,1-2.23-2.22A2.52,2.52,0,0,1,45,76.12,2.46,2.46,0,0,1,47.45,78.44Z"/><path class="cls-2" d="M81.82,30.77a2.38,2.38,0,0,1-2.42,2.34,2.49,2.49,0,0,1-2.29-2.35,2.63,2.63,0,0,1,2.39-2.45A2.45,2.45,0,0,1,81.82,30.77Z"/><path class="cls-3" d="M28.44,43.41c0-.41-.29-.59-.53-.8-4.14-3.75-8.19-7.62-12-11.67a76.7,76.7,0,0,1-7.69-9,17.63,17.63,0,0,1-1.76-3.14,3.89,3.89,0,0,1-.21-2.28,2.66,2.66,0,0,1,3-1.84A6.07,6.07,0,0,1,12,15.84a75.37,75.37,0,0,1,7.53,6.27c3.34,3,6.61,6.06,9.91,9.1.22.2.4.52.88.49a2.41,2.41,0,0,0-.85-1.18,136.73,136.73,0,0,1-11.86-13.8,48.58,48.58,0,0,1-4.7-7.6,6.25,6.25,0,0,1-.51-2.38,2.06,2.06,0,0,1,1.71-2.2,4.4,4.4,0,0,1,2.69.27,20.17,20.17,0,0,1,5.1,3.47l9.92,9.06c.2.18.31.5.77.4,0-.52-.39-.85-.63-1.21A110.72,110.72,0,0,1,26.3,7,8.63,8.63,0,0,1,25.11,2.7a2.46,2.46,0,0,1,3-2.69,5,5,0,0,1,2.86,1.25,33.94,33.94,0,0,1,4.18,4.38A215.83,215.83,0,0,0,53.27,24.77c.76.71,1.5,1.45,2.34,2.27a11,11,0,0,0,.71-4.34c.1-2.71.15-5.42.1-8.12A41.5,41.5,0,0,1,57,7.81a7.3,7.3,0,0,1,.87-2.43,2.64,2.64,0,0,1,4.82.08,13.5,13.5,0,0,1,1.27,4.27c.42,2.67.56,5.38,1.22,8a41.68,41.68,0,0,0,3.7,9.69A40.78,40.78,0,0,1,72.66,36a35.34,35.34,0,0,1,1.18,9.43,16.45,16.45,0,0,0,.41,4.89,6.35,6.35,0,0,0,1.6,2.77c1.36-1.42,2.85-2.47,4.85-1.62a4.23,4.23,0,0,1,2.75,4.12c.5.34.93.08,1.35.1A3.37,3.37,0,0,1,88,58.62c.13,1,.19,1.91.29,2.91A5,5,0,0,1,92.06,64a1.52,1.52,0,0,0,.77.59,2.83,2.83,0,0,1,1.59,1.92A13.25,13.25,0,0,1,95,70.75a1.84,1.84,0,0,0,.82,1.69c2.11,1.6,4.19,3.24,6.27,4.88,1.28,1,1.27,1.23.54,2.8-2.94,6.32-7.42,11.48-12.34,16.27a29.7,29.7,0,0,1-6.92,5.36c.3,3.06,1.22,6.09,1.17,9.2a14.78,14.78,0,0,1-4.82,1.26,55.67,55.67,0,0,1-11.39.84,56.33,56.33,0,0,1-8.5-.79,10.9,10.9,0,0,1-3.17-.94A1.19,1.19,0,0,1,56,109.8c1-4.41,1.79-8.88,2.57-13.33.13-.76.16-1.54.23-2.31a6.87,6.87,0,0,0-1.81-5.41,38.39,38.39,0,0,1-6.57-10.14,24.8,24.8,0,0,1-1.28-4.14,5.9,5.9,0,0,1,1.28-5.53c.34-.4.67-.81,1.08-1.33-1.56-.82-3.09-1.67-4.65-2.44A147.52,147.52,0,0,1,27.36,53.35a153.52,153.52,0,0,1-12.72-10,28.88,28.88,0,0,1-2.79-2.74,4.34,4.34,0,0,1-1.16-2.28,1.86,1.86,0,0,1,1.86-2.24,4.32,4.32,0,0,1,2.35.6C16.83,37.8,18.73,39,20.68,40a69.65,69.65,0,0,0,6.86,3.43C27.84,43.54,28.13,43.76,28.44,43.41ZM84,73.28a3,3,0,0,1-2.58-1.93A13.15,13.15,0,0,1,80,66.4,2.92,2.92,0,0,0,79,64a2.64,2.64,0,0,1-.71-1.23A27.6,27.6,0,0,1,77,58a7,7,0,0,0-2.06-4.3,7.16,7.16,0,0,1-2.31-5.57,69.72,69.72,0,0,0-.45-7.36,26.86,26.86,0,0,0-3.33-10.52A54.5,54.5,0,0,1,65,22.34,45.14,45.14,0,0,1,62.71,10.9,14.75,14.75,0,0,0,61.51,6a1.42,1.42,0,0,0-1.3-1c-.7,0-1,.46-1.37.92a2.08,2.08,0,0,0-.26.67,22.91,22.91,0,0,0-1,7.12c0,2.61-.07,5.22,0,7.83A24.21,24.21,0,0,1,55.4,31.65a19.94,19.94,0,0,0-1.63,11.14,23.9,23.9,0,0,0,2.81,8.57c.09.14,0,.28-.11.44-.51.23-.86-.09-1.15-.49a8.43,8.43,0,0,1-.66-1.12,23.17,23.17,0,0,1-2.07-7,20.5,20.5,0,0,1,.6-8.85A34,34,0,0,1,55,29.58a1.32,1.32,0,0,0-.4-1.76c-1.11-1-2.14-2.08-3.23-3.1A217.61,217.61,0,0,1,36,8.79c-1.67-1.92-3.22-3.95-5.05-5.73a6.8,6.8,0,0,0-2.31-1.69c-.6-.22-1.18-.5-1.76,0a1.83,1.83,0,0,0-.63,2.07,12.79,12.79,0,0,0,1,2.69,121.44,121.44,0,0,0,12,18.52c.4.54.61.93.08,1.49a2.21,2.21,0,0,1-.58-.17A11.87,11.87,0,0,1,36.55,24c-5-5-10.17-9.82-15.43-14.55a20.32,20.32,0,0,0-5.2-3.6A1.69,1.69,0,0,0,14,6c-.55.46-.31,1.07-.25,1.63a2.39,2.39,0,0,0,.29.81c.39.77.78,1.55,1.21,2.3,3.4,5.93,7.91,11,12.46,16a74.46,74.46,0,0,1,5,5.77,1.13,1.13,0,0,1,.09,1.55c-.4.54-.93.43-1.44.24A6,6,0,0,1,29.35,33c-1.55-1.39-3.07-2.8-4.61-4.19-3.95-3.6-7.9-7.2-12-10.66a20.14,20.14,0,0,0-2.57-1.85c-.84-.51-2.19-.54-2.58,0a2.09,2.09,0,0,0,.07,2.3,23.08,23.08,0,0,0,3.35,5A164.38,164.38,0,0,0,26.25,39.32c1,1,2,2,3,3a1.08,1.08,0,0,1,.44,1.14,1.61,1.61,0,0,1-2.33,1.18,33.22,33.22,0,0,1-4.85-2.23C19.82,41,17.24,39.53,14.7,38a3.87,3.87,0,0,0-2-.7c-.73,0-1.06.4-.92,1.11a3.07,3.07,0,0,0,.57,1.16,12.9,12.9,0,0,0,2.22,2.27c4,3.41,8.09,6.69,12.39,9.72A169.3,169.3,0,0,0,46.51,63.65a51.31,51.31,0,0,0,5.9,2.92,6.14,6.14,0,0,0,1.33-1.19A28.89,28.89,0,0,1,63.46,59a2.85,2.85,0,0,1,4,2.5,11.39,11.39,0,0,1-1,5.48,17.63,17.63,0,0,1-3,4.21,2.18,2.18,0,0,0-.17,3.11c.39.48.66,1,1,1.58C66.6,79.5,69.37,82.78,72,86.16c3.44,4.41,6.89,8.8,10.16,13.34a1.67,1.67,0,0,0,1.16.86A59.68,59.68,0,0,0,102,78.9c-2.31-1.64-4.41-3.44-6.63-5.29-.11.42-.19.64-.23.88a1.93,1.93,0,0,1-1.65,1.78,2.26,2.26,0,0,1-2-1.17c-.24-.32-.28-.82-.78-1-.51,1.22-1,2.44-1.52,3.6s-1.66,1.51-2.83.61a5,5,0,0,1-1.27-1.54C84.41,75.72,84.59,74.44,84,73.28Zm-.9,37.09c.07-.25.16-.4.14-.52-.29-1.57-.37-3.16-.59-4.73a5,5,0,0,0-1-2.33c-2.38-3.21-4.85-6.35-7.21-9.56-2.94-4-5.8-8-8.54-12.18-1.35-2-2.81-4-4.06-6.14a3.22,3.22,0,0,1,.26-4.11c.5-.58.94-1.21,1.43-1.81A10.48,10.48,0,0,0,66,63.27c-3.54,1.08-4,.93-4.76-1.61-.08,0-.19,0-.26,0a32.68,32.68,0,0,0-9.85,8.5,4.17,4.17,0,0,0-.82,3.66,22.1,22.1,0,0,0,2.34,6.34,55.42,55.42,0,0,0,5.85,8.57c.49.59,1.26,1.14,1.3,1.87.07,1.3.55,2.56.36,3.87-.51,3.42-1.14,6.83-1.86,10.22-.33,1.55-.59,3.12-.93,4.67-.17.76.13,1.08.83,1.2a61,61,0,0,0,10.18,1.21,68.09,68.09,0,0,0,10.68-.66C80.44,110.92,81.8,110.62,83.13,110.37ZM85,68.93a10.9,10.9,0,0,0,1-3.28,19.19,19.19,0,0,0,.78-5.84,4.55,4.55,0,0,0-.52-1.93,2,2,0,0,0-2.1-.94c-.85.18-.69.88-.82,1.48-.48,2.09-.64,4.3-2.15,6A.73.73,0,0,0,81,65a9.25,9.25,0,0,0,1,4.44C83,68,83.22,67.92,85,68.93Zm3.15-6.09-.17.79a51.59,51.59,0,0,1-2.29,8,3.42,3.42,0,0,0,.19,3.66C87,73.07,87.13,73,89.41,73.38a21,21,0,0,0,2-6.38A3.74,3.74,0,0,0,88.15,62.84Zm-6.42-3.1a8.69,8.69,0,0,0,.32-5.05,3.1,3.1,0,0,0-2-2.14,2.48,2.48,0,0,0-2.65.6c-.67.61-.29,1.23-.13,1.86.29,1.16.6,2.32.89,3.48a4.48,4.48,0,0,0,.72,1.95C79.59,59.33,80.49,58.9,81.73,59.74Zm-18.88,2.9a3,3,0,0,0,3.27-1.26c-.71-1.17-1.27-1.49-2.05-1.21A2,2,0,0,0,62.85,62.64ZM91.67,73a3.83,3.83,0,0,1,2.07-2.15c-.47-1.31-.1-2.74-.91-4C93,69,91.41,70.76,91.67,73Zm-4.8,3.49c0,.2,0,.44.06.68a.53.53,0,0,0,.49.45.49.49,0,0,0,.56-.33c.25-.62.51-1.23.73-1.86.16-.46.13-.88-.42-1a.81.81,0,0,0-1,.53A4.53,4.53,0,0,0,86.87,76.44Zm-6.8-12.92c.78-.48,1.47-1.76,1.27-2.34-.12-.35-.29-.73-.77-.74a.5.5,0,0,0-.56.34A3.81,3.81,0,0,0,80.07,63.52Zm3.64,8.36c1.25-1.11,1.2-1.64-.22-2.5C82.65,70.46,82.72,71.19,83.71,71.88ZM93.78,72c-1.09.67-1,1.58-1.08,2.4,0,.34,0,.71.42.79s.65-.24.78-.64C94.16,73.73,93.77,73,93.78,72Z"/></g></g></svg>