<svg xmlns="http://www.w3.org/2000/svg" viewBox="0 0 113.93 109.26"><defs><style>.cls-1{fill:#f0fcff;}.cls-2{fill:#79cce2;}.cls-3{fill:#203b3f;}</style></defs><title>cucitangan2</title><g id="Layer_2" data-name="Layer 2"><g id="OBJECTS"><circle class="cls-1" cx="56.97" cy="54.63" r="54.63" transform="translate(-21.94 56.28) rotate(-45)"/><path class="cls-2" d="M61.15,43.07l-3.77-1.39c-2.8-1-5.55-2.17-8.44-2.93-3.1-.81-5.41,1-5.25,4.24a12.61,12.61,0,0,1-2.38,0,4,4,0,0,0-3.64,2.81,4,4,0,0,0,.77,3.52,24,24,0,0,0,2.14,2.14,2.75,2.75,0,0,1-1,.63,3.32,3.32,0,0,0-1.17,4.74,13.87,13.87,0,0,0,4.13,4c1.72,1.23,3.51,2.36,5.34,3.58a2.17,2.17,0,0,1-1.5,1,8,8,0,0,1-8.48-4.15,5.78,5.78,0,0,0-2.15-2.4,6.77,6.77,0,0,1-2.72-7.23,11.14,11.14,0,0,0,.43-5.26,18.72,18.72,0,0,1-.19-3.75,6.62,6.62,0,0,1,4.57-6,14.41,14.41,0,0,1,5.72-.43,29.22,29.22,0,0,0,4.77,0c5-.43,9,1.64,12.11,5.41A2,2,0,0,1,61.15,43.07Z"/><path class="cls-2" d="M69,28a3.78,3.78,0,0,1,3.8-3.87,3.66,3.66,0,0,1,3.75,3.58,3.73,3.73,0,0,1-3.78,4A3.69,3.69,0,0,1,69,28Z"/><path class="cls-2" d="M24.18,25.63a3.54,3.54,0,0,1-3.47-3.34,3.61,3.61,0,0,1,3.46-3.54,3.35,3.35,0,0,1,3.35,3.41C27.48,23.74,26.13,25.72,24.18,25.63Z"/><path class="cls-2" d="M40.75,73.35a3,3,0,0,1,3,2.87A2.78,2.78,0,0,1,41.05,79a3.35,3.35,0,0,1-3-3A2.63,2.63,0,0,1,40.75,73.35Z"/><path class="cls-2" d="M80.63,26.74A2.15,2.15,0,0,1,83,29a2.36,2.36,0,0,1-4.71.21A2.37,2.37,0,0,1,80.63,26.74Z"/><path class="cls-2" d="M14.72,21.11a1.53,1.53,0,0,1-1.62-1.63,1.66,1.66,0,0,1,1.59-1.56,1.82,1.82,0,0,1,1.63,1.73A1.46,1.46,0,0,1,14.72,21.11Z"/><path class="cls-3" d="M103.91,94.93a4.08,4.08,0,0,1-1.53-1.37c-1.08-1.22-2.22-2.38-3.33-3.58a11.89,11.89,0,0,0-8.61-3.78,67.47,67.47,0,0,1-7.51-.49,73.62,73.62,0,0,1-9.25-2.21,77.73,77.73,0,0,1-19.83-9.45,24.26,24.26,0,0,1-5.07-4.25,1.66,1.66,0,0,0-1.34-.71c-3.14.09-6.23-.54-9.35-.78C33,67.9,27.89,67,22.82,66.05a12,12,0,0,1-3.29-1,4.56,4.56,0,0,1-1.85-1.58,2.19,2.19,0,0,1,.82-3.31,4.55,4.55,0,0,1,2.08-.55c1.2-.07,2.37-.44,3.6-.41a15.63,15.63,0,0,0-3.64-1.06c-3.92-1-7.87-1.87-11.73-3.07-.91-.29-1.82-.62-2.72-.95a4.5,4.5,0,0,1-.9-.46C4.2,53,3.3,52.2,3.5,50.84S4.62,49,5.71,48.61L7,48.11c-1.13-.61-2.36-.55-3.42-1a10.6,10.6,0,0,1-2.14-1.18c-1.69-1.34-2.25-3.48.12-5.15a6.23,6.23,0,0,1,3.2-1.2c.57,0,1.13-.14,2-.25-.69-.42-1.13-.67-1.56-1a3.1,3.1,0,0,1-1.6-2.88A3.33,3.33,0,0,1,6,32.62a13.45,13.45,0,0,1,3.68-.68,158.13,158.13,0,0,1,21-.29c5.83.39,11.67.37,17.58.66,0-.5-.4-.73-.69-1a71.16,71.16,0,0,1-5.8-6.23,22.51,22.51,0,0,1-4-6.94c-.34-1.07-.49-2.13.39-3a3,3,0,0,1,3.08-.66,16.26,16.26,0,0,1,5.38,3C52.23,21.89,58,26.08,64.05,30c2.62,1.69,5.34,3.22,8.07,4.74a4.73,4.73,0,0,0,.66.25c.65-.37,1-1.07,1.78-1.22a3.76,3.76,0,0,1,3.59,1,18.77,18.77,0,0,1,2.31,2.95A60.26,60.26,0,0,0,91.32,50a38.66,38.66,0,0,1,8.76,11.55c.7,1.32,1.45,2.61,2.2,3.9a8.94,8.94,0,0,0,3.15,3.11,52.46,52.46,0,0,0,6.35,3.1c2.42,1.07,2.45,1.06,1.76,3.71A60,60,0,0,1,106,92.41,8,8,0,0,1,103.91,94.93ZM39.68,56.72a6.56,6.56,0,0,0,2.26,2.35c4.46,3.51,9.49,6.07,14.44,8.76,2,1.11,4.12,2.08,6.11,3.24.44.26.84.46.65,1.05A1,1,0,0,1,62,72q-4.85-2.57-9.7-5.11a3.55,3.55,0,0,0-1.7-.7A2.27,2.27,0,0,1,51,68c-.19.65-.84.78-1.44,1.06A16.6,16.6,0,0,0,51,70.47a33.06,33.06,0,0,0,3.9,3,78,78,0,0,0,26.8,10.94,18.41,18.41,0,0,0,3.41.58c1.59,0,3.18.06,4.77.11a13.73,13.73,0,0,1,10,4.18c1,1,2,2,2.86,3.06.32.39.58.9,1.21,1,.24-.29.51-.56.72-.87a62.43,62.43,0,0,0,8-18.43c.16-.65-.16-.89-.63-1.09-1.46-.61-2.94-1.19-4.39-1.82-2.85-1.24-5.31-2.92-6.78-5.78-.43-.86-.89-1.7-1.34-2.55C97.18,58.47,94.71,54.29,91,51A68.19,68.19,0,0,1,79.65,38.36c-.24-.33-.34-.82-.9-.88,0,.13-.07.26-.1.39-.37,1.37-1,1.7-2.33,1.24a5.19,5.19,0,0,1-1.83-1.35c-.33-.32-.38-.9-1-1.08A3.76,3.76,0,0,0,73.9,39a89.54,89.54,0,0,0,5.2,10.76,2.58,2.58,0,0,1,.59,1.89,7.83,7.83,0,0,1-3.61-1c-5-2.08-10-4.1-14.82-6.43a82.75,82.75,0,0,0-8-3c-1.44-.52-2.9-1-4.38-1.43a2.69,2.69,0,0,0-2.55.19.75.75,0,0,0,.51.59,3,3,0,0,1,1,.63c1.55,1.3,1.53,2.36-.05,3.72.06.21.25.27.42.35,3.68,1.8,7.37,3.56,11.14,5.17a75.83,75.83,0,0,1,8.41,3.83c.44.25,1,.37,1.09,1-.41.6-.87.28-1.28.07-1-.52-2-1.12-3.08-1.6-4.24-1.94-8.61-3.62-12.78-5.71-2.58-1.29-5.3-2.25-7.79-3.74a4.11,4.11,0,0,0-3.12-.11,12.5,12.5,0,0,1,2.07,2,2.24,2.24,0,0,1,.34,2.31c-.35.79-1.13.8-1.86.81H39.68A12.85,12.85,0,0,0,43.39,52c5.73,2.66,11.27,5.67,17,8.34,1,.49,2,1.11,3,1.67.28.16.45.4.28.72A.58.58,0,0,1,63,63a5,5,0,0,1-.78-.37c-1.37-.7-2.74-1.42-4.12-2.1L43.18,53.1a2.4,2.4,0,0,0-1.68-.41A13.21,13.21,0,0,1,43,54.39a1.6,1.6,0,0,1-1.31,2.52A7.11,7.11,0,0,1,39.68,56.72Zm-.77-39.53a11.6,11.6,0,0,0,1.66,3.94,46,46,0,0,0,7.67,9.14c.66.64,1.33,1.26,2,1.91.26.26.57.55.4,1s-.57.45-1,.45h-.29c-3.57-.13-7.14-.27-10.71-.38-3.32-.1-6.65-.31-10-.46-6.52-.29-13,.07-19.54.38a11.47,11.47,0,0,0-2.81.63,2.14,2.14,0,0,0-1.56,1.75A1.86,1.86,0,0,0,5.91,37.4a9.25,9.25,0,0,0,.88.47,16,16,0,0,0,4.5,1c3.63.47,7.28.74,10.91,1.3,3.47.53,7,.89,10.46,1.31a2.11,2.11,0,0,1,1.62.69c-.47.62-1,.41-1.52.35-4.93-.57-9.86-1.15-14.79-1.7-1.3-.15-2.61-.14-3.9-.32a34.18,34.18,0,0,0-9.79.3,4.53,4.53,0,0,0-2,.86c-1.44,1-1.46,2.16-.08,3.27a7.81,7.81,0,0,0,3.25,1.51,121.13,121.13,0,0,0,13.24,2.1c4.45.53,8.83,1.49,13.26,2.06.48.06.95.19,1.1.76a1.7,1.7,0,0,1-1.59.23c-4.18-.63-8.33-1.46-12.54-1.93-1.62-.18-3.25-.33-4.86-.64A14,14,0,0,0,6,49.78c-.66.27-1.28.62-1.31,1.38s.57,1.09,1.09,1.43a12.19,12.19,0,0,0,3.06,1.26c6.21,1.93,12.55,3.36,18.88,4.8,1.55.36,3.11.66,4.67,1,.5.1,1.11.18.91,1a.81.81,0,0,1-.67.26c-2.55-.19-5.12.06-7.66-.31a19.7,19.7,0,0,0-5.31.37,1.43,1.43,0,0,0-1.28,1,1.4,1.4,0,0,0,.66,1.49,4.21,4.21,0,0,0,1.21.77,15.56,15.56,0,0,0,2.5.73c3.12.56,6.24,1.15,9.39,1.58,4.1.56,8.22,1,12.33,1.43a8.58,8.58,0,0,0,2.67,0A2.71,2.71,0,0,1,46.74,66c.13-.7.93-.93,1.15-1.56-1.82-1.21-3.6-2.35-5.33-3.58a15.94,15.94,0,0,1-4-3.73,3.44,3.44,0,0,1,1.24-5,1.55,1.55,0,0,0,.8-.55,17.88,17.88,0,0,1-2.18-2.17,4,4,0,0,1-.73-3.53A3.94,3.94,0,0,1,41.23,43c.81,0,1.62,0,2.42,0,0-3.52,2.11-5.08,5.5-4.2a83,83,0,0,1,11,3.92C65.11,44.81,70,47,75,49.05c.22.09.51.33.75,0-.83-2.26-1.71-4.49-2.47-6.76-.66-2-1.42-3.9-.87-6.09-.28-.17-.55-.36-.84-.51a93.62,93.62,0,0,1-8.81-5.18c-5.83-3.82-11.44-7.93-17-12.17l-2.41-1.57a6,6,0,0,0-3.78-1.21A1.37,1.37,0,0,0,38.91,17.19ZM77.48,38.26c.62-1.78,0-3.22-1.57-3.61-.85-.21-1.43.29-1.31,1.12A3.35,3.35,0,0,0,77.48,38.26Zm-35,9.79A5.49,5.49,0,0,0,39.36,45c-.87,1-.94,1.34-.5,2C39.6,48.15,40.54,48.45,42.48,48.05Zm2.63-7c-.74,1.71-.2,2.73,1.55,3a1.19,1.19,0,0,0,1.15-.44c.28-.38.06-.79-.28-1.13A6.35,6.35,0,0,0,45.11,41Zm-3,14.62c-.08-1.44-1.23-1.8-2.12-2.37-.6.35-1,.76-.88,1.4s.74.85,1.27,1A2.54,2.54,0,0,0,42.13,55.63Zm7.93,12a2.9,2.9,0,0,0-1.53-1.77c-.22-.15-.44.05-.57.26C48.61,67.64,48.79,67.78,50.06,67.59Z"/></g></g></svg>