<svg xmlns="http://www.w3.org/2000/svg" viewBox="0 0 109.26 109.26"><defs><style>.cls-1{fill:#f0fcff;}.cls-2{fill:#79cce2;}.cls-3{fill:#203b3f;}</style></defs><title>cucitangan1</title><g id="Layer_2" data-name="Layer 2"><g id="OBJECTS"><circle class="cls-1" cx="54.63" cy="54.63" r="54.63"/><path class="cls-2" d="M43,16.81a23.83,23.83,0,0,1,1.42-5.61,1.72,1.72,0,0,1,.43-.64.63.63,0,0,1,1.11.25c.49,2.07,1.59,3.91,2.16,6a4.25,4.25,0,0,1-.18,2.86,2.21,2.21,0,0,1-3.78.7A5.08,5.08,0,0,1,43,16.81Z"/><path class="cls-2" d="M34.79,36.24a17,17,0,0,1,1.79-6.34.94.94,0,0,1,.94-.65c.41,0,.6.39.72.73a32.73,32.73,0,0,1,1.52,6.6A4.67,4.67,0,0,1,39,39.23a1.84,1.84,0,0,1-2.69.51A3.55,3.55,0,0,1,34.79,36.24Z"/><path class="cls-2" d="M46.4,33.53C47.72,35.72,49,38,49,40.73a4.88,4.88,0,0,1-.42,1.8,2.11,2.11,0,0,1-3.65.55A4.23,4.23,0,0,1,44,40a17.47,17.47,0,0,1,1.41-5.85A1.06,1.06,0,0,1,46.4,33.53Z"/><path class="cls-3" d="M43.55,54.15a9.17,9.17,0,0,1-.76-2.69,2.49,2.49,0,0,1,2.64-2.78,10.8,10.8,0,0,1,3.52.51,156.36,156.36,0,0,0,16.54,4.18,49.31,49.31,0,0,1,7.84,1.93,23.51,23.51,0,0,1,9.07,5.55c1.74,1.78,3.68,3.35,5.48,5.06C93.62,71.36,99.47,76.7,105.32,82c.9.82,1,1.07,0,2.14-2.76,3-5.52,5.92-8.5,8.66-2.17,2-4.46,3.84-6.82,5.61a1.41,1.41,0,0,1-1.07.49,14.29,14.29,0,0,1-1.5-1.38c-3.06-3.3-6.18-6.54-9.18-9.89a3.43,3.43,0,0,0-3.79-1.24c-1.85.43-3.8.45-5.68.84-2.39.49-4.76,1-7.12,1.59a48.61,48.61,0,0,1-10.24,1.79,15.18,15.18,0,0,1-7.93-2.25,83,83,0,0,1-8.32-5.1c-2.83-2-6-3.47-8.92-5.31s-6.18-3.75-9.29-5.6a14.86,14.86,0,0,1-2.82-2.16c-1.27-1.25-1.28-1.61-.1-3-.58-.42-1.18-.81-1.73-1.26-1.6-1.31-1.77-2.36-.7-4.19-.26-.47-.79-.63-1.18-1-1.48-1.2-1.86-3.84.9-4.68.53-.16,1.05-.38,1.72-.63a4.09,4.09,0,0,1-.54-3c.58-2.14,2.28-2.72,4.12-3a20.32,20.32,0,0,1,8.3.79c4,1.15,7.87,2.87,11.77,4.4,1.09.42,2.12.73,3.22-.09a3.83,3.83,0,0,1,2.26-.45A3.25,3.25,0,0,0,43.55,54.15Zm1.67,24.94c-.48.17-.74-.12-1.06-.28-4.1-2.08-7.92-4.64-11.95-6.85a164.86,164.86,0,0,0-15.55-7.81c-.2-.09-.35-.18-.52,0a6,6,0,0,1,1,3.26l8.34,4.92C28.24,74,31,75.67,33.74,77.29S39.1,81,42,82.55a.83.83,0,0,1,.51,1c-.53.31-1,.08-1.5-.24-2-1.34-4-2.73-6.1-4-5.23-3.12-10.5-6.18-15.77-9.25-.32-.18-.61-.57-1.07-.4a2.83,2.83,0,0,0,1.77,3c4.79,2.73,9.56,5.52,14.24,8.46,3.8,2.39,7.44,5,11.48,7a11.15,11.15,0,0,0,4.75,1.18c3.69.13,7.2-.83,10.71-1.72,2.57-.65,5.15-1.17,7.75-1.65,2.09-.38,4.24-.4,6.31-.83a3.41,3.41,0,0,1,3.58,1.19c2.06,2.32,4.12,4.63,6.25,6.88a40.78,40.78,0,0,0,4.24,4.18c3.15-1.71,13.75-11.8,15.13-14.27-1-1.13-1.87-2.28-2.9-3.27-3.53-3.42-7.28-6.59-10.8-10a72.84,72.84,0,0,0-7.11-6.26A19,19,0,0,0,76,59.84,65.14,65.14,0,0,0,68.94,59c-3.46-.36-6.88-.83-10.32-1.27-4.83-.63-9.58-1.66-14.41-2.25-.44,0-.88-.51-1.43-.07.26.19.47.33.66.5,1.65,1.44,1.4,2.86-.64,3.58a2.37,2.37,0,0,0-1.17.61c4.62,2.72,9.91,3.54,14.84,5.39-.4.74-1,.59-1.45.62a38,38,0,0,1-6.21-.27,39.33,39.33,0,0,1-9.76-2.43c-3.89-1.44-7.71-3-11.63-4.38a45.63,45.63,0,0,0-11.07-2.24,5.45,5.45,0,0,0-2.8.19c2.07,1.5,4.3,2.76,3.12,5.74,2,.91,3.89,1.74,5.74,2.65,4.19,2,8.26,4.3,12.3,6.62,3.36,1.92,6.56,4.12,10,5.91C45.27,78.21,45.49,78.53,45.22,79.09ZM11.51,57.57a1,1,0,0,0-1.06,1.06,1.66,1.66,0,0,0,.82,1.42A24.11,24.11,0,0,0,14.81,62a.78.78,0,0,0,.87-.1.85.85,0,0,0,.26-1C15.64,59.6,12.89,57.57,11.51,57.57ZM41.13,58.8a3.35,3.35,0,0,0,1.71-.47c.75-.49.76-.84.11-1.46a5.87,5.87,0,0,0-2.09-1,1.25,1.25,0,0,0-1.58.65,1.37,1.37,0,0,0,.14,1.59C39.89,58.83,40.59,58.66,41.13,58.8ZM15.87,66.58a5.67,5.67,0,0,0-3.44-3.79,1.45,1.45,0,0,0,.42,2A11.35,11.35,0,0,0,15.87,66.58Zm-1.59,2A6.42,6.42,0,0,0,17,70.81a4.39,4.39,0,0,0-1.69-2.51C15,68.05,14.59,68.17,14.28,68.6Z"/></g></g></svg>