<svg xmlns="http://www.w3.org/2000/svg" viewBox="0 0 449.48 474.71"><defs><style>.cls-1{isolation:isolate;}.cls-2{fill:#118c86;}.cls-3{fill:#f7834f;}.cls-4,.cls-7{fill:#fab480;}.cls-5,.cls-6{fill:#fda16f;}.cls-6{opacity:0.51;}.cls-6,.cls-7{mix-blend-mode:multiply;}.cls-7{opacity:0.35;}.cls-8{fill:#9794aa;}.cls-10,.cls-9{fill:#bcbad8;}.cls-17,.cls-9{opacity:0.53;}.cls-10,.cls-17,.cls-9{mix-blend-mode:overlay;}.cls-11{fill:#e0d7f4;}.cls-12{opacity:0.22;mix-blend-mode:screen;}.cls-13{fill:#e0e0e0;}.cls-14{fill:#f79b5c;}.cls-15{fill:#efe9ff;}.cls-16{fill:#514b5b;}.cls-17{fill:#e6e6ff;}.cls-18{fill:#ffe840;}</style></defs><title>Asset 4</title><g class="cls-1"><g id="Layer_2" data-name="Layer 2"><g id="Layer_1-2" data-name="Layer 1"><path class="cls-2" d="M383,25.92s-183.66-37.31-267,64q-11.57,14-21.84,27.1c-41.4,21.7-71.46,48.41-53.69,75.59C11.94,239.14-.23,276.57,0,313.66c.38,60.79,98.3,112.69,167.09,95.74,45.11-11.11,82.22-56.79,119.72-91.19,4.61-.42,9.33-.71,14.15-.82,68.51-1.62,104.79-29,114.36-44.8S476.67,197,430.81,148.47C441,95.84,431.77,43.59,383,25.92Z"/><path class="cls-3" d="M258.19,163.73c9.9,5.38,19.44,18.07,24.36,28.34l1.48,3.82c4.46,12.43,3.66,31.35.87,44.15,4.51-30.73-3.3-47-3.38-47.52C277,182.89,267.3,169.28,258.19,163.73Z"/><path class="cls-4" d="M284,120.31a17.54,17.54,0,0,0-21.64.58c-11.35,8.81-22.71,22-27.66,34.61s-20,24.59-27.26,24.2-29.34-17.95-39.4-41.11S130.38,59.65,123.78,57s-12.12-3.71-13.56,6.44,30.13,81.16,31.5,90.8-7.35,1.78-8.64-1.19S90,90.53,85.4,86C78.43,79,73.14,70.42,66,71.78s-12.21,6-10.27,10.46S87.09,129.31,90.9,134s24.55,37,21.28,38.41S44.57,112.94,37.6,111.29c-7.61-1.81-11.32-2.5-11.9,8.35s76.76,80,69.68,84.79S47,175.51,37.4,171.74s-18.88-3.65-17,4.8,37.8,36.62,50.23,48.16,72.72,71.47,75.69,78.3,43.29,91.25,42.91,100.94c0,0,45.66-18.53,67.75-46.48L227.2,268.92s12-23.57,16.82-43.32,10.76-49.16,21-59.62S290,122.66,284,120.31Z"/><path class="cls-5" d="M412.82,74.65c2,8.42-17.75,49.54-23.81,65.39s-33.7,96.23-33.35,103.67.5,51.83,5.11,60.36c0,0-19.67,14.72-42.3,22.29-13.91,4.67-28.94,6.62-41.2.77l-9.2-78.31S246.9,233,233.84,217.37,202.5,178,188.66,173.15s-41.5-27.86-37.2-32.6a17.56,17.56,0,0,1,19.67-9c14.08,2.91,30.12,9.77,40.11,18.85s28.82,13.23,35.13,9.7,18.41-29.08,17.22-54.3c-.43-8.94-1-22.47-1.45-36.45-.75-25.4-.8-52.25,2.29-55.64,4.77-5.25,12.15-9.32,17.92-.84,4.76,7,7.64,61,10.21,84.93a69,69,0,0,0,1.61,10.45c2.34,7.15,5.46,2.28,6.69-1.81a9.94,9.94,0,0,0,.54-3.07c-.16-3.23,12-75.76,11.67-82.23S318.69,2.7,325.72.75s13.61,0,13.84,4.85-7.4,56.1-8.74,62-5.7,44-2.14,43.85c3.24-.15,28.2-70.83,37.65-85.27,2.79-4.26,6.41-7.07,11.36-6.14,4.16.78,5.69,4.1,5.78,8.43.38,18-33.57,103.14-25.6,104.29,8.49,1.22,30.67-47.31,37.6-54.93S410.81,66.22,412.82,74.65Z"/><path class="cls-6" d="M328.25,267.44c-5.87,9.71-8.55,36.08-9.78,58.92-13.91,4.67-28.94,6.62-41.2.77l-9.2-78.31S246.9,233,233.84,217.37,202.5,178,188.66,173.15s-41.5-27.86-37.2-32.6a17.56,17.56,0,0,1,19.67-9c14.08,2.91,30.12,9.77,40.11,18.85s28.82,13.23,35.13,9.7,18.41-29.08,17.22-54.3c-.43-8.94-1-22.47-1.45-36.45,6.62,5.74,18.37,16.28,30.42,28.45a69,69,0,0,0,1.61,10.45c2.34,7.15,5.46,2.28,6.69-1.81,13.1,14,25.19,29.22,29.84,41.42C342.74,179.45,339.42,249,328.25,267.44Z"/><path class="cls-3" d="M340,165.36c-9.07-3.93-9.51-14.08-9.67-14.53l-10.14,2.44a25.86,25.86,0,0,1-8.85.52c-10.77-1.42-12.84-11.21-13-11.41-.57,0-6.8,2.73-16.81-1.52a50.68,50.68,0,0,1-14-9.08,44,44,0,0,0,6.24,5.72c6.8,5.18,14.91,8.74,23.2,7.24a17.06,17.06,0,0,0,14,11.35c5.91.86,11.39-.87,17.66-2.68a19,19,0,0,0,1.09,3.4c3.85,9.28,13,14.13,27.68,8.47C351.7,166.82,345.58,167.7,340,165.36Z"/><path class="cls-3" d="M350.58,189.89c-26.33,6.48-82.45-31.72-84.83-33.35l.67-1c.58.39,58.06,39.53,83.88,33.17Z"/><path class="cls-7" d="M284,120.31a17.54,17.54,0,0,0-21.64.58c-11.35,8.81-22.71,22-27.66,34.61s-20,24.59-27.26,24.2-29.34-17.95-39.4-41.11S130.38,59.65,123.78,57s-12.12-3.71-13.56,6.44,30.13,81.16,31.5,90.8-7.35,1.78-8.64-1.19S90,90.53,85.4,86C78.43,79,73.14,70.42,66,71.78s-12.21,6-10.27,10.46S87.09,129.31,90.9,134s24.55,37,21.28,38.41S44.57,112.94,37.6,111.29c-7.61-1.81-11.32-2.5-11.9,8.35s76.76,80,69.68,84.79S47,175.51,37.4,171.74s-18.88-3.65-17,4.8,37.8,36.62,50.23,48.16,72.72,71.47,75.69,78.3,43.29,91.25,42.91,100.94c0,0,45.66-18.53,67.75-46.48L227.2,268.92s12-23.57,16.82-43.32,10.76-49.16,21-59.62S290,122.66,284,120.31Z"/><path class="cls-8" d="M117.07,335.74c-2.93,12.3-15,68.21-29.46,113.09q-1.29,4-2.57,7.73c-1.14,3.33-2.28,6.53-3.42,9.57L37.5,448.31c15.4-35.62,45.14-85.45,65-118.44,0-.24,1.08-.11,6.92,1.93C109.89,332,117.41,335.2,117.07,335.74Z"/><path class="cls-9" d="M85,456.56c-1.14,3.33-2.28,6.53-3.42,9.57L53.75,454.88,43.09,436.1c4.27-8.94,9.16-18.49,14.34-28.14Z"/><path class="cls-10" d="M98.67,411c-1,3.73-2,7.45-3.07,11.13l-23.32-41q2.39-4.19,4.74-8.24Z"/><path class="cls-9" d="M93.34,430.11c-1.89,6.46-3.81,12.74-5.73,18.72L60.83,401.68c2.65-4.89,5.37-9.76,8.07-14.58Z"/><path class="cls-11" d="M81.16,467.54c-3.82,7.83-16.52,9.51-28.37,3.74s-18.37-16.79-14.56-24.63,16.52-9.51,28.37-3.75S85,459.7,81.16,467.54Z"/><path d="M119.66,343.54,95.4,334.75a8.89,8.89,0,0,1-5.32-11.38l2.1-5.8,41,14.85-2.11,5.8A8.87,8.87,0,0,1,119.66,343.54Z"/><g class="cls-12"><path class="cls-13" d="M292.78,165.13A132.1,132.1,0,0,1,196.13,325c-.67.16-1.35.33-2,.46A132.1,132.1,0,0,1,68.86,105.64a130.17,130.17,0,0,1,26.23-21.3,126.11,126.11,0,0,1,17-8.84,131.45,131.45,0,0,1,20.89-7q5.9-1.45,11.75-2.34a128.65,128.65,0,0,1,17.5-1.5,131.16,131.16,0,0,1,45,7.07,131.9,131.9,0,0,1,85.58,93.43Z"/></g><path class="cls-4" d="M181.31,319.73c-7.06-16.52-15-33.06-17.07-37.74-3.89-8.94-83-87.26-99.31-102.34-7.62-7-20.75-17.77-34.12-29.47a131.46,131.46,0,0,1,12.83-25.76C64.42,138.64,91,157.47,97.43,153.08c4.47-3-16.59-25.42-39.6-49.45a128.43,128.43,0,0,1,25.93-21c18.33,16,34,29.31,35.78,28.53,3-1.31-9.56-22.6-19-37.25a131.32,131.32,0,0,1,32.25-9.24c7.91,11.37,13.72,20,14.25,21.19,1.7,3.87,13.13,14.15,11.35,1.54-.48-3.37-3.78-12.46-8.32-24.23a129.79,129.79,0,0,1,44.45,6.91c13.76,28.66,41.06,50,50.21,50.49,3.3.18,7.82-1.6,12.62-4.7a128.89,128.89,0,0,1,21.59,46C296.48,233.23,250.33,305.68,181.31,319.73Z"/><path class="cls-14" d="M199.7,130.28c-2.13,1.08-6.42,1.24-8.8,1.14a50.74,50.74,0,0,1-14.12-2.95l.07,2.23c.25,8.47-3.24,18.92-6.76,24l-.5.74c-.34.25-3.33,5.7-17.18,9.82a94.67,94.67,0,0,1-16.86,3.22c-.46,1.16,1,22.72-24.38,29.49a54,54,0,0,1-13.6,1.85,48.68,48.68,0,0,0,13.88-.67c15.09-2.92,24.9-12.38,27-27.82,27.47-2.73,33.7-13.65,34-13.81A43.43,43.43,0,0,0,177.47,147a48.32,48.32,0,0,0,2.47-14.44c5.38,1.34,12,2,17.48.74,10.62-2.1,14-20.65,12.09-27.83C210.58,111.92,206.56,126.82,199.7,130.28Z"/><path class="cls-14" d="M135.7,215.29c29.14-17,58.7-40.37,83.46-63.57,3.55-3.39,23.88-22.34,21.4-26.65.73,1,0,3.19-.48,4.28-5.22,12.53-29.49,34.51-31.64,36.63l-6.58,5.89-6.73,5.73C177.72,191.81,156,206.61,135.7,215.29Z"/><path class="cls-14" d="M270.35,268.25a204.66,204.66,0,0,1-12-33.65c-6.24-26-6.4-58.16-4.27-84.93-4.46,24.27-5.81,56.58.84,85.76A194.29,194.29,0,0,0,268.41,271Z"/><g class="cls-12"><circle class="cls-13" cx="164.53" cy="196.72" r="111.74" transform="translate(-0.31 0.26) rotate(-0.09)"/></g><path class="cls-15" d="M161.61,68.74C81.49,70,23.23,146.22,42.67,225.17c16.77,68.05,84.84,109.46,151.77,93s108-84.72,91.21-152.82C271.19,106.58,218.48,67.78,161.61,68.74ZM189.77,299.2C133,313.19,75.53,278,61.39,220.56S81.8,105.26,138.56,91.28s114.24,21.23,128.38,78.65S246.54,285.22,189.77,299.2Z"/><path class="cls-16" d="M231.86,285.54c-.7.54-1.41,1.06-2.12,1.58l12.54,16.29c.59-.43,1.18-.87,1.75-1.32ZM161.46,61.71C76.42,63,15.51,144,35.92,226.83c17.7,71.84,89.56,115.54,160.2,98.14,51.81-12.76,89.87-55.3,98.46-107.07C308.18,135.37,243.75,60.3,161.46,61.71ZM191.2,305c-59.92,14.76-120.59-22.41-135.52-83C39.74,157.25,82.44,92.88,147.57,83.45c56.37-8.33,111,28,125.09,85.06C287.59,229.14,251.13,290.23,191.2,305Zm40.66-19.45c-.7.54-1.41,1.06-2.12,1.58l12.54,16.29c.59-.43,1.18-.87,1.75-1.32Zm0,0c-.7.54-1.41,1.06-2.12,1.58l12.54,16.29c.59-.43,1.18-.87,1.75-1.32Z"/><path class="cls-17" d="M79.76,92.05l12.5,16.27c-.42.36-.85.72-1.27,1.1L78.8,92.86C79.11,92.59,79.43,92.31,79.76,92.05Z"/><path class="cls-17" d="M229.74,287.12l12.54,16.29c-1.86,1.37-3.78,2.7-5.71,4l-12.2-16.59C226.2,289.62,228,288.4,229.74,287.12Z"/><path class="cls-17" d="M294.71,174.6l-73-99.33A132,132,0,0,1,244,89.3L288,149A132.57,132.57,0,0,1,294.71,174.6Z"/><path class="cls-17" d="M100.33,77.92l12.33,16.77a107.65,107.65,0,0,0-14.53,9L86,87.16A129.55,129.55,0,0,1,100.33,77.92Z"/><path class="cls-17" d="M244.62,274.12l12.31,16.75A129.15,129.15,0,0,1,244,302.09l-12.17-16.55A108.33,108.33,0,0,0,244.62,274.12Z"/><path class="cls-17" d="M134,65l13.56,18.44A111.08,111.08,0,0,0,119,91.67l-12.47-17A128.16,128.16,0,0,1,134,65Z"/><path class="cls-17" d="M278.94,262.07a132.37,132.37,0,0,1-17.18,23.75l-12.43-16.91a113.27,113.27,0,0,0,16.1-25.22Z"/><path d="M130.56,58.79C54.5,77.52,7.87,154.64,26.6,230.7s95.85,122.69,171.91,104,122.69-95.85,104-171.9S206.61,40.06,130.56,58.79ZM196,324.33c-70.37,17.34-141.72-25.81-159-96.18s25.81-141.71,96.18-159,141.71,25.81,159,96.18S266.33,307,196,324.33Z"/><polygon class="cls-18" points="216.47 9.67 224.39 18.3 235.71 21.3 227.08 29.22 224.08 40.54 216.16 31.91 204.84 28.91 213.47 20.99 216.47 9.67"/><polygon class="cls-18" points="414.3 141.07 422.21 149.7 433.54 152.7 424.9 160.61 421.9 171.94 413.99 163.3 402.67 160.3 411.3 152.39 414.3 141.07"/><polygon class="cls-18" points="40.54 316.29 48.46 324.92 59.78 327.92 51.14 335.84 48.15 347.16 40.23 338.53 28.91 335.53 37.54 327.61 40.54 316.29"/><polygon class="cls-18" points="209.04 201.66 216.96 210.3 228.28 213.3 219.65 221.21 216.65 232.53 208.73 223.9 197.41 220.9 206.04 212.99 209.04 201.66"/><polygon class="cls-18" points="350.54 214.19 358.46 222.82 369.78 225.82 361.15 233.74 358.15 245.06 350.23 236.42 338.91 233.42 347.55 225.51 350.54 214.19"/></g></g></g></svg>