<svg xmlns="http://www.w3.org/2000/svg" viewBox="0 0 218.49 205.27"><defs><style>.cls-1{isolation:isolate;}.cls-2{fill:#118c86;}.cls-3,.cls-4{fill:#fab480;}.cls-4,.cls-6{mix-blend-mode:multiply;}.cls-5,.cls-6{fill:#fda16f;}.cls-6{opacity:0.35;}.cls-7{fill:#ff8955;}.cls-8{fill:#fff6f0;}</style></defs><title>Asset 2</title><g class="cls-1"><g id="Layer_2" data-name="Layer 2"><g id="Layer_1-2" data-name="Layer 1"><path class="cls-2" d="M171.69,28.48C147.64,2.7,105.56-.68,77,27.85,36.3,68.58.3,29.81.3,80.81s48.23,81.92,91.73,98,35.54,11.54,83.77-9.46,50.57-74.76,31.72-99.77C199.41,58.78,185.23,43,171.69,28.48Z"/><path class="cls-3" d="M173.2,58.55c.65,0,14.53,4.87,17.15,7.5s6.11,6.37,4.56,9.87-24.31-2.25-24.31-2.25Z"/><path class="cls-3" d="M163.35,48.67s8.5,2.5,8.5,3.88-1,6.62-11.75,5S163.35,48.67,163.35,48.67Z"/><path class="cls-4" d="M173.2,58.55c.65,0,14.53,4.87,17.15,7.5s6.11,6.37,4.56,9.87-24.31-2.25-24.31-2.25Z"/><path class="cls-4" d="M163.35,48.67s8.5,2.5,8.5,3.88-1,6.62-11.75,5S163.35,48.67,163.35,48.67Z"/><path class="cls-5" d="M.56,145.86s50.21-13.05,64.84-23.33,14.83-31,22.15-38.36,8.7-15,8.7-17.79,2.37-20.56,2.37-20.56-.79-22.94,5.14-22.94,9.49,10.68,7.51,19.77-4.35,39.55-2,39.55S116,56.1,116,56.1L127.49,30s8.7-17.79,17-15.42-4,21-4,21,.19,10.08-3.17,13.44-9.88,29-9.88,31.13,15-24,15-24l10.28-13.05s12.26-19,18.59-19,6.72,7.12,4.35,12.65-4.55,6.63-9,11.08-6.23,19.27-11.56,24.61S143.9,93.17,143.9,93.17,156.35,76,158.43,73.89s6.52-8,6.52-8,9.13-9.18,12.12-12.16,8.35-9.2,11.61-9.2,6.23.6,6.23,6.82-11.13,16.76-18.69,24.32S162.14,94.5,159.91,96.73s-15.12,11.86-9.19,17.79,10.53-6.08,13.64-9.19,14.23-8,21.95-4.75,7.26,4.6,4.15,7.72-16,7.41-19.87,13.64-17.35,8.15-21.65,12.45S141.82,154,122.25,150.7s-75.92,19.58-77.7,27S-5.67,152.09.56,145.86Z"/><path class="cls-5" d="M190.46,108.29c-3.12,3.12-16,7.42-19.87,13.64s-17.35,8.16-21.65,12.46-7.11,19.57-26.7,16.31-75.92,19.57-77.7,27c-.36,1.48-2.58,1.35-5.86.13-13.11-4.85-43.11-27-38.13-32,0,0,18.21-4.73,35.89-10.74,11.68-4,23.14-8.5,29-12.59a28.2,28.2,0,0,0,4.23-3.64C80.15,108,81,90.71,87.55,84.17c7.31-7.31,8.7-15,8.7-17.79s2.37-20.57,2.37-20.57c.07-.3-1-23.37,5.56-22.91,5.68.48,9,10.88,7.09,19.75-2,9-4.35,39.54-2,39.54S116,56.1,116,56.1L127.48,30c.2-.17,8.77-18.37,17.46-15.27,7.39,2.92-4.41,20.8-4.41,20.8s.2,10.09-3.16,13.45c-3.2,3.2-9.28,26.68-9.85,30.68,0,.29,0,.45,0,.45,0,2.08,15-24,15-24l10.28-13.05s12.26-19,18.59-19,6.78,7,4.35,12.65-4.55,6.62-9,11.07-6.23,19.28-11.57,24.62c-4.06,4.07-8.47,14-10.34,18.47,0,0,0,0,0,0-.51,1.21-.83,2-.89,2.21l.56-.77h0c17.75-24.43,9.78-12.72,20.46-26.48l12.11-12.16c3-3,8.35-9.19,11.62-9.19,4.19,0,6.22,1.43,6.22,6.82,0,6.23-11.12,16.76-18.68,24.32S162.13,94.5,159.91,96.73c-2.74,2.73-15.06,11.92-9.19,17.79s10.52-6.08,13.64-9.19,14.23-8,21.94-4.75S193.57,105.18,190.46,108.29Z"/><path class="cls-6" d="M139.19,147.35c-3.65,2.89-8.88,4.69-17,3.35-19.57-3.26-75.92,19.57-77.7,27-.36,1.48-2.58,1.35-5.86.13-4.69-10.73-4.07-28-2.24-42.7,11.68-4,23.14-8.5,29-12.59a28.2,28.2,0,0,0,4.23-3.64Z"/><path class="cls-6" d="M111.27,42.65c-1.79,8.24-3.9,33.95-2.53,38.76-1.36,0-4.22-22-2.39-28.15s1.17-17.34,0-25.17a12.15,12.15,0,0,0-2.17-5.19C109.86,23.38,113.2,33.78,111.27,42.65Z"/><path class="cls-6" d="M140.53,35.53s.2,10.09-3.16,13.45c-3.2,3.2-9.28,26.68-9.85,30.68.23-3.09,1.6-21.17,1.6-23.91,0-3,5.56-18.16,8.47-23.16,2.32-4,5.95-13.92,7.35-17.86C152.33,17.65,140.53,35.53,140.53,35.53Z"/><path class="cls-6" d="M144.48,92.36h0v0Z"/><path class="cls-6" d="M144.49,92.35l.06-.08-.06.09S144.48,92.36,144.49,92.35Z"/><path class="cls-6" d="M175.73,36.72c-2.38,5.54-4.55,6.62-9,11.07s-6.23,19.28-11.57,24.62c-4.06,4.07-8.47,14-10.34,18.47,1.31-5.63,6-25.27,8.53-31,3-6.67,6.17-12.33,14.67-17.5,5.93-3.61,6.58-12.53,6.44-17.58C177.75,26.83,177.63,32.28,175.73,36.72Z"/><path class="cls-6" d="M194.9,51.35c0,6.23-11.12,16.76-18.68,24.32S162.13,94.5,159.91,96.73c-2,2-12.14,9.62-10.57,15.47a1.72,1.72,0,0,1-.32-.45c-3.5-6.66,9.33-17.33,14.93-28.21s5.23-8.12,10.9-11.79S186.05,57,191,52c2.48-2.48,2.48-4.78,1.86-6.47C194.11,46.41,194.9,48.12,194.9,51.35Z"/><path class="cls-7" d="M127.52,33.76c3.64,2.65,8.07,2.58,9.54,2.83C133.12,38,128.8,36.33,127.52,33.76Z"/><path class="cls-7" d="M155,41.51a25.63,25.63,0,0,0,2.78,5.19,7.38,7.38,0,0,0,4.72,3.06C158.05,50.51,155,45.46,155,41.51Z"/><path class="cls-7" d="M177.85,57.09c1.33,4.33,5.54,4.61,6,4.87a11.24,11.24,0,0,1,1.21.3C180.53,63.27,177.26,60.08,177.85,57.09Z"/><path class="cls-7" d="M162.52,73.59a25.48,25.48,0,0,0,6.73,2.67C166.46,77.15,163.25,75.53,162.52,73.59Z"/><path class="cls-7" d="M100,39.48c3,.43,5,1.17,7.4,0C106.13,41.86,102,41.33,100,39.48Z"/><path class="cls-7" d="M98.52,57.09c3.92-.41,5.4-.68,7.9-2.71C105.35,57.47,101.15,58.34,98.52,57.09Z"/><polygon class="cls-7" points="179.81 114.5 177.85 112.2 188.85 104.76 191.81 108.04 179.81 114.5"/><path class="cls-8" d="M66.46,58.07a13.38,13.38,0,0,1,17-1.22A11.07,11.07,0,1,1,92,76.72,15,15,0,0,1,74.3,92.39a9.83,9.83,0,1,1-18-7.37,9.83,9.83,0,0,1,6.09-16.48A13.37,13.37,0,0,1,66.46,58.07Z"/><path class="cls-8" d="M136,44.79a7.43,7.43,0,0,1,2.18,9.2A6.16,6.16,0,1,1,128,60.47a8.35,8.35,0,0,1-10.17-8.31,5.47,5.47,0,1,1,2.43-10.56,5.47,5.47,0,0,1,9.59,1.87A7.41,7.41,0,0,1,136,44.79Z"/><path class="cls-8" d="M152.21,95a7.44,7.44,0,0,1,2.18,9.2,6.16,6.16,0,1,1-10.14,6.48,8.35,8.35,0,0,1-10.18-8.31,5.47,5.47,0,1,1,2.43-10.56,5.47,5.47,0,0,1,9.59,1.87A7.43,7.43,0,0,1,152.21,95Z"/><path class="cls-8" d="M125.86,88.17a13.28,13.28,0,0,1-16.78,2.07A11,11,0,1,1,99.56,71a14.94,14.94,0,0,1,16.78-16.46,9.77,9.77,0,1,1,18.28,6.4,9.77,9.77,0,0,1-5.21,16.67A13.25,13.25,0,0,1,125.86,88.17Z"/><path class="cls-8" d="M43.3,72.18a6.52,6.52,0,0,1,8.09-1.78,5.39,5.39,0,1,1,5.52,9,7.3,7.3,0,0,1-7.41,8.79,4.68,4.68,0,0,1-1,2.42,4.78,4.78,0,0,1-8.22-4.69,4.78,4.78,0,0,1,1.77-8.36A6.49,6.49,0,0,1,43.3,72.18Z"/><path class="cls-8" d="M52.53,58.76a4.31,4.31,0,1,1-4.31-4.31A4.31,4.31,0,0,1,52.53,58.76Z"/><circle class="cls-8" cx="69.29" cy="48.32" r="4.62"/><path class="cls-8" d="M140,83.54a2.9,2.9,0,1,1-2.89-2.89A2.9,2.9,0,0,1,140,83.54Z"/><path class="cls-8" d="M84.91,21.19A3.25,3.25,0,1,1,81.66,18,3.25,3.25,0,0,1,84.91,21.19Z"/><path class="cls-8" d="M142.21,110.58a3.19,3.19,0,1,1-3.19-3.19A3.19,3.19,0,0,1,142.21,110.58Z"/><path class="cls-8" d="M131.83,97a2.75,2.75,0,1,1-2.7-3.25A3,3,0,0,1,131.83,97Z"/><path class="cls-8" d="M53.62,98.63a4.86,4.86,0,1,1-4.85-4.85A4.86,4.86,0,0,1,53.62,98.63Z"/><path class="cls-3" d="M167.85,113.09c-6.32,6.32-22.79,31.79-27.83,36.83s-17.18-1.59-27,8.2-13.34,47.15-13.34,47.15-54.87-.59-56.65-11.86c0,0,11.4-51.35,11.4-65.12s3.13-18.52,3.13-18.52S80.4,64.38,84.1,60.67c1.78-1.78,12.8-10.55,13.35-5.77.6,5.18-9.35,24-9.35,24l12.5-19.86,21.82-17.55L115.7,57.92s-5.62,25.72-3.35,24.83,12.76-23.1,12.76-25.27,1.88-4,3-5.06,10.67-8,10.67-8l12.19,1-8.86,11.45L131.44,82.19,154,60.25,171.9,58.9,161.54,70.27S133.22,104.14,137.07,108s21.24-4.27,21.36-5c.63-4,5.27-11.35,5.27-11.35,1.83-2.64,4.11-5.94,6.67-9.21C174.74,82.39,174.17,106.76,167.85,113.09Z"/><path class="cls-5" d="M38.5,177.76c3.33,1.25,5.61,1.43,6,0Z"/><path class="cls-2" d="M96.23,14.38A14.38,14.38,0,1,1,81.85,0,14.37,14.37,0,0,1,96.23,14.38Z"/><path class="cls-8" d="M149.05,166.47a13.3,13.3,0,0,1-16.78,2.07,11,11,0,1,1-9.52-19.3,14.93,14.93,0,0,1,16.78-16.45,9.77,9.77,0,1,1,18.28,6.4,9.78,9.78,0,0,1-5.21,16.67A13.25,13.25,0,0,1,149.05,166.47Z"/><path class="cls-8" d="M173.35,129.71c0,1.77-1.84,3.21-4.1,3.21s-4.11-1.44-4.11-3.21,1.84-3.21,4.11-3.21S173.35,127.93,173.35,129.71Z"/><path class="cls-8" d="M116.22,84.1a3.45,3.45,0,1,1-3.45-3.45A3.44,3.44,0,0,1,116.22,84.1Z"/><path class="cls-8" d="M80.66,94a4.28,4.28,0,1,1-4.28-4.28A4.28,4.28,0,0,1,80.66,94Z"/><path class="cls-8" d="M78.41,80.68c0,3.18-3.31,5.76-7.4,5.76s-7.41-2.58-7.41-5.76,3.32-5.76,7.41-5.76S78.41,77.5,78.41,80.68Z"/></g></g></g></svg>